<mxfile host="app.diagrams.net" agent="Mozilla/5.0 (Windows NT 10.0; Win64; x64) AppleWebKit/537.36 (KHTML, like Gecko) Chrome/133.0.0.0 Safari/537.36" version="26.0.11">
  <diagram name="第 1 页" id="s4yICmHm41gwRufcQUc_">
    <mxGraphModel dx="552" dy="362" grid="1" gridSize="10" guides="1" tooltips="1" connect="1" arrows="1" fold="1" page="1" pageScale="1" pageWidth="827" pageHeight="1169" math="1" shadow="0">
      <root>
        <mxCell id="0" />
        <mxCell id="1" parent="0" />
        <mxCell id="9ybyBgt4PyTuUXgcpJM6-25" value="Transformer Encoder" style="rounded=1;whiteSpace=wrap;html=1;fontSize=15;fontFamily=Times New Roman;" vertex="1" parent="1">
          <mxGeometry x="229" y="300" width="411" height="50" as="geometry" />
        </mxCell>
        <mxCell id="9ybyBgt4PyTuUXgcpJM6-32" value="" style="group" vertex="1" connectable="0" parent="1">
          <mxGeometry x="230" y="370" width="32" height="30" as="geometry" />
        </mxCell>
        <mxCell id="9ybyBgt4PyTuUXgcpJM6-29" value="0" style="rounded=1;whiteSpace=wrap;html=1;arcSize=34;fontSize=15;fillColor=#e1d5e7;strokeColor=#9673a6;" vertex="1" parent="9ybyBgt4PyTuUXgcpJM6-32">
          <mxGeometry width="15" height="30" as="geometry" />
        </mxCell>
        <mxCell id="9ybyBgt4PyTuUXgcpJM6-31" value="" style="rounded=1;whiteSpace=wrap;html=1;arcSize=34;fontSize=15;fillColor=#f8cecc;strokeColor=#b85450;" vertex="1" parent="9ybyBgt4PyTuUXgcpJM6-32">
          <mxGeometry x="15" width="15" height="30" as="geometry" />
        </mxCell>
        <mxCell id="9ybyBgt4PyTuUXgcpJM6-60" value="" style="group" vertex="1" connectable="0" parent="1">
          <mxGeometry x="590" y="370" width="32" height="30" as="geometry" />
        </mxCell>
        <mxCell id="9ybyBgt4PyTuUXgcpJM6-61" value="9" style="rounded=1;whiteSpace=wrap;html=1;arcSize=34;fontSize=15;fillColor=#e1d5e7;strokeColor=#9673a6;" vertex="1" parent="9ybyBgt4PyTuUXgcpJM6-60">
          <mxGeometry width="15" height="30" as="geometry" />
        </mxCell>
        <mxCell id="9ybyBgt4PyTuUXgcpJM6-62" value="" style="rounded=1;whiteSpace=wrap;html=1;arcSize=34;fontSize=15;fillColor=#f8cecc;strokeColor=#b85450;" vertex="1" parent="9ybyBgt4PyTuUXgcpJM6-60">
          <mxGeometry x="15" width="15" height="30" as="geometry" />
        </mxCell>
        <mxCell id="9ybyBgt4PyTuUXgcpJM6-63" value="" style="group" vertex="1" connectable="0" parent="1">
          <mxGeometry x="550" y="370" width="32" height="30" as="geometry" />
        </mxCell>
        <mxCell id="9ybyBgt4PyTuUXgcpJM6-64" value="8" style="rounded=1;whiteSpace=wrap;html=1;arcSize=34;fontSize=15;fillColor=#e1d5e7;strokeColor=#9673a6;" vertex="1" parent="9ybyBgt4PyTuUXgcpJM6-63">
          <mxGeometry width="15" height="30" as="geometry" />
        </mxCell>
        <mxCell id="9ybyBgt4PyTuUXgcpJM6-65" value="" style="rounded=1;whiteSpace=wrap;html=1;arcSize=34;fontSize=15;fillColor=#f8cecc;strokeColor=#b85450;" vertex="1" parent="9ybyBgt4PyTuUXgcpJM6-63">
          <mxGeometry x="15" width="15" height="30" as="geometry" />
        </mxCell>
        <mxCell id="9ybyBgt4PyTuUXgcpJM6-66" value="" style="group" vertex="1" connectable="0" parent="1">
          <mxGeometry x="270" y="370" width="32" height="30" as="geometry" />
        </mxCell>
        <mxCell id="9ybyBgt4PyTuUXgcpJM6-67" value="1" style="rounded=1;whiteSpace=wrap;html=1;arcSize=34;fontSize=15;fillColor=#e1d5e7;strokeColor=#9673a6;" vertex="1" parent="9ybyBgt4PyTuUXgcpJM6-66">
          <mxGeometry width="15" height="30" as="geometry" />
        </mxCell>
        <mxCell id="9ybyBgt4PyTuUXgcpJM6-68" value="" style="rounded=1;whiteSpace=wrap;html=1;arcSize=34;fontSize=15;fillColor=#f8cecc;strokeColor=#b85450;" vertex="1" parent="9ybyBgt4PyTuUXgcpJM6-66">
          <mxGeometry x="15" width="15" height="30" as="geometry" />
        </mxCell>
        <mxCell id="9ybyBgt4PyTuUXgcpJM6-69" value="" style="group" vertex="1" connectable="0" parent="1">
          <mxGeometry x="310" y="370" width="32" height="30" as="geometry" />
        </mxCell>
        <mxCell id="9ybyBgt4PyTuUXgcpJM6-70" value="2" style="rounded=1;whiteSpace=wrap;html=1;arcSize=34;fontSize=15;fillColor=#e1d5e7;strokeColor=#9673a6;" vertex="1" parent="9ybyBgt4PyTuUXgcpJM6-69">
          <mxGeometry width="15" height="30" as="geometry" />
        </mxCell>
        <mxCell id="9ybyBgt4PyTuUXgcpJM6-71" value="" style="rounded=1;whiteSpace=wrap;html=1;arcSize=34;fontSize=15;fillColor=#f8cecc;strokeColor=#b85450;" vertex="1" parent="9ybyBgt4PyTuUXgcpJM6-69">
          <mxGeometry x="15" width="15" height="30" as="geometry" />
        </mxCell>
        <mxCell id="9ybyBgt4PyTuUXgcpJM6-72" value="" style="group" vertex="1" connectable="0" parent="1">
          <mxGeometry x="350" y="370" width="32" height="30" as="geometry" />
        </mxCell>
        <mxCell id="9ybyBgt4PyTuUXgcpJM6-73" value="3" style="rounded=1;whiteSpace=wrap;html=1;arcSize=34;fontSize=15;fillColor=#e1d5e7;strokeColor=#9673a6;" vertex="1" parent="9ybyBgt4PyTuUXgcpJM6-72">
          <mxGeometry width="15" height="30" as="geometry" />
        </mxCell>
        <mxCell id="9ybyBgt4PyTuUXgcpJM6-74" value="" style="rounded=1;whiteSpace=wrap;html=1;arcSize=34;fontSize=15;fillColor=#f8cecc;strokeColor=#b85450;" vertex="1" parent="9ybyBgt4PyTuUXgcpJM6-72">
          <mxGeometry x="15" width="15" height="30" as="geometry" />
        </mxCell>
        <mxCell id="9ybyBgt4PyTuUXgcpJM6-75" value="" style="group" vertex="1" connectable="0" parent="1">
          <mxGeometry x="390" y="370" width="32" height="30" as="geometry" />
        </mxCell>
        <mxCell id="9ybyBgt4PyTuUXgcpJM6-76" value="4" style="rounded=1;whiteSpace=wrap;html=1;arcSize=34;fontSize=15;fillColor=#e1d5e7;strokeColor=#9673a6;" vertex="1" parent="9ybyBgt4PyTuUXgcpJM6-75">
          <mxGeometry width="15" height="30" as="geometry" />
        </mxCell>
        <mxCell id="9ybyBgt4PyTuUXgcpJM6-77" value="" style="rounded=1;whiteSpace=wrap;html=1;arcSize=34;fontSize=15;fillColor=#f8cecc;strokeColor=#b85450;" vertex="1" parent="9ybyBgt4PyTuUXgcpJM6-75">
          <mxGeometry x="15" width="15" height="30" as="geometry" />
        </mxCell>
        <mxCell id="9ybyBgt4PyTuUXgcpJM6-78" value="" style="group" vertex="1" connectable="0" parent="1">
          <mxGeometry x="430" y="370" width="32" height="30" as="geometry" />
        </mxCell>
        <mxCell id="9ybyBgt4PyTuUXgcpJM6-79" value="5" style="rounded=1;whiteSpace=wrap;html=1;arcSize=34;fontSize=15;fillColor=#e1d5e7;strokeColor=#9673a6;" vertex="1" parent="9ybyBgt4PyTuUXgcpJM6-78">
          <mxGeometry width="15" height="30" as="geometry" />
        </mxCell>
        <mxCell id="9ybyBgt4PyTuUXgcpJM6-80" value="" style="rounded=1;whiteSpace=wrap;html=1;arcSize=34;fontSize=15;fillColor=#f8cecc;strokeColor=#b85450;" vertex="1" parent="9ybyBgt4PyTuUXgcpJM6-78">
          <mxGeometry x="15" width="15" height="30" as="geometry" />
        </mxCell>
        <mxCell id="9ybyBgt4PyTuUXgcpJM6-81" value="" style="group" vertex="1" connectable="0" parent="1">
          <mxGeometry x="470" y="370" width="32" height="30" as="geometry" />
        </mxCell>
        <mxCell id="9ybyBgt4PyTuUXgcpJM6-82" value="6" style="rounded=1;whiteSpace=wrap;html=1;arcSize=34;fontSize=15;fillColor=#e1d5e7;strokeColor=#9673a6;" vertex="1" parent="9ybyBgt4PyTuUXgcpJM6-81">
          <mxGeometry width="15" height="30" as="geometry" />
        </mxCell>
        <mxCell id="9ybyBgt4PyTuUXgcpJM6-83" value="" style="rounded=1;whiteSpace=wrap;html=1;arcSize=34;fontSize=15;fillColor=#f8cecc;strokeColor=#b85450;" vertex="1" parent="9ybyBgt4PyTuUXgcpJM6-81">
          <mxGeometry x="15" width="15" height="30" as="geometry" />
        </mxCell>
        <mxCell id="9ybyBgt4PyTuUXgcpJM6-84" value="" style="group" vertex="1" connectable="0" parent="1">
          <mxGeometry x="510" y="370" width="32" height="30" as="geometry" />
        </mxCell>
        <mxCell id="9ybyBgt4PyTuUXgcpJM6-85" value="7" style="rounded=1;whiteSpace=wrap;html=1;arcSize=34;fontSize=15;fillColor=#e1d5e7;strokeColor=#9673a6;" vertex="1" parent="9ybyBgt4PyTuUXgcpJM6-84">
          <mxGeometry width="15" height="30" as="geometry" />
        </mxCell>
        <mxCell id="9ybyBgt4PyTuUXgcpJM6-86" value="" style="rounded=1;whiteSpace=wrap;html=1;arcSize=34;fontSize=15;fillColor=#f8cecc;strokeColor=#b85450;" vertex="1" parent="9ybyBgt4PyTuUXgcpJM6-84">
          <mxGeometry x="15" width="15" height="30" as="geometry" />
        </mxCell>
        <mxCell id="9ybyBgt4PyTuUXgcpJM6-88" value="" style="shape=image;verticalLabelPosition=bottom;labelBackgroundColor=default;verticalAlign=top;aspect=fixed;imageAspect=0;image=data:image/jpeg,/9j/4AAQSkZJRgABAQAAAQABAAD/2wBDAAgGBgcGBQgHBwcJCQgKDBQNDAsLDBkSEw8UHRofHh0aHBwgJC4nICIsIxwcKDcpLDAxNDQ0Hyc5PTgyPC4zNDL/2wBDAQkJCQwLDBgNDRgyIRwhMjIyMjIyMjIyMjIyMjIyMjIyMjIyMjIyMjIyMjIyMjIyMjIyMjIyMjIyMjIyMjIyMjL/wAARCADIAMgDASIAAhEBAxEB/8QAHwAAAQUBAQEBAQEAAAAAAAAAAAECAwQFBgcICQoL/8QAtRAAAgEDAwIEAwUFBAQAAAF9AQIDAAQRBRIhMUEGE1FhByJxFDKBkaEII0KxwRVS0fAkM2JyggkKFhcYGRolJicoKSo0NTY3ODk6Q0RFRkdISUpTVFVWV1hZWmNkZWZnaGlqc3R1dnd4eXqDhIWGh4iJipKTlJWWl5iZmqKjpKWmp6ipqrKztLW2t7i5usLDxMXGx8jJytLT1NXW19jZ2uHi4+Tl5ufo6erx8vP09fb3+Pn6/8QAHwEAAwEBAQEBAQEBAQAAAAAAAAECAwQFBgcICQoL/8QAtREAAgECBAQDBAcFBAQAAQJ3AAECAxEEBSExBhJBUQdhcRMiMoEIFEKRobHBCSMzUvAVYnLRChYkNOEl8RcYGRomJygpKjU2Nzg5OkNERUZHSElKU1RVVldYWVpjZGVmZ2hpanN0dXZ3eHl6goOEhYaHiImKkpOUlZaXmJmaoqOkpaanqKmqsrO0tba3uLm6wsPExcbHyMnK0tPU1dbX2Nna4uPk5ebn6Onq8vP09fb3+Pn6/9oADAMBAAIRAxEAPwDxXGDSnijFLg10nLcaO/NKByaUCjFAXAelKKBgGlHNAgpcnPFLjj3oxQJsM8UvPajFHeiwNjs80tIBnmnCgkMUuKMc0uKYhMelFOowaLCbAClFAB7UuOaYXE5pwHYUY5pwHNMVxuPXNKBUgGeKUCiwmxgH4D1oAweOtPwO9GOeeaBCY460U8DkUUCMj2pe9JilFQdImO4pRQO9Ox3AFACAUuMYNGOadjmgTYY9KUDigAEUoFAmxuDTgKXHpQKYrhinAetAFOxx1oE3YQdKdjjNHenAUWJbExxzS4pcGjBzTsFxMHNLinAe3NKB60xXEx2p4HNAFPA9qS3FcTBpQMDp2pwGKXFMLjQOcUuO1KRyKdj1oEMAwaKkA5ooAwee1OFGMUuKg6LhjilxiloI5wKBNhilGaAKcBg8UCEA46UoApcc0oGKYBj0FAHrSgZoxQS2AHHFOxzQoqQDnpQJsbinAUoGSakVOM0xXGAUuDjNPC5NOCcYp9BEYU04KTTwvGKMY4oC40DNSAcigLzTsd8UWEJjFKAOp607GRRj2oATAoApwGT0pcegoAUCinKMjGOaKAOexmnYGaXGDTsVFja9hmKXGDS45FOAzTC40DvTsZoxS4oEAFLj6UYpcUCbAD1pQM9KB2qQAY96BNjAOakUelKATzT1FNIlsFXvipAPahRz1qQAUxDNoJp20DtT9uKdg4oAixRjFSY9aMcUNgMAp+DilxxTgMii9wGAUoBNPxijHpRfoA0ClABNPA96MUPQBFGDiinAZNFMDnqfjFJjk06oNRuM0uO1KBS4xQJsQDvS4pccUYosK4ntTgM9uaMClAoBsMHNPWkAwaeoGaYmxwHHrTwKRQMVIBTRIAfhUijimqKcBg0rsB4AIp30pFHSngU0AzHfFGPapccUhFFgGAe1KB7U7FKBRYBuM9qXHtTgOaXFFgGYp2OOlLilUdjQwEA9qKfgUUXA5zHNGDS9DS49qku4gp2M0YpyinYGwwcUuKeFBNO2YoSuJsix3oxxUuzIzRtxzQ1YQ0D3FOA9MUAflUgUZ6cUW6gwUDIwTUgB4pFAxTwOKdxABinigAHtTsGktQFA4p2OKQDgU8DjNO/QBwHFGKADS44oAbigDBp2OaXHI4oAbjilx707HtTtvtQBHjnrS45pcc80Y560NXAUDrRSjrRSsBzn4UuO1Lj1pQO9CRTYD1xTgueRSgDpT1H5U7CuKq08DIoAxUijnmgQwJjtS7afjntS4pARbBSgc0/FGKAEUYHenqM4oxTlGDQAoFPAxwaQCnUAAAz1p4HFNHWpBwM0wAAkd6UAgc07PpS44ouAmOelAHNPA704A0DsMAxS4yOlPxRj3oCxEV9aNvNSFaTBzQIYAc0U/B9aKB2OdAz3pwAA6UgHvyakAIosIQL3xT14PNKBTtuDk0AKBUgXjpTQKlA4ouAzHOcU4AY6UuKAKQDSPagCpMetG09aAGheelOA9qUCnY7UANA4p2DigDnGKcKAEUc80/tik9OKWjQBw608HBpgp68mgCRRkdKco9qEGTzUu0UxkRHtRjtipdnFN24oAZjjpSEe1SYpCvFAWI8e1FPxgUUwObUc1KME0xR7VIuM9KQhSDjinoMjBoABFOUYpdQFA9eKkApuBmnqKdgHBaMcdKeBxSkYx6UAR45p4T5c0Y9qcnJx2osAzGBRipWQjtxTMH0obATFGOaXBzS49qQAB6UuMUoBxRigAxzTlGCKAPanqOlAD14PFToKhUc1ZUdqBhjNIVyKeAaMe1MZEVIFN21Ptz2ppWgCLFFPx7UUxHMCnggcEVGOtPHXrSESZFPU5H41GCTx0NPUii2oEoHOakUcdaYvNSqBnFFwHKMCnADFABFJ3oYC4GaUDB4GaTNOBxzQmAo5GO1GwA07Pehjk5oYxmzPSk281KOlKVyM4oAjxRgZp+KUDmjoAzFOUU4DBpQOaQDlAzUynB61EB7VIBgZHSmmBNS01T0pxIoKHAA8npSlARxQvPFSKOKAKzqBRUsic0UBY48jFOxzTmUE0mKZAA04H0ppB7UozSYE6nGKmU5IqsDxUqmkBZBz3owD1piNxT+4NPQBcClHpQORxR9aAFyKXr0ptPXJxQMVRUvamL3p+MikAmBS4FGMds0AHB4NO4Bj2pcetAHPT9KeB/nFLUAxUiDIxUeD6GnrketBQ/GDxQBSAknGKcPXB/KmgJFwKkU5qDdTg+DQBKxz6UUzeDRQByo60MMGmgnNLkkfSmQtBCAOaBjsTSnBxSDikA8H86cp6U3NKpoYEyHHSpQcmq4OKlU8ikBODijHp0pgOe/WnAnFAxacp5AptANAEo60roXjdAxGVIBHbI60xWp4PfNAzjLj+0rSdoZrqYspwB5h5HYjnpQkt26q32mYKxwCZDjPp1rodZ05b2ATKQs0QJVieCOpB/mKxI7ceWyFiUYg4x0NcNVuD3OqDUlqtQzdoARcysScYWQkj9aIprkhc3M43fdJcgH269amjt0RgQxBByKc1sHjdM/Kz7hgcg98fjWHtJbXKtHsQkX65xdysT2EhOP1qA3N6FVhdzhW+6TIRn9auR23luGU5IORUMsWUZTjaXLAAdD6U1Ul1YcsexHHd3gJVpZ2I5z5p6fnSSX9ydjC4nRWBwfNPP60zaFcEckcgAZzTDGxQKUJAYkYU9+1Wm92wtHsWDfXZXi7nyBniQ/41H/atyoB+1z4PI/eH/Go/Jd+AhUj1U/4U02DhQSQQDnAU5/lTUu7Cy7Eh1a7GSLuc+3mH/Gim/YlIxkAgcjBH9KKfOu4Wj2N7B/ClxRRXonAGPWgDnmiigY4DNKBxzRRQwHjrTwcHrRRUgPB6VICM80UUAYuqXeo2U+Y5AYG+6SgOD6E1RGs6gSB5qAeoQUUVy1JNOyOuEU46jhq+odp1P8AwAU7+2dRUf65D7FBRRWXtJdy1CIPrOoSxMjSR7WBBxGM4P41UE9wmMSrwOPlooqHJyepSikHmTsd/m8kY+7QLm5T5fMGO3yiiiiwiwFmkUHzyQecACnMkwIJdT77RRRWbYWA2rkgh1BByDtFPMcoUDenHGdgz/OiihsBfKlwAHGB0+UUqpLknfyOmQMUUUkUkIYJuomH/fIooopkn//Z;" vertex="1" parent="1">
          <mxGeometry x="278" y="470" width="30" height="30" as="geometry" />
        </mxCell>
        <mxCell id="9ybyBgt4PyTuUXgcpJM6-89" value="" style="endArrow=block;html=1;rounded=0;endFill=1;entryX=0.5;entryY=1;entryDx=0;entryDy=0;exitX=0.5;exitY=0;exitDx=0;exitDy=0;" edge="1" parent="1" source="9ybyBgt4PyTuUXgcpJM6-88" target="9ybyBgt4PyTuUXgcpJM6-68">
          <mxGeometry width="50" height="50" relative="1" as="geometry">
            <mxPoint x="180" y="500" as="sourcePoint" />
            <mxPoint x="230" y="450" as="targetPoint" />
          </mxGeometry>
        </mxCell>
        <mxCell id="9ybyBgt4PyTuUXgcpJM6-90" value="" style="shape=image;verticalLabelPosition=bottom;labelBackgroundColor=default;verticalAlign=top;aspect=fixed;imageAspect=0;image=data:image/jpeg,/9j/4AAQSkZJRgABAQAAAQABAAD/2wBDAAgGBgcGBQgHBwcJCQgKDBQNDAsLDBkSEw8UHRofHh0aHBwgJC4nICIsIxwcKDcpLDAxNDQ0Hyc5PTgyPC4zNDL/2wBDAQkJCQwLDBgNDRgyIRwhMjIyMjIyMjIyMjIyMjIyMjIyMjIyMjIyMjIyMjIyMjIyMjIyMjIyMjIyMjIyMjIyMjL/wAARCADIAMgDASIAAhEBAxEB/8QAHwAAAQUBAQEBAQEAAAAAAAAAAAECAwQFBgcICQoL/8QAtRAAAgEDAwIEAwUFBAQAAAF9AQIDAAQRBRIhMUEGE1FhByJxFDKBkaEII0KxwRVS0fAkM2JyggkKFhcYGRolJicoKSo0NTY3ODk6Q0RFRkdISUpTVFVWV1hZWmNkZWZnaGlqc3R1dnd4eXqDhIWGh4iJipKTlJWWl5iZmqKjpKWmp6ipqrKztLW2t7i5usLDxMXGx8jJytLT1NXW19jZ2uHi4+Tl5ufo6erx8vP09fb3+Pn6/8QAHwEAAwEBAQEBAQEBAQAAAAAAAAECAwQFBgcICQoL/8QAtREAAgECBAQDBAcFBAQAAQJ3AAECAxEEBSExBhJBUQdhcRMiMoEIFEKRobHBCSMzUvAVYnLRChYkNOEl8RcYGRomJygpKjU2Nzg5OkNERUZHSElKU1RVVldYWVpjZGVmZ2hpanN0dXZ3eHl6goOEhYaHiImKkpOUlZaXmJmaoqOkpaanqKmqsrO0tba3uLm6wsPExcbHyMnK0tPU1dbX2Nna4uPk5ebn6Onq8vP09fb3+Pn6/9oADAMBAAIRAxEAPwDzoUuOM1EG5xnvUo967TyhQBS4BNGMHNAGSKBigEcUYIpy96WkwGjrzTqQijpSAkBGacCM1H3pw6UgHuizxNFIoZGGCD3rkb22W0vJIRu2qfl3dSO1dcpqC+sItQi2v8sgB2uOo+vqPaoqQ5ldGtOXK7M5IAAcUowTnOPwpbiGSymaKVSGB/Aj1HtURZicrke1cjTudS7otBUAB5J9u9NZECE85zUUUjKQCCQe3pUpnAGGQnioaYCLgAYI696RkBIJJ/KoSCCdoIHbmpYJHDbSNwIzg03sOxZh+UAAgj6VMCSP/rVWEpJIUHjimMz7iAWA9M1nYRdxkZxmjABAA4PXioIZ2QbWBOBkY9KeJ9xICnjsTQ0FiRjgcDIpoJwSQM57CoWdyCRkD3NLFctESpGcenelbsMkyA2G4/CimyXayoylTyMZoqkhWNUDk09TimZ59qfwRXrHnkgbPUmlGCetMxxxSjOc/pQCJRTsUwGng0mMMUuM0uB2pCDmkAgBzTs8UmD3opAPB9KepqMECnCgZU1awivLUs3yyRqSrjtjkg+ormI4wVPHoBXUak0wsZTEUBCkkMOoxzj0NcxH5iDJUEEg8H0rmr2udFFuw8oAeMZyTzSNCDkl0YegPP0oKMTyh6Y69RTwCTtI4HYH/wCtWFzXUUxAKgHJJ5NECAZJPIXOfqalVG3AFWIHQhh6VIsBGTtIGAMlhzUcyDUhVAWDhsDJBA6ZomT5gQOxP6VY8hSuSBjr1pkkTkkCMkAEA7hyDScgI4QoV8jsBn8KYiKJHAJBJGOO1WBGwViyFcnjLZ7e1QoJQxyFx65NUmArJgEdflOcnpzUbBUZgSACcZPsKlYSAHEZJIwTnioykjgkovXJBOaPQCsigScAYJ7HjpzRVuK2UjJQZz2OKKbkBrcU4Djio1PrzUgNeqcA8EinrjOaYDSg8daQ7Em3nIpcGkB96eD6ikAA4p2eKTHuKOaQDwAaNtC07HekMbtowQRUoGTQUyKAMK/1WNluLbYyuQVBJAGfWsYEgBcg4HY5rp9Q0uO8TfjbKoyGHU+x9RWAWdHMZQIynBUjkH3rkrcyZ1UrNaEIlYEAKSR0xViOOeRiyxOQRyaCVJAaMAnnKmrto0pcKrb1I6HqP8a5pSZpYFt5SASpH49KcLa4OcRkj2Iq8EZXZcEgHBHcVKiAHaM5xnHNZuTuOyM7yJumwj8qRkYHGOnFbD2N24x5Tg9QQOtQNpV6Tk20hIHXbS5mNQRlzpIFDBSRg9OaoiZgeVIx6it46ZegEmCTHuOlVZbCSLdLLA+0AdRxmnGfcORGX9rJGNpwPbinCdn4SNmJ4wBmrfmnAG2MD0wTTohE0gJTa3UMh/pWnMTYms9LvLiASpFhWJ6kAgj2JordshKkLM674zjL9M56Gio52PlMEdaeDz3qMdc1IDXtHnjgRTgaYKf26UgJFPFOzUYNOFAEgNOzxTAaUEUmBIGGMUoao846U4HnmkMk3ZPBAp4OBg4qHIpwbjmgCcYIrkL986lcODn5zjPtXU7uM56c1x7kPLI5IOWPWsaz0RrR3BZckggdO3erNtevapJIgDEKMBugPrVOVcDKr25xSxkGFxnBIAx+VcrR0IvW9/eXEshdwfMBJIGMcdvSurNk6WkMwYsSikk9QSOc+orlLJRuOB/CTXpFvGBBGuMgKAR+FYy3NErmVZXpixHISUz35Kn/AArYSVScHk9iBkGqF1pjAGSEYx2Hb/Ee1LYwXkFob54WW0MpiLHkK4AJA9sHPtUXK2NMxhgTnBPoKydZgCabcsDgbCOnrxWmtzjAIAOOPQ1n+IbhDoc4AwxKgDHuKI6sJbHEFUCBgcdRg/WlUAtnORkcimp8oAznjPSpY1HmDI6kdPxrocdDnTL9pe3qzLEJf3K87DyDx1NFLbDMh4xx/SiuZmqMmC8hmwAwDf3TwatA1zXHGQOv41ahvZ4cANvX0fk/ga9aNbuc0qC3RvA5FOzx1qhBqEEuFZjGx7N0P0NXQQec5zWqknsYNNbkoPr09afniogeop+fSqAkB4peM0wEYGacDmpEOGKOKQUtIY4HjilFNGeKcKAGyNshdvRSf0rkkJPHPIyfzrp759ljOf8AYI/PiuVVjn8OK5625tRW5KxIBIqXaPILEc5Ht1qqXO0nPBq2pzAR3LDr+Nc8jcu6eoaQcYGQPzIr0qJMYHYcV55pKF7lFxwXXP516XCgJxWL3NID0TI7Y7VDdWkj2rpE7eWW3tGDwWxjdjpnHFJd3ZtpkiUAswJIPQAdT/KrtjcpdxvtwGXqM5/KoT1LeqOWlumsAYpRmHPDHque/wBP5VR1653aWADkmRSMHqOea6nWdKW6t5CoAcAnnofWvOLiS5Ba2kYmNGyFI6H2PpVRj7xnJ6FYEhRkgZHap4slvUgj2PQ0zYCBnjA4NW4YwJRk8FsH/vk1uzEt2nLgAHkZBx0GKKsQRgTEHkBR0+gorBrU0jscHjnIzS4AGcmnAjuDml6+ldgrjeq+o9KlhuZrc/u3IH908imYIHBH5UzJyc8+lCutgNm31WM4WZfLP94cg/1FaKOrqGVgynoQcg1yhOfY00HDZz17VqqrRm6CeqOy7UoIAxkZrkQfQA/iaeCM8gZo9t5E+wOtyMdR+dKCD3Ga5EAE4AH5mpBGPQfmaTreQex8zqsgHkgfU0oPGe3auV2D+6Dj1zTRdzRDbDO8eDnaDxn6Gkq92HsOzN/VmI06QdyQMfU1zoQggY5PGKe2oXdwBFPJuUHP3QDkdORSqdzgAZJOOtTUd2aRg4KxGUYEnaQM4NW4x+4B7lhj9aiGC20gZ3AH860JUQ20LKByRyPoT/WsZDNTQYy99ACAcyL+OK9IgjwASK4PwzDu1C2xz8xJ/AV6JHHheKza1NIbHLa7OYbu7IbbIIlCEdRkE8U/Qp5BqcLOAonTkA9TjuPXgGpPEdozahDIApVlBbdwCFzkE9uCPyqpoJeW9sAyEMMsT9STn6YFZWsyrnWXgH2WYnGAjZz9DXnXiFES2tCkKoxLZcc7gAMZNej6iNum3JBP+qOPyry3xBPI7WsBbKxqxAPbJx/St4r3iJsz1JORxwBx61djAJPGCWJH4Cs5VYjJAByAcdKu225XBB53N15HQVo0ZG7aLm5II7gfyoqe0XN0OnLjgfUUVlY0jsecAflS7QR6fSmAnOTTwfwNb3ENII9xSHBIyMU/PrzSZXnkD2oTAawBPGOaZgk9ce1PIXHUcd6cqAgEc/hTHewwISOpFOCHaTkjmpQmQcj9KkEYI5GfwpCuyusRJzkjmn+WxxliefWrAjAGcD6EUwEEjpx7UWE2NcOkRbe2c8c5qo8hcgMB7kDmrM7gRgDHXPAqoeSfehIuBLEqljyGx061ZBUYIUA+2agtE3Fjjvge9XPKYAZABA55pPcUtyNAC6kDq/XPWtR49lrbjHUk/wDjo/xqhChwh64JP6VrTDEVoADnByPwWs5EnSeE4QdSi46Kx/Su+RRyOMjr7VxnhGPOoZ6YiPP4itya6MesSIrsjZwCBkEADgjvQthxdkaF9ZJdwBWwCpypIzg9Dn2IJBqrpmlJa3BlIUbRtUDoB/npVpdQiJEc5WJ2wFJOFY+gJ6H2NWY1wwqWtTRFbWABpdxjuuPzIFeWapEr3y7ieFAAHuSa9U1zI0iYg4Jxj8xXl14GkvDkcqoyR9M1cPiM6hD9kjUHk5DAcGrcVoAqbSdxLFTn3HWmRoQRwTlhVu3wSgbj7xH5itZLQxW5qWER+1qpHSRQSB15FFXNMizfR98yj+dFYm8djzmHTlaRS5DJkbgDg49q1k0XRpBxLOp9GYD+YqtHNBKcq6sDx1p0m5FJViVA78j9a55SmWrIfceGbYDMNyxB6bsVl3WgXMEbygo6KCxIYA4A9KsfapYyGVyp9Vbj8qZcatcvayRs5YMNpJGDg1UfaLqDsY6pxxxT4oJJ5QkQG7GckgD9aFGBjgVoaOLIzSi9DhSAFZHCkHPPXg8V0ydlchblSSG6h4dCvPcYB/HpUDTzITkAA+grrDYxSRlLLV4SG4Ec5Cn8CcjP5VzWqWFxps4inDKWGR8wIIzjIIODUQld2Y7FYXcoGOMfjVm0mMxIZQSO+TjH0qgqlmAAJJOAPWtO1tZLZyH25ZQRg5GK0aQSskNuBGAQQwH1zj86zmK7jtJI+laN5yuen+TWaBzTQol2zU+WSB1J/CrjEEYAJOMkkVHYoBCrE4JBP61aIHTH1oZnJ6kKKABx2J447Vq3GDJbqM8A/wA8f0qgEAbA4OCPzq6+ftEYx0U/zNRIEdx4PT/SJmx0iA/M1YLGTX52DI0YdlAB+YEdeO4zUHhNvLaZj3VR/Otn+xyskk0BVy7FsEYIzyR79TSLS0Of12Z1nt4ht5m3qWGedpx+AOetWvD2rzSxx5bzFKgspGAp74z/AC6VDrdu51GxbAXyo5SQ3GSBwD9c4rG0+9eKxhgWNvOmDgBeNqjPJ78ZzUtagnY7zVbiK50V3QkruCnIwQQeQa80uQDqcpJIG4AD8BXbwpjwfCpd3DOSWc5Y4B6n14/SuNuiBqU4I6SYOPwrWmtSamwigeaAGONx4z9atwhS0YBBBHP/AH0KrROCygDGSeoFXLNFMsYHUgcdP4quWxktzodHj3anGAOsw4/E0VY0NM6nF3/en+tFZHQtjwsFkORkfQ1ctnZxgs5HcbuDVEdavWg6cVU9i2Wp/JjQNtYE8DZx+lVpJVeMKN2cjJI60t+5EcYBIJJ6fSq0RZmwzE49TUxirXJexNjAzT4Rkk5AoxhTzUTymNOBySfyFW1dWIW5pxIeoYDn0FUNSJNyAWLYUdumeaja9lKlV2qD6DkfQ1ExLHcxJJHU0lTUXcpX6j7RFe7jVhkEnP5GtViDKQCSFAA4xWdp4JvVxjgE8/StFcuXYnAJ/pUv4glsU7okryeorPFaN6MA+3FZ2K0COxuWiZtI8n+EcenNTjO4HvkUy2iUQqCCTgDr7U7aDjAIyfWouzNkjDfOABjJA/WrLIftqAD/AJZrn9apwfJdIQD94cHpxzWkq51DBwSEUf8AjoP9alsVjs/DcRMErAH7wA/Af/XrpodyDOcgVl+E4h/Zrue8p/QCtq4jAyVJDDPIoNY7DJkguo9s8SOMY+YAkfjXPXfhzF891aurEoyhGAAAIxgY6jIB9av2N1NdCYOq5Q4BUEZq0rMCMjn9aVx2RRlt3tPDFpbuAJF3bhjGCcnp+NcHsWTVJ2I4Mrd/evRtZkDWMQHcnj8hXnIObiYgHmRj+prSG5nPsTRwHK8cAHkdqvWcQW4iwc52jH41BbtkBSM5ByR0HFaFtgXsGQMfKfyzVvYzSN3w+udShPX5yf0NFT+GQDfxnHZj+lFZ2N0tD5+rQtE4Byc+wrPHUfWr9u2ABnpTnsUxmoDbIig5wCfpz/8AWqGEdTnvT71t9wMdlApIQQo4604rQUtifPy1Xn6IM+pqdugz+FVpicgegqiY7kdSHgVHipO3NBTLGn8XJPoprTRcxenWsi2x5rfTA/Ot6NAIFGM9Mn8aze5MjKvyMEA/5zVBRlgM4yQKt3xAJ9SBVWEZlQHuw/nV9AWx0YAXgDPPr6UxnAK5UjjPWnMQQMYAweDTWYY2sv3VrK4rC2uGuF4PAJz24BrVhGdTuD1AfA+gAFZWn5e524wAp6e5A/rWvbfNqFyR/wA9GH5Ej+lDEz0jwugXREbOCXY49s1oTElJCQeFJ/SqeiL5WhW47lSf1NTzN/o8xJ/5Zk5/Ch7GiKegRF/MOTzIB+lautQKmlsw4YsACOtVPC8e+AsDwZDz9AK0fEWF06Nf70oH6Gi3uAY2voLezsxnBaMH6kla89t4mLsxYEliTge9eieMQyLbAcbIgeuBwf8A61eeW7ZQE96qOlzOe5ciAVCDxkHp+FXbKLfds2eMgjnpgGqCuwBAXPH9a0NOJNww6Ebjj6LTvoSjqfCi5vUA/uN/IUVJ4RQG89MRE/qKKErmy2PnUdanjfA5qAdTTgT0ptXG9wmbdIcVLEQFye1QZySRUgyMetUiZE7OCOozUEhBf8BSk5I/WmNjccCgUUHpSk8Ui8nFKRwc0FMmtBmTHckCuhcBYh0AwDjP41z9gC93Go4y39DXRXCFYDnGQD/Ks5bkSOdvj+8I69B+lJpyGS/hX1YHj25pt4czNz3NT6Lj+04yewJ/SqeiLS0OmaIpEck42859zVeZNjybiD8oHWrlwQVABIzgdPpVS4ZHMxzxkD05rOO5my1oluJr0kgEDbkeoLj/AAqXTQSJJDjJLE/iTR4cKGaYlgMBck9sBj/SpdLUG0zj72P1NEiT03Tk2aRaAjrGCfx5qW7CpplwxA4QgfjxVmCMJY26hc4jUfoKg1lTFoNwwABO0fmRVS2NiTwpCBpaEjBLMQfxqXxMCIrNByWmA/Sp/DKbNGtjjqpP5k1F4hw91pkY/imJ/lQ/gAw/G8u2YLnAWEDn/gRrz63ZkjBwGJ68dK7fx5KRfTg8KIgMn/dJ/mRXDROpUDI4BJx7Ur7kS3LqMCMgAEmrtk4FxIQOiyHI+mP61l71GDkAHBOeK0LEHdIwIPyMcD6iq6E9TuPBy5uHJPSL+ZFFTeC1zJMf+maj/wAeP+FFVBaGq2PmmnjimU7igb3Ezzz61IM9hxUY6ipQR/WmhSEzhgMYz60wkkk+9OyAwPao85JoBIcCc9KcSACKaOpNKScUA1qXtGQPqcIJAAycn6V0N+VWEjIORjg+4FYGhgG+yRyEOPrxWnqb4HoeOPx/+tWMvjJkc9ctulJ9z/OruhDOoE4zhD+pFZz8nOetXtIlENwzE4BAGfxrWWxf2TppnBKgMBhun0rMuGBEm0ZG/wBc8VLJMp2kcAknj/PvWfPL8vykgljmsoozN7QyUsr2Xn7rgD6Rn/4qtHTAfs8YHOWUYrH0qdo9IugeSVfGfUlB/jW3pBDvaR9jKoxn3okT1PYIoxsRcHCqB+QAqh4nITQJOCMuo/X/AOtWpDgzEHkDp+dY/jFimiovZplHPsCauXwmpsaAmzRrQEjmIH86qawM65pC9f3jH9RWppkYXS7UAdIl/kKydSJbxZpiH+FGb9T/AIUNe6gOS8fSgT3wzkhQAPwUf1riIlyoI9DXT+PpSLu/Oc4fAH0Kj+lcjbzDyxwOgqDOW5aIwQAM8jrWnppDNMQMERsCM9SSOaxop3eUfKCAwGDW5pZV4bhiAD5YPHqXAqrkrc9D8Fg4uD1wqj9TRUvgdMwXLH1QfoaKuLsjdHzBkkkk85pxPFFFBTWoi9akyMUUU0RIYSen5UAZH/1qKKBocBjv3prdxRRQBpaO4jndj/dAH51LqNwJT8p44/kf8aKKi3vEPcx3+8farFrkByO5AooqypfCW3uCFVTnI4yajBD4GRnPNFFTYg142VNGkIOS23nPq5P9BW7oL/6bY/8AXVT+ooorOW5PY9dsboSTPk9CKzvHEo/s61UEfNMT9cL/APXooq3rE1OmN5Bp2kNdXL+Xb28AkkbBOFC5JwOTwKxnuY7rxlp8sR3RtaiRTgjIIJBwfYiiiib0A8z8e3AfULxQeTO2CP8Ae/8ArVykM2AB9BRRUrYxluaNvKmQQRndk/gK2NPlAs5AOpCgn/gWf6UUU7DR6l4FONPmOeSyj9P/AK9FFFUtkbI//9k=;" vertex="1" parent="1">
          <mxGeometry x="318" y="470" width="30" height="30" as="geometry" />
        </mxCell>
        <mxCell id="9ybyBgt4PyTuUXgcpJM6-91" value="" style="endArrow=block;html=1;rounded=0;endFill=1;entryX=0.5;entryY=1;entryDx=0;entryDy=0;exitX=0.5;exitY=0;exitDx=0;exitDy=0;" edge="1" parent="1" source="9ybyBgt4PyTuUXgcpJM6-90" target="9ybyBgt4PyTuUXgcpJM6-71">
          <mxGeometry width="50" height="50" relative="1" as="geometry">
            <mxPoint x="303" y="500" as="sourcePoint" />
            <mxPoint x="303" y="410" as="targetPoint" />
          </mxGeometry>
        </mxCell>
        <mxCell id="9ybyBgt4PyTuUXgcpJM6-92" value="" style="shape=image;verticalLabelPosition=bottom;labelBackgroundColor=default;verticalAlign=top;aspect=fixed;imageAspect=0;image=data:image/jpeg,/9j/4AAQSkZJRgABAQAAAQABAAD/2wBDAAgGBgcGBQgHBwcJCQgKDBQNDAsLDBkSEw8UHRofHh0aHBwgJC4nICIsIxwcKDcpLDAxNDQ0Hyc5PTgyPC4zNDL/2wBDAQkJCQwLDBgNDRgyIRwhMjIyMjIyMjIyMjIyMjIyMjIyMjIyMjIyMjIyMjIyMjIyMjIyMjIyMjIyMjIyMjIyMjL/wAARCADIAMgDASIAAhEBAxEB/8QAHwAAAQUBAQEBAQEAAAAAAAAAAAECAwQFBgcICQoL/8QAtRAAAgEDAwIEAwUFBAQAAAF9AQIDAAQRBRIhMUEGE1FhByJxFDKBkaEII0KxwRVS0fAkM2JyggkKFhcYGRolJicoKSo0NTY3ODk6Q0RFRkdISUpTVFVWV1hZWmNkZWZnaGlqc3R1dnd4eXqDhIWGh4iJipKTlJWWl5iZmqKjpKWmp6ipqrKztLW2t7i5usLDxMXGx8jJytLT1NXW19jZ2uHi4+Tl5ufo6erx8vP09fb3+Pn6/8QAHwEAAwEBAQEBAQEBAQAAAAAAAAECAwQFBgcICQoL/8QAtREAAgECBAQDBAcFBAQAAQJ3AAECAxEEBSExBhJBUQdhcRMiMoEIFEKRobHBCSMzUvAVYnLRChYkNOEl8RcYGRomJygpKjU2Nzg5OkNERUZHSElKU1RVVldYWVpjZGVmZ2hpanN0dXZ3eHl6goOEhYaHiImKkpOUlZaXmJmaoqOkpaanqKmqsrO0tba3uLm6wsPExcbHyMnK0tPU1dbX2Nna4uPk5ebn6Onq8vP09fb3+Pn6/9oADAMBAAIRAxEAPwDwmjnoanmbznDbbePAAxGuAfcj1qPZxzIv4ZoJuhvTpS5wKdsTODMv4KaURof+WuR7KaBNoZnnNSs8HkALFIJM8uZAQfwx/Wk8pcA+YR/wE09YoTnMxHtsz/WmDkkQZ96OpwDyOtWfKth1mf8ABOv61NNNHOkayTTOIl2oAijaPTjr+NCRPMVY3KDIOD69Kazsepz+NXVmthZtb/ZwxZgwlKDzBjsDnAHtioAluP8AlnKT/vAf0pJCutyqck5xT0laNcLkA9TipwIP+eLk+74/pUzyWz28ca2KpIpJaXzmJYdgQeBj2GaB8yKLOzMSxJJ7mpLVTLdRRLkF2Cgg9CTgfritGOTTEiUPpjySAfMTdEAn2AHA/GpYrm2jmSSHR7fKsGXLyMQQcjuBQ2hOSZ0WmLNfaZJpWpWMtugwVm+zkFGGcEEdSCTweuTWdpI1Gy1S2knSZLeKUEu6ADAPBPpnAq7B4r1khjFpIZnbJPlFgT9WJqxFrmvysTNpk5Udo4I1/mKl2ZCv0Oy0vXQzMyzFlJHKrkfmBWf4p1DWdYSKGysJykUhYOAATwB7cVlQ6hqi5K6PqIZupEkYzUrXGuykFNOv1Ged13GP5VLXQqzsJea74q/4R3WI9aeQWz2bRouxQAxIAHAz0JFVbrxpqDa7CNEmiEttZJGXnZQpKqMgZIGcnGc1oNaapdLsuNNeaMj5o571CrfUBc8devastfATSPk2caAnJzdk459lprzHqc9rOpX11dSRXxRZWbzZDCQ6sx5yCCRjnpms0EA9WwOmAa9IsPAGnK/+mYKbSAI5GyD26gCtu38G+GYAD9haV+QTJISMH2FUkraEuDbPIY5nQERkse2Qa77wZGb/AEt4/KkmLymC6EeMopGUcZHBBB78ke9dbB4Y8Nx426LbEju+5s/mcVr2Frp9grCysba2DY3CKHG7Hr60WvuNQZR8Nm+0i1mW5EyhpMopwSwAA4AzjPvRXSxzu4ALNgdhkfyoo5UWtD5PA5pdvfJ/Kulj0O33fMjMPd8CrsOiWZ5W2DH1JJFWomTrI4/HHJ6e9OCk44J+nNd3BpNuDlbWEEdyBgVcSyUMCEi+oUDFNRQvaPojz5bSdiMQSHPTCGrMek30rbUtXyfUAY/OvQo4EBOCM9zxgVOiInCkHPU8Zoshc8mcBH4c1KU/6lVx1JcCrC+Fb4qWaSEAHsxP9K71VhwFAXkZOCKkGwYUYAPOKHYLtnFJ4OlKoWu1GTyFjJwPqTVpPB0AcK1xMykdQAK65tu0DfjB6A052VVBLcj1NK4W8zmY/B1hghlmL9iXwCPwq7B4X06NuLRGwOQ5J59ua2i6lQxIIA45xT/lcAqwBHtUjSKEWiWEYBS3hGOh8sZHt71bWzgAyEQAf3VA/MVYRgQMkgjgHHWnAg8FSD7A4NBSSI44IiTgAgjk9c1NHAgIwoHvjNClQfun3IU4pWubeIZeVFBGeWApFKyJwEHGAD7ipF2nkEH6DpWY+u6bFwbkOfRASf0qpJ4ss1BEUMrHsSMZ/WldIfMkdIAMA5A9RTgVBJOfriuPbxXcucQwog9WBJFZ91reoTEg3bBT2QY/lS50JzXQ757mGEEyyKgHdjgVRm8S6VbHDXSufRAWP6cV53M5kYl3Zz3LZNQNcxR8M4BHYUc/YTmzvpvG9spItrR3PYu2B+nNVj4wv5eI1hhHsMn8zXCnU0XhELH16UDUZn4BCj0B5/OlzMXMzuTrlxKuZ7uTHcB8DH0FFcjBudQeSx65ORiip5mHMy8sTA7yrY9D/wDXNTiE5B2ZHcEjP1HNVxGVO0shKngsxJI7ZA/KrCqAw3OuCflwMHp05roMbEoiBGTs59SMVKqDaCCpA5GM8im7gFJC5I7DBJp6zEgMMAHoSQQeaY0SALtwcNjqApBp4iXBJjBz6KAf5VA95CFO+VV9eQKqS+IbCA7WnUgDsQfwpD6mssaggrGAT2wATUw4A4xk9c1ykvjG1jJEMRcAYBAIOe+aoS+NbtifKiUDPG49PypXHZneAgZyAD6k0M6RjcxRQT0PNeaTeJtTnBX7QYx2CDFUJb26nJMtxI2RySxxRcdmeoSatYwDMlzGo9+p/Kqc3i7SouFlaTHZAea82GTyST6c05TkhTjHvSuPU7W48cKTiC1J93bA/KqUnjHUXwFEMWeOATj865pcknA9uTkU9eFAOSR1CnH86l3FdmpJrV/c5Mt3JgdhwP0qJXcncX3EnqSTn+dUlZSWIUj14walEgTBAJPY5yf0qWDNCJ2II5I7EDpUySoDycZ5IDc/hWajyuSFjJB79T+VSrFcOcb/ACyOokJUY9sjBqXYRpiaBVwXYOTwuMj8OwqF7kbioIGPUgZ/KqUts0S7vtIYHg+WCcH3IFQOGBB4PHXuaW4yW5kn6lto926/lVEsx5yCfXOBTyw5BUA+5J/nTOCOTn3B4/TNNIByZ6nB9gTVuF1yACSfQDj86qIATgkAAdAc1ahZVbaAcY6hRnP49aGgNeCaLyyZ4Wdu22UjjHoKKqx+SoyN5I9f8BmikBbl120iIcSZxkEDqR+frVWfxRCVKpGxGeucH6g1yeMnkk0uCRzn866LlezS3N6XxPcvny0C9gScmqEur3shJ84qCegNUeB6fhS4J5/lRcair6Dmnkc5Z3Y+pNIc4B4FIAc57U4Akc4HsRSDYOceppRknsPb0oGRgcnnt2p2AMk9fU07CEw2evHtQBn+LgfrRkAkEk+4xRuA4U7aQDwDg5GPqcUfdHzFTn0qMuSccn3NJyDnOBQFiUSAABWI9qXflgQucDqTUOctgjPv1pwU5yTgfSkFiVXJbBKsO4qSJuoIZQPTpUAZQ2D19uaepbJIyQexFS0JlyGdkAaPBb+8GwcfUGpmmYlXeb6qxyP0qmJeQBGq+4UDP4jNPBlGQCCD0yM4/lUtCLZkUjIU7T1KE4/Imo3eMDDNkE4wwHB/CogW3FSoBPfAwfpil2SgEMwYH1GT/SkkJjJHJO1QQOxBz/Om5UEEkA9j0odgh2liB2wBj9OaaEJOGYsM8cEn/CqS0KJQQQdwP4gEfrT4mCvhccdgf6cioCVjOCpA9eOKsRxBwCzqwIyAVJP58CpYuhaSUgkkgY6F1xn8RRTNuxd4Q4PHygZH1zRSEc/kc0dT+FLgAnmj1yDz6VuahjijBz1zRkY4GaCc+lOwAp556U7IAGMnn1qMYzg804HjgGgGh+RnHakJIBAB/Om9MnNHQcZxQIcMkZNJjGT6+9AAznOPxoJB4GPfFACqTjIBoA65OKQ4PBz+BpeAOcY9cUDFUjBGMGlAyc5OfQf/AF6QEDoCf0oUkE8jn15pE3H5AYA5weM54/SpFA3bhkH0AyD+dMBGeo47AUuxiAQWA9zx+NJoXqS+aUAJBxjnB6U4ssmCGIbHBAPSmJt4BKggc4FPDqVJDsR0yoAxUtA12JSzhCQGJA46DNRFllXlgGHYk5H+NCBgeRkdix5p28KQC6gnoAM0rCtYbjaANxb3CgZ/GmF1BKsrKOxLHB/KldSeRKxI7EDFChgMsq5z/nrTSGh0eEb5XyeoAXJ/OrAkbqyyMD1wcYquZV4XeMnpgYNPidw4OzzFzj5+Mfj/APWpNBZliGOORiwmRSMkhsscfQ8iipEdsFlVEBHGOSP5UUrEnP59KM0g5pcetbHQ0LnnFB5pD0yOtHWgTA+uM4p2QfY0gyD0FKTgj0oE0L19aQkjsMd+aXHPUkUYOegoEAJx1oGCcnk+ppCSPQ/SjqOTQFhwIzyACPWlyTkZyKaB04oJYEEnAPGR2oF1HAY6A/nQGBOCAD70AjPUn0pRj+7n60rBZdRx28EnOOmOKkyAMhWYj8KjywUFQDz0HJpysGHDnPoDik0K3UckhYEALx1z1pAF3btxyeoU4pR5YYnbuPXOCc/iaDIUxhNoPcngfXFKwDmU7SfLYj05/r3pqL5gwEQevPI/AVICxAO8YPQAZ/nUbBC24klu2Tn+VIQ7bsOGkJB7A9KRnjXkgsexIOPzpvm4GVjZiOpwBShjKMhlA7g8mmNJ7sU5cDEa8985/lUsasn3pSoI6HHH581GiKhLFiT35wD+VKGGSyqo7DAyaTQiZ3hABYuw7nkj/AUVGkxclVOc8HPb8KKQWM3Oe9LSHAOKWtTZ7gOlGecHg+tFGcUCSYoOe1L+FIvOTS4NArsCSDg8CjnPWlwMc8/jQCOcDNOwmIBg9zSkkA4APtRk56D8aAMnk8+1Fg2AEEA559KXjGOtGFGTxz1zTsgjCjINFhNiE4GQpNC7iM5GPajB5HH86UIAcknnqOlIWlh2wDliT9TTgRggKOvYZNNyo54FL5gJwik+wHFJiAOSxUggkcFuBTxuIwW57gCmOjOPmCqOwJyc/ShUIAUuxA6AGjQHsSCNBknHXnJxk/SmtIqYOMc9gRmlO1cZwM96a0qMMfePoBmkCuO3MeQB9Sc0woGbcTkjoRxTdrK2VG0HqCcj8BQQSfmYn2HAoG0S5VQNxAOPSk+0LkDBY5zxxn86jAAPQE+/P604uhOGKnPbGTSsCtclCSzAHaiAdGPJH0oqBWcECINgdQ3b6UUh2ZX6n0pfzpOaOK0NHcXAo60oIPTJ+lFHQQmOc5p2B3JJ96aSQRTsDPPNNCfcMjtijBzkAe+aUEAdAKAeOAT+lAri7SRknH4UbRjk5+ppu4ggHAz0NLg46k+uKAsxflHUimqCpwASKdwOQoFBPOSeewoFrsLljnpz680bM8kk/pSbyOQP6U0MWyc49hSCzHsgPQYI6GhJCG5OCPTvTCPUk59acFJ6YFA1tZjg5zwOvcmlJc4BbAz0HFNBwcEk+woJJPCnjuaQvQCin146GjftwHAwT1Helw2BkkcdhikIQHng/maA9Q3jgAk89hQC5PYD8zSF8DhWI9+KFJb+ID2FILDtgGCzMR78ClyoHAB+g/rSYAGepB7nNOBAPK59B2obE2OBZjzgD1PJopm4A5OBnjGaKVgsQYz1NAA9KDnmkHNWatDsgH0oJHvScUEj8aBBgkc8U7GAM/hTQcdOacxOAeKaBpigDrS5A6kUwHI5JpcAGi4rW3BsMMAfjRlsdRR0PFGR070AHXgnI9KUY9KTnqBijBJ5J57UmApIB6imEktkDn1pwAHUfnQTn7oJoEtAyxHGB29aRQCxVzg+vakJYHpinBQcE8+5oH0HFlUDbyfalDsecYpuADxjA7+lLyDntSJ9BcEjJYkeg4pQApxgetNDgd8mmlzkjGM+tAWY8kD3prBQchsN7d6APUk9uBTgABgY60AmkIGfGSoHv0p+CeGJ5HYYFBLY5OB60nA5JwMUBuTKqgAgjB6kDJoqAy5JCgsfWikLkfcizzjrSAfhS0ZqjXYMUACjI9aCc4wKBaijFLkY5pvJ6k0YAoABkE46U4ZI6im5HWjJPQUIHcdgA0EgD0pMeppMY6AU9QSQu4nGBQckgZ/Kjilz24pB6CYFKDjp074pAfzpMnOBxQK3ccSCMHpTQSp+XkUuPUml4zgYxQGmw7ceDgDjvSAZznn9KQc+9Hv29KBW7DsDJwQKG5Hzc4HHqKYWAOQefSgbm56e5pBZ9QDFRgjI7GlEgA4BJ+lAUEgsSacMA4AxzQF0GXPX5R69aFQZ5OT6mlzk8A+1A7jHOaBXdgaMFsqMH9KKXOOpA9cGigLsgz60cfWij60zUXj6UhPORS4ApO9AtBQT9KMZ6mkBpTQAEDFAIxQaTH4UB0sOJzikzij8c0d80AkrAM4o68UZoyBQGogOOOlOB96acYz0oBPpmgGr6j89jSZA9KQgnrRgY5xRcVkBJPQfjSc55Jp44HFIRkD3pAnYQAD8adnsOlM6HmnEjvQDVxQT2wMUpJxxgn2pmRyACaOT1OAeuKBW7km8A54PHQU3eWOAMU3AB/pQw5z0NAJIXAPXOc9aKQEjgjrRQOwnrRRSZouVYXigHNJRTCwtIKXNFAbBS5pDwKTNArC0d6TJpQKB2DI9zRgmjpRSuAuOOaOARSEnilB4zQL1A9aUcUmc0mfTmgLXHE8n3pCcACk788Uox2596AsgyTxjiggfWkzg0ueKA2D09qXNNyPxo5oBod1GaTJpMjNJye5oBIU4OOaKABj3ooGJ1paKKBiUtFFAMQ9aM0UUAGKMUUUCA0tFFAdAo7UUUAJmiiigdgPNKDxRRQAmaMnOaKKASA9KWiigQmaCTkdaKKBhxS0UUCYuO44ooooA/9k=;" vertex="1" parent="1">
          <mxGeometry x="358" y="470" width="30" height="30" as="geometry" />
        </mxCell>
        <mxCell id="9ybyBgt4PyTuUXgcpJM6-93" value="" style="endArrow=block;html=1;rounded=0;endFill=1;entryX=0.5;entryY=1;entryDx=0;entryDy=0;exitX=0.5;exitY=0;exitDx=0;exitDy=0;" edge="1" parent="1" source="9ybyBgt4PyTuUXgcpJM6-92" target="9ybyBgt4PyTuUXgcpJM6-74">
          <mxGeometry width="50" height="50" relative="1" as="geometry">
            <mxPoint x="343" y="500" as="sourcePoint" />
            <mxPoint x="343" y="410" as="targetPoint" />
          </mxGeometry>
        </mxCell>
        <mxCell id="9ybyBgt4PyTuUXgcpJM6-94" value="" style="shape=image;verticalLabelPosition=bottom;labelBackgroundColor=default;verticalAlign=top;aspect=fixed;imageAspect=0;image=data:image/jpeg,/9j/4AAQSkZJRgABAQAAAQABAAD/2wBDAAgGBgcGBQgHBwcJCQgKDBQNDAsLDBkSEw8UHRofHh0aHBwgJC4nICIsIxwcKDcpLDAxNDQ0Hyc5PTgyPC4zNDL/2wBDAQkJCQwLDBgNDRgyIRwhMjIyMjIyMjIyMjIyMjIyMjIyMjIyMjIyMjIyMjIyMjIyMjIyMjIyMjIyMjIyMjIyMjL/wAARCADIAMgDASIAAhEBAxEB/8QAHwAAAQUBAQEBAQEAAAAAAAAAAAECAwQFBgcICQoL/8QAtRAAAgEDAwIEAwUFBAQAAAF9AQIDAAQRBRIhMUEGE1FhByJxFDKBkaEII0KxwRVS0fAkM2JyggkKFhcYGRolJicoKSo0NTY3ODk6Q0RFRkdISUpTVFVWV1hZWmNkZWZnaGlqc3R1dnd4eXqDhIWGh4iJipKTlJWWl5iZmqKjpKWmp6ipqrKztLW2t7i5usLDxMXGx8jJytLT1NXW19jZ2uHi4+Tl5ufo6erx8vP09fb3+Pn6/8QAHwEAAwEBAQEBAQEBAQAAAAAAAAECAwQFBgcICQoL/8QAtREAAgECBAQDBAcFBAQAAQJ3AAECAxEEBSExBhJBUQdhcRMiMoEIFEKRobHBCSMzUvAVYnLRChYkNOEl8RcYGRomJygpKjU2Nzg5OkNERUZHSElKU1RVVldYWVpjZGVmZ2hpanN0dXZ3eHl6goOEhYaHiImKkpOUlZaXmJmaoqOkpaanqKmqsrO0tba3uLm6wsPExcbHyMnK0tPU1dbX2Nna4uPk5ebn6Onq8vP09fb3+Pn6/9oADAMBAAIRAxEAPwDy5Rke9PUUKBgVIBXYeWNAp2OKcBzSkUAMwcZFGB2p+McUbe9ADMUoFOxRigBtJ2p+OaCCKAGY+tGBTwMc0Y70AMwPSkx1qTFIRzQAzFLg5FO20oHNAABxQRzTwMUY4oAixzgUuDnin4oxzQAzB707ApcelGDQADngUhFPxgYpMUAMxRT8fjRQBXAqUDpSACpAOMUAIAOadilAwAKcBmgCPb3pcGn4yaXHQ0ARYoxgVJj603Hr+FADMcUEGn4FJgUANo96XFOFADSPQUYp2M0YFADMGlUDrRjmngcUAJ+FLinADFGBQAwjg0gHFPOO1NxzQAYoxz0oxTsYPNACYoxinYyPajFADOtFPxRQBDtp4HFGOaeBjg0AJg5pQDTgOaMUAGPanYyKUDNKBQBGQaTHrUpBzxSEc9KAIsc0hX1qbb1pCPagCLBzRg0/HtRt4oAZjFLtp2KMYNADMU4A0uBmnAY7UANpCO9PwM0ECgCLHtSY96kxmkIxQA0DNKPejHNLj1oAUDjpRilpcGgBuCKKdiigBgGelKORRjHXNOA4oAMc0oGaPel78c0wHACl20KMingdqQDcUhGKkxQRzzQBHt4pNtSY44ox1oAh24NLtGKeVoI70ARkc0mOeakIJppBoATA60uKMe9OA4xQ0AzFIRUmKMd6AIsYBppA71KeM0wigBmO1Lj0pwHNOA4oAaBilxxS49KXkDk0AMNFGBmigBcZ96Me1PwMdqAKLgNxz0pRjPSlxzSgDNMByDmpMCmgcU8DNIYACkI9qeAMUpAoAjAx2oIweKcR6UAetAWGEcU3FSEUzHNACYGKQjPapMZFIRjigREVPpSgZPpT8UuPQUAMx7UuOBxTsUY4oGRsuc0wripj0phGaAIse1LjHWnEc8GjHNAhcGmkdsU7FGKAGEcUUpHWigB9FKBilx60WAbjPWlA56UY5zSgGgBy1IoFMA7VIooGAHNOxS49qXGBQAwikwc08ikxzigBpHFNxxTz0pCMigBoHFGO5op1ADCO9IaeelJigBtKBxRg0uOaYDCOKbipcUhApdQISKTHNSkcdKTFACYxRilwMdKTH4UCGMOKKeRxRQAoB+tLilA4pcdKBjMU4Dilp+OKAGgHFPWkAxTwO+KAHAE9KUjA5pRwPelxnrQBEe1BGRTjSZNADaKdSEcUAMI5opSQOpAo4oAQ9aMUUo/GgBMUYGaXHfrS4oAbjJppHpUmPSkIoAjxzSYzUhApuOaLgIBSEc0/tS4yKYERAyRRSkHNFIBwAp2ARQB7UuOOlIBmMGn0mM04DJpgKBnrTgOaQdKcB3oAdjijNFBoAZSUppDRcCK4Ept5PJOJdp2Z9ewrOttX8+1keVBG0YBbAJ74xjrmr32uI3HkDcZMkEYOBgZzn0rM1iDyfMntlPmvGdwVc8A5LHsMZwfXNYVHJaxZcUnoyRZpbrWvJDDyoMsdvIPHBz+IrUx7VS0mBIrcsFdJZArSK4xgEZGB6YPFaDK5RzGpLhSwAHXAJ/pVQvGN2KWrshmKUD1FQWlw1yrl4/LZWA25OQMA8+/WrOK0TurokQDijHNOFHGcZ59KLsBOgzSEZ5pT6UlACECkxzTj1owe9ADcUYp1IelCAYRzRSkcUUmAuMU4DinYFGKoBAKXGDSgHI4pcCgBBTgPejHtTse1MCOQN5bbCAwBIJGRkCsrR9Re7V45SC6sSCB0yc4+gzxWwwJyMkZHXHSsOK2k0xY3LITLKynscAjB/EHp1rCpJxaZS2Njv0o/CgnIz7UnbrWt1uSUrhTFrUYQg+ZGrHBBxkcgjqOlM1RHSEzxK7YjaN1jJyQeQT7YyDjnpVf7Us3iHKYwMqcY5AGB9a12cojMoyQpIHrweK56a5ost6MqaepZpbnyXiWQKFR2JPA5PPQEngVpQ366aWuGgWbIMYRjgHcDz+AGagiOYkJ6lRx6cVU1mYR6WsSEedLIQQPvBAMEjtyTj86qb5KbBau5LbP9paW92qhuSJNirgKMAYHsMd/6VYwapaTIHsUXGCnAHoO1XhV0/hQnuCgEjcQBnkngCsG1nubjXWLSFVIwVHIKqTx7cnr71pa0WTRJGGQZJVjBHUDBJx+QrP8AD9sDH9rZyzspUA9jk557k4FQ25VLIq1kbJ4NLQeTRW7MxMUZozS4yM0gE7ZoNL2pM8UXAYRRSt60UASkc0Y96lZCBmmgc0xiKM0/bSgYqULkUAQhadjAqQJikK5oAi5rnvENyiyRwg4ZTuJPcnpiujI5A964zxFFcsIbt2VkZ2iVkH3cE/K3ocDI9RWNd6WRcI3Z0OnymXTo5WPJJXB9R2p9y6raTsxKgRMQcdDjj9a57RdQkvdUt7VWCw7gACOvU59jn+ddDdoz2k8ZIDFGXI5AOD/Ws4VG4OPUfJaRxenXTDUFmLFiCTgjGcYAz+tdeL1HkSMISXLgg8cDPQ984rhoklh23R59DjOD6H8Ca73RoH1OC20wlSbiMSI7jiNwSSfYEZzjuBWSnbRGk4q5HZm6iCQXSgyGJZFIJPynoD+FZXjGV0NmquwUwAgEEc7myQe44Gfety+jvLS4j8qNp4vsqgOeDGQCSCTgEcY61kePbOK01NIAGNwY0kOZMqFKgAAY4IIJ69+lPncoJMIxtMreFbiVxPGzghQCAxz3NdIC5ONmT7GuZ8KxNGbluCTgAk4Bxzx+db95cpbWVw5cCYRny0Hcngkn0A7e9bRny07mc0nOyKPi6aK1NrZlyZY1MkqDIwxxwe3AwPzo8POxtHiIAVWyCD3PUVyWpXT3NyZmJJkXccnPJOTz9a6Lw5BNFMPNJUmEsUJ5wTwSPXr+FZ02+e5dSFonQn9aSnHjNNPrXYYCYNLzikzS0CDtTSRTu1NIFDASilUZNFCAvkZzmmYGakyDTGI7CgoAOamjGR0qAHJxmrtsm/imMo6pctp9kbhYhJhgCC2ODxnODXNXniG9lKm2EcAGd24hs+nUcV2WqWfn6XcwjGWjO3I7jkfyrzNtrQy5K7tpII6g46VyYipOLsjalBNalz+3dVYn9/Fkf7A/wqrcXd3cW7wyvEUeUSnCgEN6g44z3p5QBlaMLgqCQOgP0pzRrLFNuABCnacdDg9K5HWk9zZQSKlqZrS7juonQSx52k4IzjGSMcn+tW/7Y1IgjzlGSSTtHf8ACoo4WIiaNF5UFgBxnipfKJf94gCkE89M0vaNMfKnuUme4NukBm/drnaoI4yc88c1d0/V9Q02SKSCWPMQwm4AgDGPTmq4Q/Z4SuCxJDHvxnrSFGLgFQR360OTDlRcOv6s7Li9xtAAVTgcHI4xik1bU9S1y5W5vpIJJlQRiQIAxAzjOBzwcVVSIC2jcY3liCTnOMmpgGUKvAQnkjNHO1sHKNspryyBEUijIwcjI7e3tSXD3V2zGadTu6gHHGMY6U6IMyt8xJ3kDk5xmpHilyowuCQDjrih1HsLlRQay3bfmACjABYnAHOOlX11LUopZJVmQmTAJKg8AYAHHApEjzJMNv3WAUZPHHanTRybAFCgEjJHXGeaFVknoPlT3JotY1IyKWkiZQQWG0AkdxnFa1lqb3dwYzCqAKSTvyR6cYrnjGizT4AwMBc5xnGSf1rY0BN/2iYgdQoI5HTJ/pXRRqTlOxjUhFRubFGR60N1o59DXccovFBxjFCg9xS4OOlAAvWigdaKAOE/tq9AH+lXGD6SGl/ty+JO25nHHeQ1D9hwQQQR9Dz+lSi0BGCqenT/AOtXn867nbZdhf7a1E4K3M+cdnJpyeINYjIK3typHT5v/rU0W2zgKBk9B/8AqprQ5BwD+H/6qPaeYWXYnfxLrUikHUbgZH9//wCtVeyDzNIXPIwQQOc81FJEU4557Ef/AFqt6YVUybjjOMZ6nrU1JXiNeSC43RsmOu0knHSmrK5VXxkkcgAnPYfrV64jjadQc7WQgjnoT1qvHEUVACVbA+bB4OTyO3/66zurD1G5kEhZnIAxwPQ+nr1oR2dtu7cCcjrgCrMsIklO3cPmB+6eSOw/zzT/ALMJY3KkrxgA5GM9T/TFK8R6lLblsBhhgQOOeO/49KWRCQqKcBQCSTyc9qtwWyRlVYgMM5Jz3GOp96e8KiYhMMCBkDJJA+lCaE7meAQACGBByAw5NShxt3tjAAAB7nuakkQ+YgKsCuCQCc98Dp+lN8ldoXBAI4JHBOeT9Owp3TDUrEEycEgDJJx/MUBXkO5N24nAGcjA/wAatiJUOCSOACTnJBGSfzwKfHbbQSx5BBA45Pp9KOZLYNSoiOFDlyCxwATyMdTRNI5IAOVDDIHXg1P5TOzEEA5OMkYx+HemiDOSAwC4wSpyTnnNK63DUbdYED7Rg4JGfWs6G8u4F2RXEiKTnCsQM1095AospsqM7Dg46cVy6IQRy3TnA4rWlLS4n5k39o35B/0mc4/6aGlGpXyrgzT89y5qWKANyCRn3/8ArVYWzVieh9AT1/Sq9p5k6dikNVuwM/aJMD/poacNXuSwBmmHqBKf8asvbIh2+WOehAB/pSfYIpFBwAR9R/IUc/mGnYiGpzkE/aJ8ZxjzTx+tFSnTUVcKT6jJJ/pRS5/MLR7Er28x5Ex/AYp6xTgj9+c/SiisLjGNDcEHM549BUflTngztx0IooouNCtbTOMNcu3HfBxUccFxExCzgZ47E0UU+Zgidkvc8TcgddooY3wIG9GA6kqOaKKm47lqN7xzjeBgZGVBpvnX5cKHTHqUB/rRRSuFxxa+wSXjPuYx/jUG+9J+9GCD2jx/WiincV2TR/bXAIaMe5TnP50ki3uAN8Zyemz0/Giii4czEK3uCTKhOMfc/wDr0xUux8uY8Hn7g/xooouCbFZrsHG6PHBwIx1/OlK3ZJ/eqM/7AoooWom2K/2uRGR7gEMMH5R0quLBwQ3mn8qKKq9hXY/y54hgT5yOMjp+tIz3W3AmX67T/jRRSTLEV7kA7pgc+gI/rSia6GAJlI/3T/jRRTuBIkty7bfOUKeuFOf50UUUyWf/2Q==;" vertex="1" parent="1">
          <mxGeometry x="398" y="470" width="30" height="30" as="geometry" />
        </mxCell>
        <mxCell id="9ybyBgt4PyTuUXgcpJM6-95" value="" style="endArrow=block;html=1;rounded=0;endFill=1;entryX=0.5;entryY=1;entryDx=0;entryDy=0;exitX=0.5;exitY=0;exitDx=0;exitDy=0;" edge="1" parent="1" source="9ybyBgt4PyTuUXgcpJM6-94" target="9ybyBgt4PyTuUXgcpJM6-77">
          <mxGeometry width="50" height="50" relative="1" as="geometry">
            <mxPoint x="383" y="500" as="sourcePoint" />
            <mxPoint x="383" y="410" as="targetPoint" />
          </mxGeometry>
        </mxCell>
        <mxCell id="9ybyBgt4PyTuUXgcpJM6-96" value="" style="shape=image;verticalLabelPosition=bottom;labelBackgroundColor=default;verticalAlign=top;aspect=fixed;imageAspect=0;image=data:image/jpeg,/9j/4AAQSkZJRgABAQAAAQABAAD/2wBDAAgGBgcGBQgHBwcJCQgKDBQNDAsLDBkSEw8UHRofHh0aHBwgJC4nICIsIxwcKDcpLDAxNDQ0Hyc5PTgyPC4zNDL/2wBDAQkJCQwLDBgNDRgyIRwhMjIyMjIyMjIyMjIyMjIyMjIyMjIyMjIyMjIyMjIyMjIyMjIyMjIyMjIyMjIyMjIyMjL/wAARCADIAMgDASIAAhEBAxEB/8QAHwAAAQUBAQEBAQEAAAAAAAAAAAECAwQFBgcICQoL/8QAtRAAAgEDAwIEAwUFBAQAAAF9AQIDAAQRBRIhMUEGE1FhByJxFDKBkaEII0KxwRVS0fAkM2JyggkKFhcYGRolJicoKSo0NTY3ODk6Q0RFRkdISUpTVFVWV1hZWmNkZWZnaGlqc3R1dnd4eXqDhIWGh4iJipKTlJWWl5iZmqKjpKWmp6ipqrKztLW2t7i5usLDxMXGx8jJytLT1NXW19jZ2uHi4+Tl5ufo6erx8vP09fb3+Pn6/8QAHwEAAwEBAQEBAQEBAQAAAAAAAAECAwQFBgcICQoL/8QAtREAAgECBAQDBAcFBAQAAQJ3AAECAxEEBSExBhJBUQdhcRMiMoEIFEKRobHBCSMzUvAVYnLRChYkNOEl8RcYGRomJygpKjU2Nzg5OkNERUZHSElKU1RVVldYWVpjZGVmZ2hpanN0dXZ3eHl6goOEhYaHiImKkpOUlZaXmJmaoqOkpaanqKmqsrO0tba3uLm6wsPExcbHyMnK0tPU1dbX2Nna4uPk5ebn6Onq8vP09fb3+Pn6/9oADAMBAAIRAxEAPwDyQuvYg/SmmQAckflVEvICMA+lSrcMAQVJwcZ9K5+XsZWJvNAzyMGm71zxjmoWnZ1IKAE8jnrUYMhOAKOUC6ACcHgHpgUpAAzgdaiS7YJyCcUPeF1wR16D3pWdwsSA5PA696fsJUAqeKqCWVTwAecirSatIi4KnmhphYcoZWBHBFNKkkknB65zStqTzLtK5BPSoRdMGB24wc9KVvILE4L4BPT6U4OwB+UEn8Ki/tG5UDjig30sigMuT15p/IViUMwBwcfQn/GgFiQc849aiF2yfNtHHShNRkJIKnOMZzxRbyCxKzsGAOOfU00uSwHHpwahmuXkI4zjrk0QzMjhtoyKVh2LJQ4zj86YzFTg4BNOOpsW2hfxzUEsssrluDjgCnYRKrliFBqfGCCTn8OKqwSNHJuIHT0qwb0kkEH6ikArBH5YkH24pNsQ5LA/U1VaWSRyw6ZwKRnZCQQSxHQGnYCyRGTwcj2FRuwVsCohO5BJUrjrmod7ud2OvOaLDLiuQSRj8RRVdZvLU5AOT3NFFmAxl+Y8en86UxgoMjqTn86sGBsk+We3O70pyQEqCQR9Gp3FcqIgDE5U5GAQPT608INwwO4/lVh7fA6E+2ajUHdh42HOQQR9KLpgVXAwFPBxkUkQBABAJPf0q1JbqVztPA4BNMaFhyqjjqM0wvYQjOT7n+VRMoJBJxjGATUxDjgIcEnqR3pDE4G4qMdsGmtAuRxgBwAQeetTBBgEjPH9aRYiPmC5Oc4zT9ku3IRsYx7daTaYO4rxbweQABgDIGTmhY8KBjueT16VOsPy7iGz+FJJGQBtDZyeRjvQTdkHlZ4z6UpiUHIIwTkknHP0qRUkyPlOOOcjsKPKYk5IGeOoouO5EyhlYgEcH+dEKnJz0yeanNuccAkEY4IzQIZBwAQCSeSKaAh8pAc5xkenengAKSeuRSmKUEAMMfWo2EoYjaD0yQaaEScBFIHUH+dMSNTIzFieeMDFC+aQF2hQPU1IkZJIYD1GDRoAgQEnjHJwPwpJog0iYweBx+FWFgbdnBxnJ5HpTxbjg4IIAAOaBXKjRKDkAgcAjrUYiBGDnIBxj61ofZxg4zk8nnvUf2dQT8rc57+tA7lcxIHUsMgZ4x2oqw0AY5KsMcj5qKQXL0mkXqkYiLZ9GGP50kemXZUgw8/7w4/WumgTzJBEgYMeQuOcematfYJiciJsj0HWsFN3NeQ5F9JuyvEWScYAYZ/nTG0e9JA8kkgHJ3Dj9a7IWE5x+4cEHg4pxsJyAfKbPQ8cUOTDkRxN1pF1DbtMYiwUZIBBP5A81ktNIBhoHH1BFekNp05JGxiCMYxgVympRLa3BWZC8gPRzgAdhiqU2hONjB81mIIRiT0FWBa3kpVVtZiGIx8hx+eK0re7h3gPbQFcgYIIrrtJjhljBtiyLjBj3blPrj0/Sm5sSSZx6eHNVBx9jfPruH+NWl8Na1s2i1Yj03D/ABr0OK2eUEopYrwSBnB9KvRWUoQZic/UUk2ynBHmqeG9Wxg2LkYwfmXr+dI3hvV8Y+wSAnpll/xr1AWUvI8th6cVI9pLhcRsSBzxV6i9mjyf/hGtXyQbJ89QNw/xoHhjVgD/AKC/Xuw/xr1J7KXqInyOAAKa9nOBgRvn120XYezR5ovhzUwozZyDHfI/xpT4d1LGBaPz6sv+NekG1nEYBRxjsBzVeSC5AJCuMcnjpQ5MXskeWalpd9YSostrIpcEggbuAcds1nMJQTuUqfQjBr0vU0laPeZWCYIJQcnHbPauQn8oOSkSZJOS7Ekmkp3E4pGEXYEZUn2qxaxTyM2yFiQM88Y/OrOEkOGiVgOhU4IrYsrGYxghHZT0YjqKbm0JK5QS1n2gmLnHPIpUsph/yzPTjkVvLZyAcRtn3py2kvUofype0Y/ZmAbOcDJjJ/EUw21wMnyT+DCuhe1mGMISBz0qCaCdFDOhUE4BPGTRzsXIjCaCXBJhwe3I4orQlRiwQA5YZ/CilzsOVG15TW8NtcqTkqpJ9Djr/ntXQW8qzwLMMAnhgOx71BFbrLYRowyDGv8AIVXsRLbXc0RR2jjQM7gZCqSACT25IH41inZnQka4XIyMD8OaXYM9T+VPVudpGSKdlc4PFXcCIqPY/hivPfHKBNXtyoxmHJz3OTivRyQPTNed+O3Da3CB2tx/6EacdWTN6HNxcMDngkdPrXU+H55YZd0RHK4IIyCNx7VzEQUuo4PzAYz711GhD5hgdv8A2ZquexlDc9A0cEMQxyZY1fHTnHNbsSAKM/yrFtSIU0xyCTIBGMDPJHFdCgyBjFKBsxoXvS7R6VKBkUu0VYEBUUxgM96sFOKYwAFAFV1HpWfeHbazEHB2kD8eK05CACaytQJcQoFYiSUKSBwDgnn8jUSA47WnniaW2Ujy9uCMc9AetchcAoTkgYJySfpXZ+KQVu7krkHHGPoK4a65kI5xk9foKdNGNQSIgsD15AJH1r0CK32RhVXAAAANebo5QjGcAgn3xXqaOGjUkYyAf0pVSqRCISfb2xSrCe1WAQKUtgE4rI1KpQKRuGAOuazbsG7mWNBkE4HsPX8f5VfvTK9vIUikkWNDJLsGSqAgE/TJA/GpbK1Ij81xh25xjoP88VSEclq5mtrqRYmGQwAJAPGARRVrXYv9NkxzyD+lFNGT3Owt0EcEYY4AUD9BTLy2ZonaMkFlAYA4DKDnB9cHmppV2RLngAfyFFlcLcRBSRuwTgHJA7A++CDUPc2Wxn2l67gxEgSR9CerL2/LpV8SsQMMPxIrF1mCa0mSe2baWOMgZIzwR+NQx3d8QB5uT7qP8KV7COgLt6ivPPGjl9dAOMrCo/mf610pvr0dZBnP9wf4VyGvPJcaw7SkM2xQSAB0A7CrpO8iZ7GZHAwYEHJ3An866fw9uMoXtgj8masKIEyAEZwRg/jXT6BARcKR05HI5+81azWhlF6nokKH+yLZxwUVWHsQK1Y34GCACAR+NZ8BPkWsGBta3JP1GMVThvbsHYHGFOANoPH5VF7G50YJ9RTsn1rFW9ugOWA/4CP8Kf8AbLoj7w/75H+FPmA1mbjqKiY8nkVmNeXefvD8FH+FQyXl0FJ3/wDjo/wo5gLszYU81RBMl/EmThQXIzxnoKpSX12eCw/75H+FJZzyg3U7uN6qACQMDP8A+r9aVwMXxQh+2XGVyCBgfUCuHmiTzCCAcMcHPsK9D8Txk3c3AGQp/QVw08WGOeuecfQVrTOeruZhiUEnkgivRbNw9lAxI5jU9fYVwpiUA461tWl1craxKJmACgDgdBwO1FboOi9TqdwA4IqCadEUszABQSTn0rn3vbwjHnuD9B/hVJpb2a6jjad2R2AIIGD9cVz9Ta51OlrLctJKSyrICGAOAV44PqOK2HTamAAO2BRZwJZWQ9FUEnPXiooLkXLSLxkYIx6HP8iDVDRyuvJi9c9cqp/SirPiFMXQOOqA/qRRVGMnqdJfjGnyMCQQjYP4Vj6Mvl3sBB5kZg59cjgfgOK6GaIy2kqEZypH6ViabE5vrdCpGJcg9cjFRJamyNa5tle6Q+UrkLnnnAz6dKjW60wEgiEHJBBToRwe1Gtu8TfIzLlQMg475rAIJJJJJJyT6110qKkrs56lVxdkdAZtIIPzQf8AfHf8q848TPFL4nufI2+UFUDaMDO0Zrptue1crqQH9sXOAOCvb2FVKlGOqIVVy0ZWhQmQkDoV7e9ddoceZl9Msf8Ax5q5hFGSQcYAz+ddd4cXLg9eW/8AQjWU1oXDc7iNCDpx4w0ODz7imwyWEQCTGJJAeQw5H1q6Yj9l05xxhQD+Irjo3eRyzsWYnkk5Jp0qanuVVqOGx2CT6ZwfMg/EU83GlY/1sB+g/wDrVy6Kcd6l2+9b+wiZe3Z0LT6WcESR5z6GoJbnTsELLDn6f/WrFKEjvUUi+go9jEft5GhNLYsc748/Sqc0SG1mkhIKsy5I6EAk4+ucVScY61a08M8NwgJIBQgdhyazqUUo3RUKrlKzIvEyEXUhIyfLU/oK4WYHPOCSR/IV6J4pjxeSjHHlL/KuAuIhkn0I/lU00KqUSnAPr/hXUaU0H9mQ71UsAQcqM8E+1c2UABOOn+Fbmmj/AEJAOmT/ADrX2am9TOM3HY0itrgfukJHT5RQttG8UjKkbAA8AAY96iAx1oLMkbFWKkg8j6UpUIpXRca0tmbmoEJpJAONwVQR71jeHnZ5ZlYMNoZcH0DkD9K27yJpNAhcE5CoxPoMVleG4ZAbmVyGBACnnkZJzz9K47anUVPEa4mjPqh/nRUniNfnibuVP8xRVpGMtzro1HH1NFtpyLdrKpOFJKoB0Jqibxba+kUtuUuFZe4OBityDDqHQ5U8gjvTtc1Rz/iRQrIPXH9awQvHFdF4nH+rOMEYH8659QcV20V7pxVviExntiuYvYEOrTsWyS2SM9MAcV1OK5e8Qtf3L4GC5GScDPFKqtCYbipEhcqMZIXv711ugQBJQBnBdv8A0KuTt4leQgEr8ykn15rr/D6Ynj5Od8mff5jiueZvT3PRreFX063JGdsYI+uK4G2TI969FtQPsMa558kEflXBWqZA4rSh1DEbonjTjoKmCDHSpI04yRUmziug50VigweKgkQc1eZMDpVeROSaBmfIuR0rT8OWyz3FyjEgBVbgejVQkHXitXww6xXV47naiwhmOegByaip8JdP40Q+KUAupD28oGvOblwSRjn5eB9K9J8SuJkS4AOJLYOM+hzj9K87uYiQDzztOPwrnhua1TPPJxj61uaVzZAHqGI5/CslozuJwevpWtpQJgcHs/8AMCt4bnOy9tFIwyp47GpMYGKQA5GOueKuXwsFudla2yTaLDEwI3RKCR1HHWs2O2W2DIo6nJ9/84rbsBnTLcnrsFcpq+qrDPJbQkFwCZGBHyjjjPqQc+2DXBJHe3ZFPXwrwxsCDywyPp/9aio78A6VARjG5sY6YIP+fxopGUty3fAHULlsDIuME45AA5/lWh4cuZoAySOHUsSVzkqOST9fbvik1vSrkLJPGA8fLcDBBJzg4/LNN0iEwysCAGZWY5PcjOPwqtiluT+J8OkbKQVYqQfUYOP51z4FdD4kQCK3A7Kv/oNYIFdlH4DkrfGNx61yN9uN7crjgSE5x0Ga7NVzjiuQunV7+5+XgM3U984/pSrdAp7kkCR7c5YMZYwB6jI7V3GgxkSxnGF3MAOv8R/wrkIowWjKgEtNGCM9Bmu60eIebEADgMT1/wBpq55bG0Ds40O6zYEjbAQR65H/ANauRs4/lHFdqiELbHBwYiCcegrmLOHEYPtWtDqFfdDlj46U/Zx0qysXcigx89K3MrFNkNVZU68VpunHSqsqZB4pisZEq4q1o52rqPYG2IPGeMgf1ps6dasaNEGa+VgcNbkHHX7wqKnwlU/iJNdjAsbXvi1UflXA3CHp1G0cfia9H1yBorG2RslltgCffOa8+mGAfoOv1Nc0dzaqUHjBjBxg85q5pYAjkHow/lUTgFSMYxwPep7AY8wD1Fbw3OeRdwacoIYH0IpuaMkEexrSXwsS3OqN8YNKtYUyJHiLEgZwAcEj35rzq9nSTUbtRGUDMpYAg8sQCc9+grtSS0Wltkf6uVSScYGR/jXJnR7q61aRgCrMQew4HBz+B/SvPOxl9gG8PwEHIEpGfbB/woq/qFoLXRliB3BWXJwBk9DRTJaO9iQFcEAgjBz71nXehRyyiaABCDkgdPr/APWp13dS2lyPLIxtGVPIOa2kwCASAxGQCapWZpY47xSoUxKOSCB/46KwABxXS+KE3T/RwPf7tYSRDIrqpfAcVb4hqJkjB71yMUIM925Uk73IJH+0a7iOMBh9a49YjvcnkMzHg/7R61NXoFMlsoi1xGCDjzk7dMGu40fJmjUAEEEk/wDAmrkre2QXURIBPmqd2Pau20NRsjJHUZ/Vq55G8FqdrCoNnH7IP5VgW9vhBxXRwAC0Qf7Ax+VZwjAAAGBitaWxdRXZW8ogdBTGTHarmKjZARW1zJooumAaqSDk1oyL14qnKvWmS0ZsyA5NX/DUKy6jMjcgxcj1wwP9KqTCr/hchNTmY8AQkn8xUz2HD4i14oUAKT3ib+deZ3AOc4wMDn8TXqHiUFreNiOTExrzO4HyAHuOfzNc63Nam5TdcgkDPNPsSA0gxjgVIbeZkLrDIU/vBCR+YqO0wJnz/dH862huYSWhe4ppGOR2NGRQWBrV7EI6K30+W9srAodvlSSbiewOP1qy1skEjKgAweSByT71c0h1GlhnYAbyMk/Ss7WZJYp4VQlVlfDcckY/SuBncihrIB02QAg4Knj60VJqiD+yJsYACg4+hFFD0JZtamAb4r14UVraj/r4AP8APIrLvhnVgvqyD+VamoAm7gA9B/OjuWYPioAXAYd5Dn8hWEhzitjxncLBPCXBw0rDI7YArBWZUALMACM12U/hOKr8ZeTiuVjQEtjJGTyO2STXSxTI6nawPB471z9sBgndgED+dZ1nYdIt28YM8ZJJIkHB7112hEOsYAIAjzz9WrlLcjzkO48yA/pXTeH24jGQcxD+bVhfQ6IrU76AAwwgnAIHP4VFPEqkgdB0qRDiCP8A3f6VDJLuFa0y5FZhimEVIxqMmtkZMglHBqlMOvFX5OhqlNVEMzphgVc8NgG/uAO8DfzFVZxkGrvhof8AExmHrA38xUz+EIfEaWvputIT/wBMmH6V59pdpDeahicEQRRvNL6lVBJA+uMfjXpOspus4Rj/AJZsP0ry+5nksdK1aWIt5hspVXA5BJA/lmufqbzV2YGo+NdUvL0z2tzJbQLxFDC2FVR0GBwffPWtSC+i1fTo9R2rHdhvJuAigBjgkMAOASBggfWvLFvFtdombaepRTk49x2rt/DF1Bc6YpgfJBbzAeCDkAZ/DFaw3MJppG5k+tNJ7Uv1OPxqje6hHbICoDnqQDWr2MEd1pnOl2xbkrd9fTIp3iMbXtG9HFR6aSdGRsggXMZBHuKn8UjFrA2ejKf51wvZneuhS1AbtGm/3Cfy5opbn5tJmHYI2fyNFD1Ib1Nm5AOuoP8Apoo/QVo3f/IUgXt8o/M1nS8+IQOv70fyFadwN2tQL/u/zNPo/U0OR8fEGe2A5PmOf0ArmIgSBkk4wOtdN46AN1bDvuk/mK56EYA4rrp/CcNb42TxqyjIOCBxWZBvVQC2RgYwOOtbGAImPcKf5Vi2rqUDZGSBnB6Gsa72LomhBuE0Z3EYbjH0ro9AkIMIJz+7UZ/Fq5qEkSoWYAAkDn2rf0EANEMg4iXBBz/frC50Lc9GQ4t0P+xn9KoB8gVcBxaKc9Iz/KsuOYFQc9q6aWwTZOSTTSabvHrTWceta2M7iSHg1TmNTSOMHnNU5HBzTJK0xGDV7wyf+JnKPWFv5is2U5zWl4ZI/tZx6wt/SpmtAh8Rn/FHxoPCWi2Qt44pr+4yI45CcKoGCxAwTyQAM9a+d9R8S6vqpb7TeyBGyDHGdi4PbA6j65rrPjReT3HxBnhlDLHb28SRA9CCoYkD3JP5V55WCOmwp7nJJ+tWdP1G60y6W4tJSkgGDxkEehHQiqpop3HZdTurDxC2ssBLiOdBkopIBHcj+oqxKNwIbPp16VwlpdSWdzHcRgFkJwD0IIwQa7XT7s6jYC4MYQlmGAc+3WtE7nHVp8ruj1vShnwwjKMDfA35gVa8UqDpcb45DL/M1X0jjwoRnpFA36Crnidc6EGAzgg/rXNJaM6VsjOYb9MkUd1YY/A0U+1HmWB9CD+oopdCWjVQF/EQ9pifyrSkOdfhHoF/kazrQ7/EZ/66MfyBq+3PiNB9P5U1qvmWcd43cG/tgDzmQ/qKwIX9TWl40lB1S3XJwEf/ANCNYaSgYrrh8Jw1H77NOSXFrLz/AAN/I1zVgxFvjJ6Lj1rXluALWUZ6xsP0Nc5DclFCKeOAPYDmubE6NGtE6JX+dCegY4/Ktnw5MpuYAp4MK4x9Hrk7e7JaMHk7mz+ANb3he6V7uAYAJhU4x0wjGsEzoW564xxY56fuSf8Ax2uVtL0NEuT2HNdLISdPIAJJhIAHUnb0rzuzndIwsgZWUYIIwQR1H1rsoMzrdDrBcAjrQZs96xorsgDJqcTgjg5rczTLry8VWkfrUTSgkc1FJJwSTSASR8nrVvRdStNLvZLy+uI4LaOF2Z5GAAAAOOepODgDk1lvMv8Aery34nX9y+oWlmSRaLH5qjHDOSQTnuQMD2z71M9iqfxHIavfPqWrXd48skhmmZw0hJYqSSAc+gxx2qkKMUCsTpDp1opaSgAFb1rq89joyJbwodrnzHfJALZIGOOcDn8Kwq6fwvFZ3Nnc29wscjtICsbnkgA8gZ96aM6u2p6r4P1HXLvRLlL3TbaOxFqjJcxXAYsQQANoz1GST2xXW+IBv8MMw7AH9RWL4YsLe38MzNAgTdYruCkgEhjgkdzjv1rf1Zd/hGYgdIs9PcVk1uV0MrSwX07IA5I/kKKn8PoX00EYPK/qBRStoiWT6a4fxATn+Jz/ADrS8wHxKOenX8FoopLYq+p5n4mu4rzUyoLCSElGBHBydwIPfrj8KzVtrnaGETY7HGc0UV0wfuo45JczILkTRQSM6sFCknIIwK5039vFIQHBIJIoorKtqyqexNaahE80eHH/AC0JHflTiuo8Lz241KKGOTdOLVJGUjHylSMjt1NFFY2RvDc9fvXC6ROwOMWzn6fKa8t06eV7eNWZhgZ2sSCCQDnB9eKKK6KJNbdGvG5wSVxxwQeO3Pf1qZZScbST+Hf0oore5CiiTe/UggjkjFQSSEnk8Z/Kiii9x8qRDMDtPl7s4PLrxnscf0ryHxo2pLq8cGpSRStHFmKSNNoZSSckZODkH8qKKiexdLc5ujNFFZmwtJmiigA7V1Xhewt5rN7l4wZkmwjkn5cAHiiiqhuY1n7p7R4RuFufD9yiKQI7Z48kYyVY8+3biuguyX8ITkAkCAnOPYGiisn1KjsZfhaTdpxGc4Cn+f8AhRRRS6ID/9k=;" vertex="1" parent="1">
          <mxGeometry x="438" y="470" width="30" height="30" as="geometry" />
        </mxCell>
        <mxCell id="9ybyBgt4PyTuUXgcpJM6-97" value="" style="endArrow=block;html=1;rounded=0;endFill=1;entryX=0.5;entryY=1;entryDx=0;entryDy=0;exitX=0.5;exitY=0;exitDx=0;exitDy=0;" edge="1" parent="1" source="9ybyBgt4PyTuUXgcpJM6-96" target="9ybyBgt4PyTuUXgcpJM6-80">
          <mxGeometry width="50" height="50" relative="1" as="geometry">
            <mxPoint x="423" y="500" as="sourcePoint" />
            <mxPoint x="423" y="410" as="targetPoint" />
          </mxGeometry>
        </mxCell>
        <mxCell id="9ybyBgt4PyTuUXgcpJM6-98" value="" style="shape=image;verticalLabelPosition=bottom;labelBackgroundColor=default;verticalAlign=top;aspect=fixed;imageAspect=0;image=data:image/jpeg,/9j/4AAQSkZJRgABAQAAAQABAAD/2wBDAAgGBgcGBQgHBwcJCQgKDBQNDAsLDBkSEw8UHRofHh0aHBwgJC4nICIsIxwcKDcpLDAxNDQ0Hyc5PTgyPC4zNDL/2wBDAQkJCQwLDBgNDRgyIRwhMjIyMjIyMjIyMjIyMjIyMjIyMjIyMjIyMjIyMjIyMjIyMjIyMjIyMjIyMjIyMjIyMjL/wAARCADIAMgDASIAAhEBAxEB/8QAHwAAAQUBAQEBAQEAAAAAAAAAAAECAwQFBgcICQoL/8QAtRAAAgEDAwIEAwUFBAQAAAF9AQIDAAQRBRIhMUEGE1FhByJxFDKBkaEII0KxwRVS0fAkM2JyggkKFhcYGRolJicoKSo0NTY3ODk6Q0RFRkdISUpTVFVWV1hZWmNkZWZnaGlqc3R1dnd4eXqDhIWGh4iJipKTlJWWl5iZmqKjpKWmp6ipqrKztLW2t7i5usLDxMXGx8jJytLT1NXW19jZ2uHi4+Tl5ufo6erx8vP09fb3+Pn6/8QAHwEAAwEBAQEBAQEBAQAAAAAAAAECAwQFBgcICQoL/8QAtREAAgECBAQDBAcFBAQAAQJ3AAECAxEEBSExBhJBUQdhcRMiMoEIFEKRobHBCSMzUvAVYnLRChYkNOEl8RcYGRomJygpKjU2Nzg5OkNERUZHSElKU1RVVldYWVpjZGVmZ2hpanN0dXZ3eHl6goOEhYaHiImKkpOUlZaXmJmaoqOkpaanqKmqsrO0tba3uLm6wsPExcbHyMnK0tPU1dbX2Nna4uPk5ebn6Onq8vP09fb3+Pn6/9oADAMBAAIRAxEAPwDS+w+JXvXurK3khDklGLqAAT7mtnTtP1lbuG5vZ4zIFPmEygkkggdBg9q0TdWsQzK6KfRzjNclc6p4pinf7LfaFOuTtRraUYGeATnHSp5Ymdhlv4cur3UdXBjt5JoriMYkY7HBTkA4HtyMYrK8T6Vqnh7SLnVLh4/skLAInm5YknCjgc/X2NTXXibxnbjMupaFAOwELE/gOTXMal4x8WX4MM91p00SkEA22QSOhwwP8qfMtiGomPqesasmiQST3WlyxXS7lW3dTNHkZwwByAB69zXItISxYswJ64rp7k6ldktP9gJyTkQ45PU4GBmqf2O56efbj6RVLYJroZdtdeTIGBYkdzjit2319ItV0+9LshUGCYAgHy24yMemSfwFNt7e5hlVxcxgg5BEQzW9ZNAqKhtIC3UuUGT+fFS3qNNXPUf7VaVY4BMzgRFWJbhsrgH39auxeDNQluGuheqrOoG/BJYEY6nnpx06VwsVyFQAMegzzgdOles+ENXGoaLEHbMkX7tsnJOOh/LFOmy3ZmVF4O1CBVCXqYUlgCMjJAB4PHanR+FtSiKFL1V2ABcDGMdP512ZIxmo2OK2uw5EchP4Y1O4P768WTnPzMTzUB8IXpJxPGPxrr3cjuaiMjDoTTuxciPKPGuqR+BhaDUImvnugxjhjlCgbcZLHGcc449K8S1jVrzXdTe9uyGkbCqqqAqKOigDoB/9evWfjzb3jjSbwFmswGjf0WTqCfqCR+FeMqSATkgnge9S7lJJLQk+ySEAgqSegB6/j0qFgVJDAgg4IIwRTldkOQxFWZQLm2EwwHXhvUj/AD3pCTa3KYo79cUCjvQWSyxCNtodH5PKHI4OP1ru/Der6fo9nZ2V5E1rDd7ZJL7Z5gGc5AA5HbOOcDpXn/bGRk8CvfPDXhzTNZ8F2O++neCe2UNEY49qsBggcZyCDznPemiJq+hN4XFvNpN60V9EsM8k6RAkgAFuGB9COfWqur6Tq93IotNShMCxLGUFwVBIGCcdOTWLbaTJ4S8Xw6HJql1Do2oZNrMgUkOcDa24EDnjjGcg+td7F4YtkY+dqN7OCAMSbRj6YAxU8tyLPY5/Sk1PTLJ7aeMsSAA8MmcYPHTrxRXQN4YsMHbPcLn/AGh/hRRy2HZnCHWYkb5F3t3JOf51Xl1e4kJGdi+gOP5VkxKxbHyn1wDj86l8mSQkIysQOcA/z4rG5HMyG4n3OSQSSeuTVNpDnnJHap5QxJA2kjOcE8VTcndg7SfT0pozY4scdSKjJ5wTn601nIO3Kk+maYzsoyMH29KoZOoJ57VcgdgRx09azg+AOeT9KtRnbglgc1IzehuTtHK49CB/Ouv8Eay1pq5tmYbJxxjoWHT9M1wcUyiNQDyTjHFW1mltbiOZMqykNnODxVR3LufREVxvUEHrzTzJuxz1rnNF1H7bp8U6hsMoOSK11lyAQSfqa2NU7kzn3qAn16UpkBGO9MZhjBPPsKYM4r4n2t9feEXtLPT/ALWkkge4cEAwxqCxYZIyeMcepr5scAKoA6jcOfU//qr6s8VataaL4Zvru9Zlh8oxAqpY7nBVRgepI+lfLk1vuNqka/NJGvzFgBn0JPA6HvUy3J2ZZPh+f/hG11wTwfZjcm2ZCxDqwGRkYxgjoc1UtFbMg2krsJJAyMZxnPpniugjt9OGiRW1w9wGWZjK6S7od5UAYAGAQBySeap6U32kXYmtHuPK06RYhAoAhIYHzGGRxyST1JNInmuatx4HtrNUR9T+2XU0azQ21lE0jsjAEZwpAOcjk44rDk0y0NtctE08c8IJ2XDKCSMEjA5yAScexrrtO8U64NIht5vtLWbKLeJUlWFWUoUXLYBK7iCRnsc4zmt0eHJrbw0Ek8M2C3cSKJLp7tHdgCCxyAQMgn1wPWncLnO+A/Di3+nXOoJFbytGTGyT4IIIJ4yMDjOT64xXd+AlMWhtAisbVJSLYmZZAUxzhl6DOeCM9a8f0PUbrS9aItbprcO/lld/DAtjBGMH64H4V6T4G0rWdDjvob2KSJTOWSMkMrZGCeOOeOf0oTH1Nnx/pyan4YuHXia0PnxMCMgjk8/T+Qq94c1c6r4csb1nO+SIBznjcMg/qD+lS3afabC5ilwS8TIQQMjKkelcp8NpCfCjIwyI7l1HHIBAOPzJ/OlezH1O2Nw2DhzRVVhkZAPPYEUUagzyZHZj02IT90Ek4qzhMlVJUAZJAyagj2sgKMWB/vAjH0wc/nUkkrBAir07nI/pWBiVJgHYqrHOepIAqrICmcBSfrnNWZDIuSxjHvntVRxuO4y4Ydgpxj600JgAAMkcYzziolZdxIBPPrSucLjLHPtikRlx/EefQ5pgOJHmDJAHfNXFMWOpbBGODxVEOBJnIOP744/SrxIdTzCTjPyg5qRl+ABlAyB9RUokCkrI4HGAcZrOt5SF2sWZSOBkkCnTOEwxxn0PBqog2eg+B9XWMNalywU5A5Awa9HguA6grjB54Oa8E0XUHtr+N1AAY4IIzx+Ver6dqUxADylh2AOOPStos0g9DqxJngnB7UpfHFUYrkSjK49M4NSrLj7xGB271ehVzkvijPaJ4QaK+kdLWWVQwjjyzMCGVRkgDJByTxXz5MQLKCRdrKcxkMcnIJIGPTGOnf617r8XLGe/8F+Zao8n2a4WZwoJITBBOPbIJ9s14NbkS2725PP3056kDkfiP5VD3DzJ7XZNY3atcJCY1EiIQSZjkAgY4BAJPPYGrWkz3SQ6lNHbPNEtoY5ZFcr5QdlAY45YZAGDxzWMpwwGSO30q1p6XU8psrZjuuysO3cAG5BAJPQZAOaQ+Wxe1DVIpbbS4IYJIhawhJldsrLJuJ3AdhggYPpXpvgqXTfFWkzvf2kf2yH928okaMspzg8EZxgjHsPWuS8Q+FLiXwnYeJ4gWWaJEuogMlHXKFgRxtO0Z9Ca6L4d6p4X0nSzDcXyrfzsGk8+IgLjgKDggjqc55NC3JaRgy+DrCYTQGV7a+guDDMzMWQZI2ORjIUkgE543A54Nbdqnim18UT6HDrg2W8KSxfaYA+6MgA4wM8HjOecV0PiXSbm8ddY0ho5ZljMbogG24iORjrgkZOPUEj0rjP7asbTxLpN9c3UwSKN7aRZgfORcfKG6ZAJxng4xkEjJBJ9D0G9uY4dIuJ5mjDxQs0jgbckKe3Uc1hfD61MHhCOV2K+fLJIARjjIA/lmqXifUl1yePw3oU8d28xDXNxCCY4kB5BY9cdT24AGc12dnYxWVhBZ2rKI4IxGoKk5AGM/U9fxoHsyM7CvMq7u2w5/QUUk1pMykMyovXKjBopajueQi7kcARsMk5ypB4+hFSLK6AbioJ/iKEH+YFVIiJQfnjdehDLkj8uKlKADcGkwOMRr1/A1iYCzu78KQw6kjaf0qAblGS2D1IIx+mcCmugkYkSJnuGGCBn2FRbGXhS/XqDnH5imgFaTe5Gc4HQNnn6AUoIAG4D8f8A69RNzxIwJ6fMNp/OgAgA+WAPUfNTYC7kdjtCnHXABz+WKtx7CoJyvbnA/U5qiQrnJKkn++Np/OrIKKAC8YIHIzk0DLSBCSoYgjptcsfyGKnKIVyFIA7kAH9c1nByGwH3egdcAfjxVqJnljJ2QgDjO7IA/GmtAEDlJAAclT0Uhj+WRiu98PaiZLeMBZFIGCWAX9ea8/mVYgCzAg84QBv5dK6LwxMgbaqWoGc5eX5vyJOKpMIuzPULK/J2qxUMewO44/DArZSQuN2CueQSoH865K0vtwCeYowQMIuR9K1ILtQcBB1wS7Ffr14rS5qa04W4t5beUIUmVo2BJJKkEEDBGOCa+ePF3gu/8LXpJR5rB2xDchSAR2DejD9eor6AEpII3ooI4Iwcf0qteRQXtrJaXaLcQyqVdXQgMDx24B9D27UNXC9j5kd/NKBkVdqhRtAUHHc+p55PeprLBvEJZl5IBQZIyCMiut8R+CJ9CmN0kAudNjYF3WUElSeAQOVOOCemcHviucvrS1tbiN7W8WeCQbkwcOo7qwHIYd+x6ipemgOVzstD1TV/AqQTXcct5oV2MYZgyHPUqD0Yc5U4zz9a3JPCXhvxbC194cv1tZm+Z4VTKg9wVPK/hxXC6dr13BFPap5EtpKpEkFxgoeOCAeQfcYOabo2l6jNJ9o0y6ihuYyNgEpRieflBOBnHQE4PbNTe+hF+50c2jeLPCG65tVcQIMtJEQ6Ee6+n4fjURtIPiG0k5ia01mNACyAmGcDgc87SKv6V8RLizZrLX7FpJEODLghl/3lPB/D8q2FiDuNY8LXdhGj58+0ZiI5T7gfdb3wKpJdAXkZGlanf+E41sJdNsoAAAxkQRu5/vbhkMue/UegrqY/EsDRD7dDNZhhkSbQ0RHqHXIx9cVky+LtHv1NjrtibeYHDRz5KDjqGA/lVWPSrm2VpfDGrQTQE5a0Dhsg9gT1/EA+9LYd2dek0csXm27xyxnkvkMMfXNFcFBf6Yl2wvI7nRdTB5dCSrH3B4/MfjRRzBzHNLJEiEK8jkjkIuB+ZqBpw0gP7yLPQu+Afw5FNZyQf35UgfwAc/hgmm75M7BCsqn+IkqfyOc1mZkhlkwC08bHPVU5I/OoZWJAGJyO5BxinZlySAij6E/4Cq8hcNnzgwxnaQRj8RRYFuOQqGAVkx3DjJ/pSskbnJ5Of4Rj9aYhyDmLBHAJOc++etTBmwAWA/DNMOoxSASAWU9MSYA/WpRFwCRCSOpBKn86hYyAkF1ceh4P04qSJyq4W22EeuAPwNAxwIGQDMCB0IJH5jmkinZHJihQk4yWGD+RyakzO+WVkQ4z0JP64qGYHGZ3Mg68MBx7AYNMC1NO7/68sCR1Cg4/Gi0uI0nQg+Y2ejqP5nFV0COgZfPB69wB+dP2SlgSUcejLyfxFMR6JpV7K0algiEjgAk5/LH9a6BblY1DPdbTjJVgAD+A5rznTboLEBIhUDqUfB/mDXSafqqEKLdct6mPHf1OP51SZcWdZbXqkARQhgxB3D5Rz3yeTVzznIxuVR6AZP61hRXcxUPIkEa5JLMwYj+Q/Wp4ruHJy8jgnB4O3pngjj9apMovXMMNxC8N3suI3BDJIudwPbArx7xZ4SuNEuzPawyNp8rYjYjJQn+E9/oT1+tevJK7RERPCjE8HG44+gI/nUc9jFfW8kN80lzG4wyOdq/gBj6jOaGrgzwAuARkgnGCMZIoSVkYsgVcgggnGR7g11viLwsdJuD9mJkgLfK64Ocn7rEcBuwJ4P1rIvNIdtON/ZsJrdTtlVlxJAe+4dh6EcVnaxBUuL+7v4oUupmlEQ2q7AbgvoW6kDtmrCWl9Y2IvoBKsEgwZoW3D6Eg8fQ4rJVME5XJ9AePyrV0jX7rRJWNu4KOMSQOu5JB6EdM+/WgLEEMscs6CdzHGeC+NxA9cZ5/Out0vTmsB9qSCy1WwIy0qEho/qOoPsRiuVv7m3vZvNtrEWpblo9xZQfUDqB7E1FaT3FpKJIpXRh1KtgEehHQj60Bod7eR6HqVusEd1c2zsf3cbZZM+oYkqB9CPpRXP3HjKaW0EMltAj4xvC4De5XkGik7MDBVcndEojyeSH4/EDg1KPNC4aYkDkkKBVcQ5bcDtJPG04z9akbYoO8qCOmTkUhDpZIEIDMT9Tmo9gJzGGXPQg4H5dKRp0XAClgTwQuAT7k1HhjhkAj5zhSTz9OlA7FhRKCQzjPqB1pW2hSHJx3BOM/gKYEZiNzsT6ZwD+VBCIRgqvv3oFYRMEZt3fGenUfrVhPP25do1PqATkfQ1XAVySIST0BB25/HrTwku05l2Z9QCR+JpjZOwO0hpGP44B/KmrsUkI+GYHgDdVcy7SPMjE4U8shJ/MdKsRO0qAxLHGF4+9uP5DigVhVkud3CptHRiCD+XNJJIVY+bc4PUhB0/maf5CsT5ruxPUE4B/AYp4EcK4BVVPUjimLQksJUWUNDAzkc+ZI3H65P6V1tm91MV33CooOSkSZ7epz+gFcM08Ikwh3PnGVwM/jxXSaSbiQqTdCNcYCkhif+BHpTQzrIrazz5hVg4GRJvIIOPXOO3pVmC8BfFrdvNjPyCMOAfqMY/OsuBITGPMYyODzvbd/9b8hV1p4IQGd440PALELz19s1RRrI87ITLawseMBHwcdzgjAPsDSOUwpdJ0AJAGSV/EAkH8az4b1mAa0kkmUgYZiNn5kZIqwrzOB51wMEcrCNoPPqcn+VMZakliuYJLXzLaaNhtMTDAwexA6flXA+IdKvtAl+3WKgwuNrOGJAU8FZAR8w9D17H1rtktLSIsy20QYnLOVyx+pPP60XItYrci4kCRkYYO2FbPYg5yPalYGjxGUI8hbfsBPKAEBT6AnORQqYGEYEg9wOa6bxD4WdQ9/o8Mr2eNzB1wAPVQeSPw4rkyCOqHPcg5JqbCLdvOLe5VpYVnQHDRhiMj6jpW+dEtdWgNzod0qyDlrKZgZF/3T0IrlQUAHLKc9DxUkbsjho5SCDkEHBH4ikFie4tnt5nSVXWRSQwkGCD+NFbket22p20dprUALD5Vv4+XUe44z+JoosFzG+zFVAadmx74BpmUi4AUD39PxqAtNnL7tvcIefrShoQNwO456EZapsKzJftAIIwzg+n9c8VHsYsNi+Xjrzn8x0p3muPuxYzzlv8KGDuSXc4Iz8oxmmAuFXl349M4/QU1ZYy2I0BI79APzpVRFYYUk56k8n86VhER84XI7k0WAfmVh98Lz0HJ/EmpAijkrvYDq5zj8KqgNuzEWZc4+YHA/GrASTPzMFHoo6j6nmgRY81QuCNoGepAAqGQxyjCRF8fxAYA/GnIiBwoAOeMnk/r/ACpWhQZKs0frtOAfqOlMQ2OKVSSJGVT2Bzj8SKmW0QPvILHOdzHJ/Wq/2h0IVGWY9MKCCP6fyqVvOlGSRGpHAxuP+AoBpizKrKMhSoPf/wCvT7SRYh+4aXd1xGw2g54zngfhTDBGAQwLnHLMcn8ulMijWNgY3aM+gOQPwNAkzrLJL2RAZbxE5/5ZIASPQk9/oK07eC2SQEKGcEgu/wAzY65BOcfhiuUW9uIFUu8csecZB2sfwPB/Ctazu5bnG2KZVI+84Ck9sAdfxqhpnQrBaysZBEEkOCWjJU49yMU9rkoVWGaSQscABd4GOxYYx07msmO18wFZ5pJweBGTtQZ7AA8/iTV5UmijCQXBXA+64DKB6ADB/Wgq5pxC4kX99IkRAyRHlifxI4/AGp1tLVTtaEO2clpBubPqCTkfhWWLq7jOXt1fIzmB+cD2PU/jSQ67FLKYraK4mlT70ewjafdjwPwJ4qikbQRQx2sQSegOQB9D+VcH4r8PWzTNLp75unPNrGudx6k4H3fqcCulRL25Um9m8lSCfJtyeB6F+CeOwxT7e1itoylqfJDHOCobcfcnk/iaHqDPHnV1JRwUIOCpHIPfjtTSikAAcjuB1r0fxF4bbVka4igiW5AGHjbG846EEfrmvPbiCWyuGguI2ilU4ZWGMf0qGrARhGHAY56ge9FIpZuVBx3J6CikBYMQwASST1AOMVGQ0WAjBx6Ec/nSeaW4VQSOpJxSgO2QWwD6cD86dhWaHC4QYBG055BGTTnlMgwisQfUYFMACEEAD36k0pcscZI56ClYV0IY2wCzH6Af1poVo2BUBx7jkVISq5JYEZ4yaZvDD5VJ55J4FA1ckSWM8DKkdjwaf9oQd8E8YHP6VX2b+XbIHOB0qVAiDK/L74osLQkEzEfIAvPBfj9KY6ylsynzQeg6fiB0NPQ88nI7mlMioMnAGe5oC7HR3KgBQRGcfdcY/KpsknJcA4z061Te48xcKgYHuRgfrTFhABDOSDyVU4HtQJpFp50GUVizZxhSScVXkecgFV2jOTzk4/lSgBQQFAIHTGMf400OduM5Gen9KYKy2L+n3MCSbnIWUkANJ1Hqc/4V0NvIXIZSADzuByD7CuVhlAUK+NuckHoKsxSozFbLzQ5GA6MVQeuQev4CgVjsI5ieSTgcgAYP5Ug1ZC+20RriQcYT7oPux4H6msWG2aQA3U5mJ6oPlUn6Dk/jWxbMkYCqAoAIVRwB7UwEW/cL/wATSK5jUH7sYJiAz3ZeSPXIArXs721lWNbRo2RQcCMggH0wO/1qrHKCpBIJHU/Uc/hTZLSzuWDSQRmRR8rj5W/MYP61RVzV8wFipOcDGc808TBMsxAUDJJIAH+FcyZ54pmi0i6kuZBwySgOiDpy/BHsASavR2Ekkgl1K4+0uMBYlBWJCO+M/MehyaB3LUmsO6FLCJ5UzzMFPlr78ct9B+dZmo6NaaxGWmvPO1Aj5WbC7evAXsPrk+9bS8KACu0YyOn4ChxHOQZY0cDgblBx+NAHllzBNZXDQToUdTggjGR7Giu61bw1bahATEXikXOzaxK/iD0GfSip5RHnrorAk9QeMdabuMWdwBHY5waZiQ5y20dODS7VUgHJPqeaQ9h+8EAqCfcUp3E8kAHsP8aRTkEjn1BpcgAigVw2KRjbnPc9abteM/Kdw9DSlucnAHvQGY/cGR78CgNRVlUnBG0+h4pS43ADknAwOc00puA3HPHAHAFKPkOAOPagHYerO5IBC+3U4pxgQgNubeOhPP55pvBUYJA6ZFAbJOQMnjp1oFcd+8izuVZEP90f0pu9XI2kkgdOmPwoM6g434weg5JqF90xyVCjrkjmgq3ckLhSckce/SmM7vwg465IwKcsSgbjliR1PUmnFgTgYIPGAMUCulsRNC2QS24k9COK0YbswjbJGVA6lRkEVSBAAIJJHOcdKswONwGck89cZP1/pQJu+5s29zG2GR1OMcjn/JrUhkUkAH5RjHqeK5dmgkAGz990Aj4b1znoPxq5bpLytxcMEJACqcHHoSMZ/CmTaxvjUI2cwQqZpQcEJg7fqegqGSPUZ3zOIXgH/LvHIVyPdsc/TgU22KQxhUQKvGABjPvVoSjABJwe1MOYkj1OC3jSKaJrNRxh0AUAdgRkVfiuVdTIjq6HJDAgg8e1U1YHBwDzjBAx+NRyWULklAYX5PmRHaf04P4igaZqCcE5yTgA8etDyJEpkkYKAMktgAAeprnLjUru0v4rW3K37EZKDCuh9SRxj8quRwPclX1B1lkB4t1P7tPr/ePuePamPUlu7+/uosabCTCeGmY4JGedoON31PH1oq4JCy/MRkcAdhRQFzy4SEYV+ue/Q0/AJGcHvUbOCCAuR6ngU1FGcMx/A8VJpa5KXUDHU+g603LEY+6O3c0gGMYAHf60uQOehHekLQYVIO4MSR608TEcMMH1xxS9+DketIQCB3B9qAuSAjqSSccY70dVGAcZ55qAZXAQ5OelKdzcMdo9AOaAcV3JGlVSAMnngCmuXbJ4UHoO9KoUZwME9Kd8p6ggjpzxQF7bEalY2+dc+4qcPuU7QMd8HHFRk5HPI96YQo5QkN6jpQG+5MSSATjGe1JkYPJyR1pnnsBsdQc9CP8ACmks54+UYxk9SKBco9nUHnJJ7Co2kfgcqp545NOCKgGOfWkBIOcD0oHoXrOWNQQoHTBB6mr6OjKoB5zwD2xWOIkYDHysB1B5zU8bXMQJGJFHGDwRmmRJJ7G7C4MisrMScDb2Pqc+lXo5GA47Y6+vpWBbaiokCudjAkFX4wPTNSnVHOYrZPNkI5I4VeepoI5Wbct5DawmaaRVGe/Un0A71lnU59RmEHmGytsZ3Pw7gjoM8UkFookWe7kM0+CcH7q+wH9a0JFhkQLMgaMkkgjI6Ux3SLdtawWaKtvEEAALc5LH1J7k1OkgXBG3OegP9ax1sBEd9rO8IxkRsSyE+4PI/Cn/AGu5gz9ott+f+WkBJAH0PIoA2fNIJOASx69hRVG2v4JyAkqsQBlejfTHXNFAzgs846gdKQkE8Zz60ueT0yPSkBOMk8UjYeCRn096QnOCTgd6ZnJBBz704DJ559qBWDeckAZx3ozkgsSfUDvQU4ypA7kZpoPPTFIa1RKGAwFxg+3SjgcjGT3powOTS5AHHJoJsOHJyOR7UEgc84A7U3cAOSAfWm7yT8o+p7UBZjmPByRim4ZuQMD1NNIKnLDPvUm7cBtIwO1MewBMHJ5PqTSseQOPamnJHBGc9KMsOP6UCsOBycnJzQAAOR345o6jgcDrSMcEZ7cZoESKcHJyMdfSpBMsWWYkgjAAPWqrSEngE+hpYSpf5uSOmaB8ttS0Ee8xuARBzgcsa0odkEShEVCDhgDk8dz6mqEcjE5wdw7+lSRvl+A2AcnHf0yaDNts1FZQN3LE5wTVpZSXABwSAee3HastXOQSCR19BmrEZKkEEZPXHXNMzZoeY3lgAsAOeOp/OpDKpUBiQoGQD1/OqPms+0AsSCSeOv50XF3HCqZBeRhhEHUkngUDRYufskiia4RVCgHIOCPTkc5oqrDbN5q3FyVZwTtQfdT6ep96KB3SOVXdggHFKAMc5JpM8c0ZOeTxSOl6i8U7IAJx3603tRkD6+9BNmPyeRkYxxxTSATyMnHUUA4PIzSFwQMDmgEmJkqM9RShiThQTmgKScE8e1PyBgCgbY1UBPOSR2NPyAcDg0gPJ479KOpPYUE6sXdng4P1prIucg4NKcY5FIAc9eMUAlYQOVGCMj1xRkHnOTSkkDOQQfWo8ZPAx9KC0rj2cAYyfoO9NOWALHA9BRgcGlOM4HNAhVIHQcUuA3GP1ppI49acGwOgNAh4MkSgK2QRkg1JHcrkIRtGfSowQQODyfwp4CtwwyMYFBLa6l5ZSG2jk9sHIqcTFSAo3YOSQe9ZIWSIkxtkAcg9KfHLLckKgCADBOen0oJcFuXxc4bZCvmTEngk4Uep9qkWyjIJlLSSnBaQHoR2HoO1QxKkMeEzljyT1JqwHG5VIIIB4pohu2wqrdpLmKTzFXokpwQPQGinhwg3gjJJA4yB+FFArnN8/wD16CfbmiikdYZ9aCefU0UUDQKCeTxS4GeP0oooJuKDyAOOOtHU9MUUUCFBPb9KTp1OKKKBCjJB5ppOAeOaKKBpCYyRnilHGQDxmiigbBjk0gzmiigAznigEjgUUUAhytxxj8afvwMk44oooE1qIpMp5zt6Yz1qyCUXavyjOcUUUGciVZCBggD0x1NSI7MoY/KCCMk0UUEEsZHzEyALwB6k0UUUCP/Z;" vertex="1" parent="1">
          <mxGeometry x="478" y="470" width="30" height="30" as="geometry" />
        </mxCell>
        <mxCell id="9ybyBgt4PyTuUXgcpJM6-99" value="" style="endArrow=block;html=1;rounded=0;endFill=1;entryX=0.5;entryY=1;entryDx=0;entryDy=0;exitX=0.5;exitY=0;exitDx=0;exitDy=0;" edge="1" parent="1" source="9ybyBgt4PyTuUXgcpJM6-98" target="9ybyBgt4PyTuUXgcpJM6-83">
          <mxGeometry width="50" height="50" relative="1" as="geometry">
            <mxPoint x="463" y="500" as="sourcePoint" />
            <mxPoint x="463" y="410" as="targetPoint" />
          </mxGeometry>
        </mxCell>
        <mxCell id="9ybyBgt4PyTuUXgcpJM6-100" value="" style="shape=image;verticalLabelPosition=bottom;labelBackgroundColor=default;verticalAlign=top;aspect=fixed;imageAspect=0;image=data:image/jpeg,/9j/4AAQSkZJRgABAQAAAQABAAD/2wBDAAgGBgcGBQgHBwcJCQgKDBQNDAsLDBkSEw8UHRofHh0aHBwgJC4nICIsIxwcKDcpLDAxNDQ0Hyc5PTgyPC4zNDL/2wBDAQkJCQwLDBgNDRgyIRwhMjIyMjIyMjIyMjIyMjIyMjIyMjIyMjIyMjIyMjIyMjIyMjIyMjIyMjIyMjIyMjIyMjL/wAARCADIAMgDASIAAhEBAxEB/8QAHwAAAQUBAQEBAQEAAAAAAAAAAAECAwQFBgcICQoL/8QAtRAAAgEDAwIEAwUFBAQAAAF9AQIDAAQRBRIhMUEGE1FhByJxFDKBkaEII0KxwRVS0fAkM2JyggkKFhcYGRolJicoKSo0NTY3ODk6Q0RFRkdISUpTVFVWV1hZWmNkZWZnaGlqc3R1dnd4eXqDhIWGh4iJipKTlJWWl5iZmqKjpKWmp6ipqrKztLW2t7i5usLDxMXGx8jJytLT1NXW19jZ2uHi4+Tl5ufo6erx8vP09fb3+Pn6/8QAHwEAAwEBAQEBAQEBAQAAAAAAAAECAwQFBgcICQoL/8QAtREAAgECBAQDBAcFBAQAAQJ3AAECAxEEBSExBhJBUQdhcRMiMoEIFEKRobHBCSMzUvAVYnLRChYkNOEl8RcYGRomJygpKjU2Nzg5OkNERUZHSElKU1RVVldYWVpjZGVmZ2hpanN0dXZ3eHl6goOEhYaHiImKkpOUlZaXmJmaoqOkpaanqKmqsrO0tba3uLm6wsPExcbHyMnK0tPU1dbX2Nna4uPk5ebn6Onq8vP09fb3+Pn6/9oADAMBAAIRAxEAPwDzjFLg07HNGK7DyxuM0hHFPwc0EHHJoAjI4xTGGD3qUimkZ6UAREHPWmkDBqQj1ph96AGEHNNI4zUgHNBB7GgCHB9KUKcnIqXac0u3rzQO5Dt45703HUYNTstN28mgRCRSEVKVpMUDuRYoxUpFNIyKAuR4596Qg4p+Oc0mO1AyMjpSYp7CkxQO5Higg0/GKMUBcZg4op+KKAubdAHrTsCjFBA3GaCKfikwDQBG3FNI6mpCKYR2oAiPXim4596kIpMZ60ANxjFKACKXFKBxwKAG4x6UuPajFOFAERFIB1qQjmjFAERXHWk296lxTSBQBERTD1xipWwM1ERzQA00hGc0pHNGKAGEc0Yp+PSjHGaAGEH0oIFPIxTSMUAMNFLRQUbuPejFKOaXFBI09Kb0pxHFNI4zmgBrVGetPJycUw9aOgCdulJj1paXHFCAMU4AUmKcBigBu2kANPoNAEZBNG2nkcUhoAYR7Uxhj6VIelRtwKAIm6moz1qRhkmm45oAbgYpME9KfijGPSgBmMdqMfjTiM59qD0oAYRSEZPFO6mk6GgBuAO9FKcUUDNvFLg5oBpcmgQ3FNbgYp5HtTGoAiPSme1PbpTKXUAAGeacBgU0DJ608A00wFAzQRgU6kIzQA2inEYpp6UAB6U057GlNNoAQnPFRNUhH4U0jjrQBERzzTcVIR1pMYHSgBuMc0Hgc0uCfpSMCTjrQA3NJjmnUh6c8UAMz2pKXFJ+BoAaRk0UGigZugU7BNIBTwOKBDccc8VE9SsRioWOaGBG1JgGnY9aQCjQAAANPUUgAp44oQCHijHalIGeaTIzQA00hPanHBFMNACE8etM7U89fpSAZo9AEIyaaQOlPIpMChXAjI4ppHNSY6009KAGEZPFIcDFPxTGIxjFADCDnJ7U08045P0ppz24oAbTSfYU7mkIoAbRS4xRQM38cUvQcUUGgRG1RsMmpG70zGe9J6gNxilwfWlwaAOPWgBMU6kxS00AhPNNJ70pB60nbFJu4CUYoxS0AMwKMU7Aox70IBp6UmPSnEDpmmEn1p3AQ0xuTinc4NN9aLgNNNbvT8c8U0jqaAIzkACm4zUhGOKYR/OgBpGR6U0496eeKYeOlADScHoaKDz0ooGdCRikqQjnFMIzQIjYU3FSEUzFK4CAc80uKBTh1p3AZjFJinkck0hzRcBh6Uh7U8immiwDcUuKKXBpAJQeBSke9NIJpoBh5FNxUhBpu2kAwimnpUhFNI9qa2AYelIRxinEE9aQjihMCMimkEVIR6UjDNAEJximH3qRhzTSDQAyilI796KB3OjYc5puMU8jmkxz1pBYjYc0wjAqUgd6YR+VAhuKMU7FBoATHNIR3FO7dKMHFAEZH40hHtUgGTTtlNMCMLjnFLt9qk2560pAAoAgK47U1hU7AYqJh1oAixzRinkc9KQ/jmk7AMPHSmGpCRg0w9afQBmDTSKeRimGkA3HWkPanU1jTAjYc9KYwp560w0AMIopSKKBnSkc03Ap5GaTFIBhGTTcc4qQikIosBHtpAM1IQelG32oCwwDJp2KcF5p2zoadrBYYFwOKAvvUm3tS7cdqErARgYpCDmpCOKbgA9KAIyM0wipSB6VGwoBkTD0FMIqUjjpTCDRYRHjOaYRzUuOvFMYe1FgIzSEcU8imn2FICM8Uxs+lSNTD0pgMI/OmYNPxyabigBpoo7+1FA7nTEcUmPSpMYFJjjNAEeKQgZqQjimUANAp4AzQOuKVetAC7PSl29qecAe9JnmgAwMUzHvUmRim4BoAjIGKbT2AppGRQAwim7akx2pD3oAjZcDkVERmpmHpTMYoYiFgQKjIGetTMajYc0XAjamn3p5GKY3rSAYwz0pnrUhHFR4oTAYR6daaeh9aeQM0mMHmmAzHQ0UpGaKBnUUmKUmmlsdaAuMPXBNNpWOaTNAaC8U4HBpufWgnpQGg8nNAIFMBPpS8nsaAHA5oyabkj1pM0AOzTTzxRnn0pKAEzxSE8UucdaaTk0ANJ5pjelONNbOaBEbdaYakbvTCKLARsOMUzFPNIcelGgER64xTDxUpFMIGc0gGEdwKaeKd0NIRzTAYRzRS4zRQOxk/wBpTlgFuZ8nj/WH/GlW+uXORdTgA9TIf8aj/s9g5IdM+4P+FOWyeNcAq3pwef0rzubsztsuw43d0zhVu5iT2EhNPjnvXUMLuYKehLmoo7ZnLEK6sRj7pqU5RVUqQAMAkYzQ5S6MVl2D7TdiQJ9rmZsZwHJwKdE97MoZbqYA8glyMimqAd5UYLrg/SrSABQMDAAA4xjFQ5yWzHaPYgeS8DlBdTM2M4VzwPWmob+RQ32ydUIyCZCMirYg3CQA4MgAJx2qaaLJHQjGOO2KTqTta4JR7GWz3xYhLuZiBk4kPA9+aIxqMjIouZyz4KguQTn8asyJhWCgDdjPvg1qaTaqw+1uAZCSqkHoBwa1pOc2lcmbjFbF+zjkgs4o5XMkir8zEkknOep61MTml6nmjHpXoJW2OW9xtIRTsUYoExmKawzzTyDSMBQIhYDmo264qYjrUZHNAEeKQipMdiKNtAELDHWo2BNTstMI9qQEJByaQjmpSB0puDTuAwLRTyKKAKRSbAPncZ44/wDr0GKZgMTjpzx0/WiivJsdogilAOJgQOvB/wAaa0EjqNzrgc8rn+tFFAXIJY3QDayZPH3On61EPtCj/XAZ/wBnP86KKZRN5s4UAS8/7opTLcHgzj/vkCiikFiKRpMEm4P/AHyKda317CBDHcgKCTygPXrRRVRk1sJq5b/tHUAMi5BPugqM6tqI/wCXhfxjFFFWqk+4uREZ1zURnE8Z/wC2Yq7pl1quoXAJmVYEOXcRDn2Hv/Kiit6UpSlqzOpZRukdAR78UxhRRXUc5GR1ppAoooEJikI5oopgMYVGw44oopMCM0CiiktwGk0UUUxn/9k=;" vertex="1" parent="1">
          <mxGeometry x="518" y="470" width="30" height="30" as="geometry" />
        </mxCell>
        <mxCell id="9ybyBgt4PyTuUXgcpJM6-101" value="" style="endArrow=block;html=1;rounded=0;endFill=1;entryX=0.5;entryY=1;entryDx=0;entryDy=0;exitX=0.5;exitY=0;exitDx=0;exitDy=0;" edge="1" parent="1" source="9ybyBgt4PyTuUXgcpJM6-100" target="9ybyBgt4PyTuUXgcpJM6-86">
          <mxGeometry width="50" height="50" relative="1" as="geometry">
            <mxPoint x="503" y="500" as="sourcePoint" />
            <mxPoint x="503" y="410" as="targetPoint" />
          </mxGeometry>
        </mxCell>
        <mxCell id="9ybyBgt4PyTuUXgcpJM6-102" value="" style="shape=image;verticalLabelPosition=bottom;labelBackgroundColor=default;verticalAlign=top;aspect=fixed;imageAspect=0;image=data:image/jpeg,/9j/4AAQSkZJRgABAQAAAQABAAD/2wBDAAgGBgcGBQgHBwcJCQgKDBQNDAsLDBkSEw8UHRofHh0aHBwgJC4nICIsIxwcKDcpLDAxNDQ0Hyc5PTgyPC4zNDL/2wBDAQkJCQwLDBgNDRgyIRwhMjIyMjIyMjIyMjIyMjIyMjIyMjIyMjIyMjIyMjIyMjIyMjIyMjIyMjIyMjIyMjIyMjL/wAARCADIAMgDASIAAhEBAxEB/8QAHwAAAQUBAQEBAQEAAAAAAAAAAAECAwQFBgcICQoL/8QAtRAAAgEDAwIEAwUFBAQAAAF9AQIDAAQRBRIhMUEGE1FhByJxFDKBkaEII0KxwRVS0fAkM2JyggkKFhcYGRolJicoKSo0NTY3ODk6Q0RFRkdISUpTVFVWV1hZWmNkZWZnaGlqc3R1dnd4eXqDhIWGh4iJipKTlJWWl5iZmqKjpKWmp6ipqrKztLW2t7i5usLDxMXGx8jJytLT1NXW19jZ2uHi4+Tl5ufo6erx8vP09fb3+Pn6/8QAHwEAAwEBAQEBAQEBAQAAAAAAAAECAwQFBgcICQoL/8QAtREAAgECBAQDBAcFBAQAAQJ3AAECAxEEBSExBhJBUQdhcRMiMoEIFEKRobHBCSMzUvAVYnLRChYkNOEl8RcYGRomJygpKjU2Nzg5OkNERUZHSElKU1RVVldYWVpjZGVmZ2hpanN0dXZ3eHl6goOEhYaHiImKkpOUlZaXmJmaoqOkpaanqKmqsrO0tba3uLm6wsPExcbHyMnK0tPU1dbX2Nna4uPk5ebn6Onq8vP09fb3+Pn6/9oADAMBAAIRAxEAPwDyTzXyOB+VO85sDJUZ9qgM5MZO0ZA9agy+cAkE88VzoysjQSUHKhh+FO3nHY+nFUo5tkf3STnknvSSXTFSFBBJwDmkFiVpAWOTz7ChcHOSePaqeXLYJIPfFTibYoBBP9abQWJjgHI5/CkYK2CTj6Cq7ys5CqCCQSajBcHlmwOwNPlAtbI+csfxpMKOQc1F5vPCk1G8hbIGRgZPvSsFi0GO3gHHqBmoGkUsRk4z0xUO9xjJbGemafbrJczrDGjPI5wFHU1ajfYGrajo4jNIqIjMzEAAA5Oa7yK3itoFhiXaijAA/n9aq6ZpEWnR72Iedh8zensPar5rtpQ5Vc5Zz5nboMIzTT1wacRzTD0rQzGkcVGQc9qlJ4phI6UXEN4xg0wj0OaeSKYSOaAGnp61E3WnsSe9RE0AIQOeKYTilZs0wnJpANJOaKaeTRTGZWxeQpyOwxTBGpIPGPlqwYyeVAB9zTBG6gDy84xj5vSvOsdlyAxh9ygsOcYApoClSFwAoxgjB471OysnO0DJyeTQg3LjYMkHOCRU3sNMhCgSAY6E/wAqUIA3KsS2Dx2PtV1VBIwpznPJ74xQYH3DnPOcE96LiuVSoJjYAD5sZ+tNSMBjkZ4Hf3NWmgfaeAwBBxmkSBiQQuMnBy3vmgOYoiEF9xYAAnIwefypXQZAODwQCO9W3gKBgoxg92P41CYmQ52qwGeCSOtCYXIFQYbPqD+ldX4d02CC1W8ADzSgnJH3RkjA/qa5TZKSQqgcDoc8V1vh/wA5dPXzJFZMkIoGCoB5ye/NdNBamdV6Gw3Gf5VETzTmJI61ExNdRzgx96jL44oJJNMNACFj3ppJzSt6U00WEITTGNOamN3pANY8VESakbpUdADTTD1p570zFADTjPFFHeimO5UbeM5QgZxnHH500lsgZAx29a0bhFUkSEsR2BwBVVpowQAqDnpgmvMUmddinKNwBznB54qW3tJXUMFIUHrwK07W2N2zeTCS6YJ28g5q+ulXBHMUgPYADis5TZSizHW2dCDgk/hUotpmwRGSCOORWoNNuUPEEhHU5Ap/2a5GAYmGeBxUqoxuJjG2nAOIyD2ORTkgmI+ZMEd84rRkZY3ZXcBl6jPIzVWacFCEJIPTAq1Nk8qM27EiEnYCCegI/SqriTblhtzyM1daOQfvXfaTyCBkj2AqoxBJxySeS5yfypqTGkQu7Ft6sq8YPHBq9Ya4lnaiHymkYMSCDjJOOBweaou5HRlPtg102j6OltGl1PEPtLDIBOQg7Y9z610UFJszqWS1NIZZAxBGQDg9RkdKaRjIFStyKYwPWu05iIjmo2HepippChNAFcgdaCMDoan8s5pfKyMmgCmwOKbj1qyyAdqjZetJsRXIpjAVOwwKhIzQBGRjIqM1IQTmmkU7AMxzRSkZNFAyrO7vKXYAHBGB0FRHYBjaOxznnNWJEJnCjqScZ+lRmLEgBBwDgkdK86J1NnR+EgZZbxQAOEPT0JFdT5BHTOfpXL+DyE1O5TBAMWR6HDD/ABrsjIFGcce9YVF7xvD4So0TAEkZAFY2oXYhzFEwMmPmbqFH+NbjC61S4FhYKHuWBOAQNoAJPXjOBWHZ6S8xWV1IjJJGeuc4P1PvWew3rsZdtpz3DF2yASCSef8A9ZrH1NZba4nSJyAshUZ5wMDAr0L7Osce1VAA6YFcdr8IF5ccdWU/mP8A61OO5LVjnEu53ieKRgQBgHHOOeM1EWycDgBs9PerccG9pAQSdpIFV9jAkYxyP1FdETNkGSCTjPX+deiWrCWygkwPmjU/oK8/aPkktzyeB7V32kDdo9qewQD8iRXXQe5jVJNhJoKHBzU5UCmsBXQYlfZQE9qlIwaaeAaBkZAFNY54pWOc0xqBXI2qJh1qRjUZ6ZxQIgcHpUZBqcimEUAQEdaaR3qYr601gBQBHg0Up4B5xj1ooAbJEA7MAAScnP0NR4Uq27g7RjHrVm4cI5GMk4wAO3NUi4IBx2zXnx2Op7mx4bl8rVCSeDGw5HsD/StvUtV8k+TDhrhhwOoUep965CKaWMloWKyYO0g89K6fwdpDag7XlyxYggnJ+Zic8n8uPpWVRe8a09jc0WwliAl3ujEZZwcEkjnBFak8KqqAAAAYAHarSqkERJwqqPToBWJc6uDOh3LsJIK55x3I9cVnPY2joPlQYIArkdehIupCRwY1IPrg4rtHTPJ5Fcz4ijxMpA6xkD8DSiRU2OPUBJHIGMqRnHvWeSSSeTkgj8q05QQ5JGcc1msCGbIPQDA/Gto7mKEckgcAHPX1yK7Xw65fRYgeqsy4+hz/AFriSC7DJKjHXHTFdj4acHTpF67ZCR+IH+FdVD4jKrsjWIyRgGmvTycdBTDyea6jEYT/ACqJyTUpBphHrTAhOec1GQSanKgc03AzSEQFM800p61ORkY6VGwoAhYCoiOafNIkSF5HVFHUsQBWJd6/EoK2qGQ9nfhfwHU1LmkVGEpbGo5ABZiAB1JOAKyrrWraIlYczOOMjhR+Pf8ACsS5vZ7tszyFh2UcKPoBVccjgcVjKs3sbwopass3N9PdE+ZIQp6IpwB/j+NFVSSODjAorK7NkkdleECUEk4GPyz/APXqvhCM5HQ5wc96lvgTdEDBGAQCeOoqBY8AAse/AFTHYyZa07H9rWwYAgyqCD0IJwf0Neo6GiLcXCqFUALgKMAAEgV5Mh8q5hcE5V1IP0I5r1Lw1Iz382453R/yI/xoktUyqb1sTa7IYbJ1UkM7hR+f/wCquJjt4kvrmMAs8QZldjkgMMEA+2P1rtfEaMbfcoLGOQsQO/Gf6VyNgJZ7lmEDKkykZY5O4sOPbgn8q5Zas3Z1kQJtYieSUUn64Fc94jTiEjnhgfyFdOwAUKvAAx9PSuf8QoBbxN/t4P4inEUtjhplBkGT1B/lWXKQjsAfXjHXk1p3eQT64xWPK+6Yk9wR/WtY7mKJ0RIkx5gJIPBPtW94RlBju48ngqeT65rlSATkZINTR393YQ77KUxvIQrkAEkdR1FbwfLK4pQclY9I69ifpULSoD99f++hXnLanfTti4vbh8n7ocgfpUscasgOxRn/AGat17PYj2Pmd8ZUx/rEH/AhTTKhPEiY/wB4VwJRASMJnvkUx0UHGEH1FH1jyD2J3/mIeA6n/gQprMn99T/wIV56yAAkqAPpioyBjIA/Kq9v5B7HzPQZrm3toy80yIo7lhXP3viZQSlnFnP/AC0kGB+A6/nXN5GcgD64oyDxz+VTKtKWxUaMVuS3FzPdybp5WkbtnoPoOgqEkA8k0mCTkZxS4z1NZ77mghAI4zSbeaeAAOhzSEHrwKLDuIVAIooHUZ5ooA7S+iJud27ACjj8ai2DOOe9XL4AHOMkgiqhYYOW5zjr7dKUdjFkLxkkDoCOvp3r03wsQbtD/ejPf6GvOJNv2cFTl8d+legeEJg89p1+ZcZ/4Cf8KJbIqn8R0t7bpN5kTjIJzwcEHsRVBbCKBS4ALA5HAAB78DvWvcgCVvQgfyrL1C8htoG3sNwGQuQD+PoPesJJK50ELkBSWOAByTxisbWwsumCVCGTepBHQjJGap3GozXscxGG2A7YwSFJ7Z9any8/hYO4AcKM4PGQ3b2qY7kSejOHvF/fYI6tj9ay541ilUbcnIB9eg/wrZv02zEk8hs/rWTeECfcSOoOB17g1qtzIr5GB0OOoNVbkYUkcAYz+eKtEgZ75HFVbsgo2Sc44rQcdysHAOUzn1Iq1bkuW3uxOMjmqY6elWbUjzOSSMcgUWRciYxAEEMefzqNogGyW5+tTllB+bcB2zT0CuvfPfNGhF2UnjyOuajZcLjP4Cr0kYIOBUDR89KFYZVxg496fgdac6gfWkDqACeOOhplChc+1KEApBIvY5P0pC7E8A4+lK4rMcw4wOpqMKM4Jzj0pDuJyc0gJBzRqOxOAOAKKQc8/SimSdpqQyygnjBOPXg1TQBWJxwCCQB7Vo30W+RST0yKrpCoz1PAJpLVGbKsj5JAGBk4GK7nwWGEenyHjBAx68Ef1rjpYF2kgEAtiux8IMEs7QZOFmx/48P8aUloVDc6DW9WaKR1hBXD+WzEcgjGSPQAHOTXKK8ktm8dxmSQMwkLAEMSeCfcAjitfXot+rXMQBJMwOB2BVTn9KxraCUC5XJxIeCRnnJBH1IArB6mrZm2COtuFkG5gxKkHORzgfpiuj09GfwxOGUggycHvznNSWGhzuoMg8uMqMBxyD34FbBsY4LGSGMHBRupyScU4x0JPL9UUgsTnJ5/SsG/AEpyOR79eT/jXSaoh2E+1YepxohU8ElM5PPOFq0QigowM9QDwDUEyZye2DgY6VZm2hRtYknrk9KYxO0E85HI/GtEykZuflA6jvVq3dAACgJ79zVUjk/WprcfMKdrlS0LFw4WI7FAA9QOKqfaJRkByKvyxBlCs2AcAnGcDPXFZ0qCOUqrBgDwwGMj1o8hxehNGbiTBDEA9yRWhb6TfXSBkDbD1ckKv5mq+j2sF3frFcTxwRhSxeTJHHbA5Jrs4b3w3p0KRkXF6V6KVMcY+g5OKxqSa2Gkcbf2BsJUjaVJCyliUyQOenOM/WqbAhenJ9RW94l1iHVZrYQ20EEcIYBYkIOCR1J5PSsaUg4I6d60g246kvc6/TvB1tLZQXMs7MJIw4CggYIz1rRTRPD1suZ4lZhxh3P8ga5Oxvro2ccYmcRoCoAOBjPSrkcqhgXlVSTyc5JrklGV9y7mtd2ug7GEGmqSQQHJIAOOvWuSvdM+zRiRZS4BwcjHX9K6Yz2kIJaVM+pIJrL1XUrWW3eFHDMcYx6g5qqXMmJmEvpRTselFdZmegXYG8HGTmqikBc+oFXL44z2+YDis1XIXJU9O/Woi9DN7ksjAZGRyQa6PwvIotVBYArPwM89VNcfMf37Eb8gAjqcjmuj8NDdbu+cbZQSPXIB/pTk9Co7ne32jSXOrTTswWJipVs5J+UA8dunerlppltZqfKiAYkkueTk9TmtSbadgJGTyB3xj0poXnpjjgmpskbGfsx/OmNGCpBHUEfpUenSy3IkMrAsrEcDHHIq/wCSFAzTWqA8g1aParKevI/U1ialEGtIWI5Izn2Kg/0rqNchCTTqQPlkYfrXM6kxOnWwBGAADx7sB/IVKMepnLHuAJwCQCRjj6VPMkTQMqqAcAggdPWqUZYINpwA2DgE1PIWIJBOSOmKoZiSqUldeuCcVJb439D3ptyCLhie+DS22DIAeORVrYuWxqPETCXwCBkEE/59azr1ds68YBUEDj+laZBEeAeCAf0rOvgA0RAwCvSl1FAZZZN5EFBJLYAHU5rae0nwT5MuAOcqf8Kx9Om+zanazZx5cyNnOOARmvWbzXLUn7Osiu0gOFzkMB1//VWsKCnqRUqOL0PLLyFkCMykAnr61W42nj9a6DxDMJ7UlURI/MJRQegBI6dq54ZIyCMVDjyuxUXzK5YtJJBC6pAZFBycA4Bx3IrZt1M2nmQRCMHgj1P4dqwoLye3hmhimeNJQA6gkBvr9K3NIkI0t0ZgQG4we2P/AK1ZVYJJSRRhXhIkwqge4HNVlUswAyWJ4AGc1dvRiX2zj+lU1Yo2VJBxjINXAosgDA57ZopEIKg89KKdjI9A1AgFuccjH1qgNpQEEnGc4/rVzUlLo4DYIwc1nwEbeDn1rNbCe4yUKuWYMQAMHPX6Cug8LklbpGyMgEA9eQf/AK1YsgbBxjG3gY5ro/CcqveXagA/u1P6kf1pO447npbDN9p7nGWhIJ9eAavhO2B1qkRxpL+ox+aitMCrRqc9o6AXF2nHDnP5mtR0BGAOCaz9NATWb+MjGWJA/GtbYCD79+9KHwgzyzxLEF1C8UDgSEj8a5K8QHS4mOSATkA9cPj+td14rgCavdjBwwBH5VxF3FI+kSBVLeWzkYHuh/xqepj1MJJDggKBg8nGR+pqQmQjLBT0GcDp2qMQygyApnknr6GrK20rKSQqjaCDuzgfSqHoYl4pFxzgEjkVFAcSjmrWpxNFMpcdc4P41TQ4cH3q1sX0N6MExgkZGcfzFZl+MFOMYJH61qQMTCAQPxPTnr+tZl+CCBjHP9KXUmJTHXOM4qY3krMWdiXHKnPQ/wCFQ89aaTkkGrTa2LaT3LkUzS2lwrtyApUY75qNQNuMdqS1IPnKTyUJ/I0JyMdqL3d2Ta2xDICDnmtTR5cRToSTwCBn6is2XkDHaptPkKyuCeCv8jUTXusvdEt+QXJHTNUGAzirdy+aqH170o7AixF/qwaKSE/u+vINFWQz0G+IWOUnpsz/ACqhbuBEpB56gH61e1AAhgTxtNZ8bKBkjoMfWsb6EdR8wDjJHJB7461qeEn2axOMEZgzn6Mv+NUOq5IJHqTxWn4YC/24wJIzAwxnnAwf6UrlJanqatv0vSZQSNsgBz+I/pW5twOaxVAPh+1YdEmGP++jW8ATWsVqaGBboF8UXIxyyk/oDWyU46VlMNnixc9HT+n/ANatvb160obAzzrxjF/xOCegaEH8q5G2tlk0u/VgcqzAY90J/wDZa7zxnFjUbd+zREfkTXGWBAOoQkE7ymAOxIYE/rQtzCW5yZTMrjPGSBj061YWMODjILIRkde1VHuVaRflx8oPX1H/ANapraV/3ZIABUg8+3X9KmTGkZXiCIoY24wWI/SsRSNw9M1va9Ir26AYyGGTn2rnweQauGxpFaHQWbIYgWPQZ/Tt+VUNSIMhK55OeansiTGMHPAGM47kVVv4yhBwQD6ml1FHcp9M0mefWlpuMVZRJC4STc2cFSDinIQBnJpkJxKvOMnFKDgkZzg0CYSkHgU2Ftj557ilfp1pgyCMUFLYld8/So26DjrQwOcmkzSsCJIOSQKKW2wZcc9KKLktHod+MySKfRh/OsdGAYgEcgitvUwE1CZD2Zxj6E1zMU7F+CePSsjLqbK/KozwccHrV3QXI1+HB4KSA8dflJ/pWNHcllUAnoR1xzWhoE4fxJp65ySxDfirCpW5aZ7LAQ3hZiOdshI/MH+tdDEd0Sn1UH9K57Tlz4ZuVJHByPyBrfszutIT6oD+lbQ3NDHvhs8TWTf3lA/nW5g4rH1YbNY01z0LY/X/AOvW3jqDRHdgzi/GsX7yyYd9y1wVshS+uSMceUxz0x5gB/Rq9I8aoPslpJj7spH5gf4V54X8jUbjBGGt2yCOuCCP5VD3Mpbnn43G6UNtGBg46jBIH8qvW5wUB25DEdDzVXUnEGpTRg4KzSDIPo5/xFPiuWRWyxxvyM96mWorlfW8m3YfKQMEEA5HNc7zmuk1ScvbyJyRzzn1HpXN59a0hsbR2NrSiCQNwweCO/Uf41Y162SK3iZJA/IB9R1/wrMsGw2T15x+Wf6Ve1V8wEZ4BBxj39fxpP4iFuYw49qbmgUHrxWhpYVSA6n0INPfiRsHIzUQPOfSpGOWJAAzzQJiHvTM8/jTzUZ602CJHBpvb3pxOVFR9qQIkgOJlP4UUxTiRSOxBopA0ema+pTXLpcEHz3AGPc8frXLkrG0igADOBx0oorM53uMWYRFcsMDtitDQJz/AMJLpzKefPUEDvk4/rRRTaGe56FKZ9D1BGwCgAIHb5f/AK1adhqkSzadppVzNcWrTqwA2hUIBB5zn5hiiinE1uN8QkR3GnueMTY/UVtkgE/WiinDdlXOa8Zgf2KrZxtmB/Q15sitea6tvCheSSGUBQMknYSP1AoorOfxGczjPFFu1jrl1HOhRzMxwRjqAf6/pWP9tiCMCwPTHHeiitElYSRBPcq6EAk57561nUUVRrHYsWzhGBJxg9/oa0bu4SezIyuccAH6UUUmQ9zH/SiiimaCc089qKKAYmaaaKKAQ7Py02iigEANFFFBR//Z;" vertex="1" parent="1">
          <mxGeometry x="558" y="470" width="30" height="30" as="geometry" />
        </mxCell>
        <mxCell id="9ybyBgt4PyTuUXgcpJM6-103" value="" style="shape=image;verticalLabelPosition=bottom;labelBackgroundColor=default;verticalAlign=top;aspect=fixed;imageAspect=0;image=data:image/jpeg,/9j/4AAQSkZJRgABAQAAAQABAAD/2wBDAAgGBgcGBQgHBwcJCQgKDBQNDAsLDBkSEw8UHRofHh0aHBwgJC4nICIsIxwcKDcpLDAxNDQ0Hyc5PTgyPC4zNDL/2wBDAQkJCQwLDBgNDRgyIRwhMjIyMjIyMjIyMjIyMjIyMjIyMjIyMjIyMjIyMjIyMjIyMjIyMjIyMjIyMjIyMjIyMjL/wAARCADIAMgDASIAAhEBAxEB/8QAHwAAAQUBAQEBAQEAAAAAAAAAAAECAwQFBgcICQoL/8QAtRAAAgEDAwIEAwUFBAQAAAF9AQIDAAQRBRIhMUEGE1FhByJxFDKBkaEII0KxwRVS0fAkM2JyggkKFhcYGRolJicoKSo0NTY3ODk6Q0RFRkdISUpTVFVWV1hZWmNkZWZnaGlqc3R1dnd4eXqDhIWGh4iJipKTlJWWl5iZmqKjpKWmp6ipqrKztLW2t7i5usLDxMXGx8jJytLT1NXW19jZ2uHi4+Tl5ufo6erx8vP09fb3+Pn6/8QAHwEAAwEBAQEBAQEBAQAAAAAAAAECAwQFBgcICQoL/8QAtREAAgECBAQDBAcFBAQAAQJ3AAECAxEEBSExBhJBUQdhcRMiMoEIFEKRobHBCSMzUvAVYnLRChYkNOEl8RcYGRomJygpKjU2Nzg5OkNERUZHSElKU1RVVldYWVpjZGVmZ2hpanN0dXZ3eHl6goOEhYaHiImKkpOUlZaXmJmaoqOkpaanqKmqsrO0tba3uLm6wsPExcbHyMnK0tPU1dbX2Nna4uPk5ebn6Onq8vP09fb3+Pn6/9oADAMBAAIRAxEAPwDnbjSLqHUbu9dQZpHLW5kkICkk5JBHUA8ehrhb6ZjqVwYtwjDlQrtk4Bxye59692l8KRFv3epXCj3AIqnL4PLk41EMevzwKwpKLOflZ4YxJPAb3+YYojmlikDxlldSCCGwQexr2pvBkylitzaZYFT/AKMASD1BwelUpPAbDcFWxyVIBETDGfTqM0NPsKz7HH2niG5TRr68bxU0F9IqlLMLIASvBDcFTuXPXoe4rs/DfiJta1DwxINqyNp93ay/OAFcEYJ9AcAjPqfSs/8A4QC6jUlZ4MHsY1bH5rU8PhbW7SJo7a+hjRyCyC3jwxHTIwM0rPsUrmpbeENegVMXttIVYMC1ySQR6ZzXdaa2oRWCDUQslwpO542BDDse3NeXyaL4njAKX0BAPBFmp/kaeIfGMa4F9bfjY/4GlFcuw02d14hiPiHS306FJY5GYMryxME4PPIGM1meHPDE+hR388rWzXkx2xSiQgBMZ2nI455yOtcZdv4yRCDqcSjphLVhj6GsZ73xUAyPrkgBPOUbH609L3tqS31Y34g6NqFhaJqOpXFrJNd3JjjEMhbagXJOT7kCvPs5PQH8a6u5i1CeAw3N2kuH3A5KkEjB4PGOBVF7C5JwXLf8DB/KmCmloYeCAMke2DSEdTx+BrbSC+txIsLOokXa4BByPSqj206YZkf6lQf6UylURQBIP071KquY2dUcopG5gpIGfU4wKnKyjIPH1jH+FPjubuK3kt47hkhlIMkY4V8dMgcHHvQ0HMmUMAkAckmpbuznsrgwXKbJQASNwPBGRyCRUvmyjjbCfrGD/SmmR+nlQfhGB/KnYakQLgA5wT2ppyTmrHmEA/uYj/wAU3eB1hjP/AT/AI0D5iHpzSHnnFT+ane3jOfYj+tN8xD/AMsUAHoT/jSHcjzxjFKEZlYqpIUZJAyAPenb4+f3Qz7MaQlOyH/vo0DTI8YNFPyn9wj/AIFRQO7Ppg3LgZDnp2FJ9rZf4j14OKpuRGB8jHPoMmo1dTyFdTnuADincg0ftpAAOQM4zinfbg2c5x0GBWYxXBIOe5JFMMinHJOexH/16Lg3Y2FukYY3jjjGKBcKRy6YOePesjzeADjgdjmgykADk88DH+FK4XNgyKQOEyecDvRlQPm2/gSKxllYg7WIGeR6UvnSISwY59cf1oC5qMynI3DPY5IH61GygqcEn0ORj8zWW95IpyAWPrkGojeylgWYge46UhNo0HghkX5kifucqP1NV30qzfJFlayev7oAD8cVWkvZSfmIx2Of6Ugv3Khd+R6CmLQbLoOlScDTrdm77RtA/KqsvhXS3IVLNwT1KykAfTmr6XbFSuAozk8YJpy3AXJLDJ4znH609SWomFP4P0w/Kq3aEdWD5z+YqrL4KsHYKtxcoo/vKp/pXUR3O0nDEjuRj+dKZwGyHz3weaLsVkcXJ4HsjKQt84HPJhH+NU38CZYhLyM8cboyP5Gu6dwW3fICe5H9KjY7ySFXPqVwP1p3CyPPW8DXYJ2ywNj/AGiP5iqj+DtSAJWJGx6Sj+tejvtzyAT/ALJwBUbqp6kgjgYPP5UXC3meYyeFtTQEm1lbHZSG/kaovo96hINpcDHrEa9WdGzkswx3yAaiJkfoWPvgg/zouguzyZrGdMkxSDHXKEf0qFomB5GPrXrDmXcRkMe5wRj6mq8qHJ/dxsTnAOMn8xSdgU2jyzZg9vzor0mW2iYEtawEAZJMQ4/EUUD9ody90IGCs9wxPGNvH5YJqJ7l2kBVHUZ6sQDj1wcU42sKKW+0sMDuSBn1yP8AGs2YW7sAyQyEHO9GO769al3Ro2abXalthVm46kAj9BSCQEDEZGPQf44rPjgkR+BeFDyFDAAfj1q8Y2CgsDtxyHOT+lPUVx/mjcAAAcc5IB/SlBzkEMR78gfnUKSxsQqkg9sLgH6ZqTYpJ3AHucNk/XmlcADDpjGOwP8AhUZLEcEY+h4/OnFRyVRmHuSBUbl0UkGONexByR+eKBClJT90EnvnJH6AVG6kfeJGPoP/AK9MMm44LySEddhIH4kHH60FSASEKn1JBpiFygPMbHI9cg/nQ7xqMgKPbPIqBpFBALMSe3NRtvONuUHqec/gM0xNk7TqRnDEe+AKjDoc4IX2C5OahYqBtklDH04H6Uu9sHaAB1JII/lQSTghjkA9OrHH6U1nxxv56YHaqksoQZkYEE98gfpTfNYj5FIBGQSSB+R5p3AsGV8nBVT3yQTUf2h+cBpCO+Rj/AVXKAnc7l+OhHyj3wP600yZIVVVx0yOAD/n0oFctmaQjLkKO4BHH41Gt3KQViUFem/OB+fU1UWN+sgDsPQYH4DP602SVwpMcasx6ZOBnpQBce5WNQ0zkkdScY/Af5NNN0ZR8x2A8YJ+Y/4D9aoIhAzLIZH6klcAewHYUyaQAhEXczHA4OB7k9hQ0K7Reku4YQsa4LN91FPJ9z6D3ojZVJdmVnYYJPQew9qoRosQJOGkbG5j1Pt7D2qK7nZECRKDNIcICeB6k+wHNFguX5JhNPsUDy0ILkdz2H9TRVFP3UaooIA7kck9yfc0UWFc9AZ1nQqiLIAcECPj8zxTFtmQgJFEmD1ABI/DpWdHe63DbhiLPUYD910YxyEeuOVP5ikt9f0qabZdXMlpP08m6Hl49cdiPfJqbpm90aMnkk7WnkZ+hRCD+GB0/GqsmnSEHyXkAPJLScD8P/1VZ+2qyj7MnmIeQ6oQhHrnHP4ZqCe5lA+UnHUiPGfzPP6U3YCs9tNApEtyCpGMMwUf4/rRGJFT5HXB6bl4P4k5NTKFMYOArHuWJY/icn8qeXbgCJGAB5kP9MZNQ43AhMdwSCXKgjkRr/XJpoCJyUDkd3BY/XJqYIZCSZVUHsDwB9AahZFVipmRmA6KpJx+H9aLNAK0rnJZRGgIwS2c/gOB+dRO6gEM6OvX5220Nbkx5BUEjIB6g/Tp/OqbDyJAPspkOCfNBBx64zTv3EXGfKgxISDxkHA/lUMgY5DkY6YQYP51T+1TvIVjkcHOcGPAH49BSob4sRMQVB48vByPc9vyoTE2SENEp8oIPQFcn6cHNNjkmZT5wRCOmDnPv7fSpNikYwykdTnB/wDr1EXUsVSVmdTgqMHHsT0BqhAIo8lyC79cscn8PT8Kja5XcVjTzG6Eg4A+p/wokhMhzMGZQfugAA/X1oDADbyADwNvAoENcluqMwByFIOP0qOa4jiiLykIg7kk9+gGOfYCop7xRP5NunnTjBYAEBB6se306n0pEAB3vIWc8ncpAU+w7D360ITGOJJQN6GOIgYAB3H6kdPp1qQNGoCggADAGBx9Kk3huVwSPQ4zVK6uGMgghx5vVnJBWMep9Sew/HpTELPMzfurcAyHqxHCD1OD19BSqnlRgBmJAyWIBJPqeetEMaRKFTJJJJIbliepPqajnSSRNpyFzkbhn+RoFcV51RGeQ7VUbiSpGAO9RW8zyxCVwBvGQuOQvYfXuaqsonuBAATFFh5RyAW6heT07kfSrrZCncnJHUqD/KjcGBdgDgAEc5NFQ+UCwYsVHsWFFAhJbDxF4bQTWsym2J5MLGRfbK9Bn2qa08R6ZeRiPWbNpJMEGWUeYOeuM8r+FZscmvy2/wBvsrZkhYEM0P3SB3KgnH5CsUrNdTO8iF5TyyrgE+vy8ZrLbY0O/sriEOBoWtEE8iCRt6H2weV/WtJtdvLaMjU7Fgg63FoRIo9yOo/KvNbfUFtSFkhDopyMqVdD6hhyPxyK1IfGV1FJ8ii6jIwfOADD23Dg/lTTsNN7noljd6fdxk2lxG5IyQB8w+vQ5pWv4lcxQYlZSA2CQqj3J4/AZrz37Zo2oEz3sbwTEc/ZfkCn1I/i+v6VvWmqXdtAv2KYajbKOFC4dRxxgf8A16fMPmOkkUOCSyEHsoGD+Jqv5EZAChVAOMLgfh71Qttf027cRzyLBMfvRyrtOav+QrlSGYRnnEb8H6nPT6UXTHuNa5W1kaKIh3wMpuIx9SeB+ear3MK3ODPc7QDkLCcD8T1NXsrGgRIyq9cBcj696rypbA5ZIlOepUA5ptAZT2VvONqXTFhkgkdPeqF1aG0mSJLppJ2BKxIDk+55wB7nArSuFOT9lTyI2BLzA/NgegPHPqenpSQva2yOsODIxJYuQSx9yeT/AEqbIl2IFt7lYw13d7UUEmOMnB9i3U/hij+0LCJBGNgQHAUA4Hv0oknnbKmzRlPJKnjmqc1tZPw9vIkxOQisck+uTwB7ngU9egtS1/aNiFZ/NUIBkkE5/nzSA3V22Y2eCAnI3Eb3HtkfKP1+lVLTTrS2kWe4ZWkByoLAqn09T7/lVx2y6mJ0Ckcgk5P45qugaEqwJEuyONkGSfk7nuT6n3NBIwQWIHTDDNMV5iwXfxzznOaqTSTySm1jYouP3k6g5X1AB4J/lQLce9wJpWt4grumPMdVyEz0HoT7dqWMwwxlI22KTkhlIJJPJJPWlt4orWNIrdgijkDgknuSepPvT2Z9xJZWB9iOlAhpKP0aNueMYBzWfeyi3ZILcM1xPkIpYkD1Y+gFW55Yo43lliQqoLEggkYFVLBDIj36xJG8+Am4ElYwOM4PBJyT+FAJLclggjS3WNAjkcs7HliepPuaeYlAO4Y9MNxj8aUuxIBRCRyQMgn9KikdAMOhUnoAeT+tMTIrkRW1vJKu8bUJGTkH0BoqC7lj+02dtmRjJKCYyMAgZOeR0yBRRYdvIxLHVr3S5fNs7hoSDkgMcH6g8GtZvEOnayANVsfKn4Au7fCnI7kd6pavoAsFE8MjXVq4ysm0gj6gcVj4BxsYk49jWaNNLHXLpTSr51sYdXtgMEAhZlH065quNFtr1mGmXflXC/etLtQrZ9AehrnI7iazkEsU7I45DISD+lX7jW59QhQXiKZFORcAYf8ATr+NGltRW0C9imsJvJvLUbx/Acgkeo9R7ip7RIWkElndyWswIxHOcZPsw4/AiqyarMFEc5a5jA/5aNlh9Ccmo7uWCX57eR07GOUA/qOtK1thWOuhvklxa6vGokJwrXCgq3uJBz+dXDp13bJv0y5MII4jd9yH8ccCuBTU7q2jMbMskJ6xuMqfwP8ASr9prU8uYVuTZwEAFSSQfUA8lR+dP1HytK7OjPimewke2vNPZpIwNz28gKAnoSecevr7Vo25t9VAuo9QjmlHATqsfrhTzn3PP0qhZTpbW6RJtt4WPG4BkbPU7u5Puc0lxoUNzIJoClvLnIkhJX9AcflTDmRonSpkU4lR1Y8hsgHP0qtJpQJDbiCMHBGcH1B/+tWc9xrmixG4uhHeWyHLMGwwHqe+PzqW38SW+quI43FmCvzM33mPQBew+pp8qC2lyzDJKEe3swjspIeZs7Yz7jufYfjVyC2McbRsscwcfvHduXOBkkdAOOgwKrvpqPGixyqioMAKMAZ+h5PvUH9lyo5AmBAwQFYg/rRbsS2EumQOwZYpYwD/AAEN09OmBVWSyMRLJO6uD0dSuOeOcYrTilePCOsxXGASmQMdyQefyqrNdvqLNa2DkIARNPgkIDxtAP8AEf060WQWRHE0l1E6K6qFIDTI3BzzgEd+n0Bq8CI0CpGQoGAFIoFsEtUtlCGFFCgEEcD+vvVCTTphIDE7r6DcCBRqLYlnWZwdkmCeQHQEfTNEYYIvmlc47HGKov8A2laqcFmGQckZ49afcX8otAmxHupCI0QY5J6HHXA5J+lMFqyFnbUbySBCTZwkecQMl26hR7cc1o7t+MjaOuBkYFVLVf7NtltUSNlU5ZhKASx6kg1NLqNupCuXTjII5H5jNPQG+w+RmQAqCwzjIYd/rUTHgF0AYngFQfzIpv2m1lOFnicjkDIBH580rhSpwW4HRGzQIqgCbWWZio+yw/LtGBljgjPrjtRUWluWtpbiQnM8xbkZyoGAf50UWG3qc/FfXVshSOdlQjlQSB+VQbzKdzITk9QKTymB3EhifUdKUsw4Kgn1BrM106DQFyCDgjpmnHcDwwOehIo3gnBH/fQ4pjGPB7E9getOwDg5Y7dpJAxkH+tKZFAGAcnuR0pELlcbgB2B7UZcAgjI9jQGgLGDhmbc35gU7ALDkA/lzSMUJwUK8dcUAKQSJCD2BOf50CtcsW93dWmTDIVBPK5BU/UGtO31+S3wwJgYc4XlG/4Ceh+lYmX6AqcfgajIYtlwc9M9QKAUV1OjbW/7TlVr/KwrjbCh+Rjnqwzk89uK1JYLLU0Hmwwu4wA8LBGH9DXF7lOAG5HrxSpcSRH927DBzweKLsOVnStb6tpB36fNPJCDzG4Bx7cE/pirVr4tieQx38TW7kAZCnGfoeRWdpmvKDi4Vyc9UY/nitHUr611TbY20IuJ5RkMUBEYHVj3yB2qkSt7NGhPeC+AgsHjZiMtIORGD3PqT2HrSQgWURto3hVVGAQSCSepJOQSTWG+i/Ygsmn37wyDGVlBUEj3xioE1aa2DRahblwxBMiMCcjv3FGqBrsa88N8cOVkJzgOrg5HtinJDKrBjdncOocEH9eM1JZanaXJRbW5HQDymAB//XWiQHBGOR14yKES1Yasq7c5BAHLZFZFqpubyTU2QMhzHbgcELnlufXoPam6kIJ7yGyLeWmS1w6gghR0GQOCaluL+1jULFKgCjChegHQAU/UNUtAvbeOdSGiZXA4IXIP5c1g3ELRSBGDDAwPTPpV+TUZiqukxBxypXAxn+dOGrkAieEMp5yABU6CTMqNEEgzEZF6gYOPwNXbmezt9Ml8hGjlK4UgnOSfXvV1JrK5A3wgMcAZUY56dKp38CtqdlaI21S+9kzkADnJ/KhIcdXdmjA8MEEcGSqooHIIzwOfzoqG8ni3sswkBYZBXgH6UU7sk5ljkjaceoJpCBgjHTqO1JdwzWNw9vMoEinB9T6H6VBhmADMMegNTaxuo9RzSjAVcZ9c8UBRjgZPUmlwo4GCe3FAQE5BwOnFANpbDhtwQCRRtABAOcUza3GGz7EUAle2fcUBa+xJgbck5PbFMYiQ7VAznkkcCkLGTgcL3Pr9KCqgAADp+NMErDwmFxuam4IPBBPvSYI5DEemeaMsDyA2fwoACTySuR7DIpBtOOxNKGH8Qx+FNZwegBPanYauwwQeG+mKntbuSzlLqoYk8nJB/A9qgC+vX2PSjkDg/gaQaPQ6i18SZQI8hIHGyYZ49iP61oR3Gk6ipR4YA55IYAE/QjGa4bkduacZZCoRmJUEHBp3JdPXQ6278KwP+8s3eBxyASSPbHcVRe+1rRcrPiWLOAX5B/Ec/nUdpqUJYBJ5LNgOAHLIT9DnFaEhkup7eW6l3wRMGKgAo2OhJHPX2qkTzNP3hNJ1i0+zsHk23UrmSQuMAnoACewGMfjVx7ixnciaFCAMElAcfQiqF/paaivmwQp5hP34WG0nvkHFYM1pfWJPmRyooOckHBpahZS1R1K2lhdR/uQFwcDBIx9RR/ZSDCxvvIyPnQHA+ormYtRBYCQFSBwUrTs9TYEASEqTkg8nFJW6kuLRpiyjtUaXyXbaM5RxkY6nB6/Ss3S2XUdYu7sgsiR7VDAZ54H6A1p392BpM8yEA7SAcA4zxWf4djMWmyzNGWWSTG5MEjA6EfjxTsrjVlFsuO1ouIncxkcKScj8OooonNrcqDKzJjoCNpz+I60UakBqVlptxbFH86C8JyZLoHLHHdumPocVyjxNFIUYHIOCQQR+Yr1AuHTYyqwIwQRkYPt3rH1Tw7ZXiF4EEMw4BQYBPuBxSaNU7HCsMqf5YpATgDPT9KsXthdWEpSVc4PB9aq7zkggk0i0rocWxnPX6UwHeeSAO4zjNKFJIJOSf0pcD0yKAVkh2QMAdCKTBBz1FN2jBwSDThnOAc96BC5yODmjOB0wabk4HUUmRjOc+1Ow0r6AxA9DntQowCT1oA7tyT09qU4x3B9BQF0tEGRjgUhz60bWAyCDmkx6gigNOgmTn2p3XPNIMcc0pI5PSkPUacY6CpYLma2OYpXQ9wDwfqKhwSc9KU5HvTsVurM04tYcEFkVXB/1kZKn8R0NasGvyZxNEZV6BkwTj3Fcv9RSqxVgVJBHTBwad2Zumuh17nSNTQhljWTocjawrMudAntiJbNywHO3OCP8ay1vJNu2ULIueNwyR+NWoL3YcxTyRH0LEg09GRaS2I57+6+ytZzKFyeWIIJ579jXRWV/B9it4YI84QeYIwD82OSRnP41gyX0slwIJFimDEAGQAEZ9xTrjSZUcvbMrEH+B+QfbODSS7Dkk1Z6HSfa7ZjhpApA4VxjP4GiubXU760dUu4zIowQJF5/Oii5HIzu0O5iy4PB6k9u9OBwuTjHX2+tVUkDMSVwBxjPH0rPae6vXeJAI7VlKmYHLHsdo7emegoGWL0xaonkW4jlY5BlJykZA4zjqT6CuX1bQpdPYPGS8ROMnqD74rpl0+CO3SO2aS3Cnkxtgk4xkjkEnHXFBS+i3b1hvBjABGx/T6E/lRYE7PQ4TjGOpoGMD1+taOq2aQTPIiSwgnPlyrggnrgjg1mgg9OPpUs0WqDJB4pScdhz703v/jSkgd6B2uwJUZNIBzuOAe1IMsc8Uu44wR+VO5VtLD+cc/nTSeeOaTKkdSD70oIyKCbC5wRx+lByDikOSeaM56GgNAIBxnFNIGcCnEgAnNNU9zR1KSsri4AFHal4PSmnIGO1ALuLRwRzR26UUBcTApOR3yKX2oakNArFWDDkjpnkVYivWSQNjBHdeDVUUtNNoJRT3Ohi1FriMK224HQoQA3/ANeiufV2RgykgjoQelFHMZOk+h1dnHPMpE0sv2bcCsb/AHmHoT1AP51rL1BBAA4AAwAPQVTRiCckEZ7DqalVzknHfjJ7U0Yt31LJZic5IU8DAFSBwo+UYAyeT39qqIY9wBPQcHPWgMHIJwpyQB14pgWZUWVCjhCG4IYZ49xXNavoIiUz2gJXklRzgeorf34GDyO2TnNO3r5e5yQoB6tx9aNGNSaZ59yOCM4NNAJPoK1rmzbUJ5p7OPECnBY8Bj3xWaymMlSCCOCDUtHSpq1uog4pcY74ppIzRnn1pCsxSAaQD0P4UuaM+gpj1AEjsDRuB69aXOaQ4AzigNGIeTjtS4pB70pxk80A9dhCAR0xRz2NL7UUAJk/WjPtS45ooCwnXnNB6CjAzmmnrQUrCgcHNGPelooFdiYooPXrRQM3X1OZZVVw0IAwAR1P171NbahLPOishI6MQOBTyNylWVWBGMEcfjUYs1jJ+zztCRyRjcp/A9KLanJozRO0qBgKMg5HB4qTdlsAYCjAOM9aynv57cFbmEHPAkXlSR6jtUSawSSdqsO+SQT70NhyvobfmDO0ELxwcdh1rIv7ufUGa2sULxj78g6fQHtTGvZL9hbWwKknMj/3V6GtBI4rW3EMKYReSc4LH1Pqae4/h33I4LuW2hSGfT3jiTj90dwHfJA5681QurOC+kaa0lTJOdmec/TqK2o5GHJDgE5PP5c1XuLO2u3kLIqyA/K6naR+PegFLU5aWF4XKuuCDjkYpmO4Nbt1pkrr+7l83HBEpAOfYjrWNLE8DlZEZD6EdfoaTRtCV9LkYPrRk9KKQGkVYXNISCcE8CgnrQAMc80XGkkKMfWjFJjnI/KjJHFMEhQOaWkyKB14OaAdwI54pSaM80hIOcUxJgab1NO6dab3qSlsLQDzRzSdaYLYXqaKKKQHQxliSI3OOpyMVIZAgwGJzjryT7UUVRxj95J3EHcOMEcEe9ZVzBBNNHDCu25ZsNt6AdyfpRRSZVPqaVpFHZo0cTbiTyx4JP8AhVlSzyBcgAnJI6D1oopkN3ZLGy+cVVl2jqcEUKW3FiOCTgnknFFFMQFEA3kuoBGTx1qK7gju42BQ4HRmIJJ+lFFAznr3TmtcEHIPpVI5HUUUVL3Omm21qJjJzTvpRRSLAUUUUwYcUmPQ0UUDDkckGjNFFAMD05pMUUUhrYWg9KKKYg9KKKKQH//Z;" vertex="1" parent="1">
          <mxGeometry x="598" y="470" width="30" height="30" as="geometry" />
        </mxCell>
        <mxCell id="9ybyBgt4PyTuUXgcpJM6-104" value="" style="endArrow=block;html=1;rounded=0;endFill=1;entryX=0.5;entryY=1;entryDx=0;entryDy=0;exitX=0.5;exitY=0;exitDx=0;exitDy=0;" edge="1" parent="1" source="9ybyBgt4PyTuUXgcpJM6-102" target="9ybyBgt4PyTuUXgcpJM6-65">
          <mxGeometry width="50" height="50" relative="1" as="geometry">
            <mxPoint x="543" y="500" as="sourcePoint" />
            <mxPoint x="543" y="410" as="targetPoint" />
          </mxGeometry>
        </mxCell>
        <mxCell id="9ybyBgt4PyTuUXgcpJM6-105" value="" style="endArrow=block;html=1;rounded=0;endFill=1;entryX=0.5;entryY=1;entryDx=0;entryDy=0;exitX=0.5;exitY=0;exitDx=0;exitDy=0;" edge="1" parent="1" source="9ybyBgt4PyTuUXgcpJM6-103" target="9ybyBgt4PyTuUXgcpJM6-62">
          <mxGeometry width="50" height="50" relative="1" as="geometry">
            <mxPoint x="583" y="500" as="sourcePoint" />
            <mxPoint x="583" y="410" as="targetPoint" />
          </mxGeometry>
        </mxCell>
        <mxCell id="9ybyBgt4PyTuUXgcpJM6-87" value="Linear Projection of Flattened Patches" style="rounded=1;whiteSpace=wrap;html=1;fontFamily=Times New Roman;fontSize=15;" vertex="1" parent="1">
          <mxGeometry x="270" y="420" width="370" height="30" as="geometry" />
        </mxCell>
        <mxCell id="9ybyBgt4PyTuUXgcpJM6-106" value="$$E_{CLS}$$" style="rounded=0;whiteSpace=wrap;html=1;fontSize=11;fillColor=#f8cecc;strokeColor=#b85450;" vertex="1" parent="1">
          <mxGeometry x="237" y="420" width="30" height="30" as="geometry" />
        </mxCell>
        <mxCell id="9ybyBgt4PyTuUXgcpJM6-107" value="" style="endArrow=block;html=1;rounded=0;endFill=1;entryX=0.5;entryY=1;entryDx=0;entryDy=0;exitX=0.5;exitY=0;exitDx=0;exitDy=0;" edge="1" parent="1" source="9ybyBgt4PyTuUXgcpJM6-106" target="9ybyBgt4PyTuUXgcpJM6-31">
          <mxGeometry width="50" height="50" relative="1" as="geometry">
            <mxPoint x="303" y="486" as="sourcePoint" />
            <mxPoint x="303" y="410" as="targetPoint" />
          </mxGeometry>
        </mxCell>
        <mxCell id="9ybyBgt4PyTuUXgcpJM6-108" value="" style="shape=image;verticalLabelPosition=bottom;labelBackgroundColor=default;verticalAlign=top;aspect=fixed;imageAspect=0;image=data:image/jpeg,/9j/4AAQSkZJRgABAQAAAQABAAD/2wBDAAgGBgcGBQgHBwcJCQgKDBQNDAsLDBkSEw8UHRofHh0aHBwgJC4nICIsIxwcKDcpLDAxNDQ0Hyc5PTgyPC4zNDL/2wBDAQkJCQwLDBgNDRgyIRwhMjIyMjIyMjIyMjIyMjIyMjIyMjIyMjIyMjIyMjIyMjIyMjIyMjIyMjIyMjIyMjIyMjL/wAARCAJsAmwDASIAAhEBAxEB/8QAHwAAAQUBAQEBAQEAAAAAAAAAAAECAwQFBgcICQoL/8QAtRAAAgEDAwIEAwUFBAQAAAF9AQIDAAQRBRIhMUEGE1FhByJxFDKBkaEII0KxwRVS0fAkM2JyggkKFhcYGRolJicoKSo0NTY3ODk6Q0RFRkdISUpTVFVWV1hZWmNkZWZnaGlqc3R1dnd4eXqDhIWGh4iJipKTlJWWl5iZmqKjpKWmp6ipqrKztLW2t7i5usLDxMXGx8jJytLT1NXW19jZ2uHi4+Tl5ufo6erx8vP09fb3+Pn6/8QAHwEAAwEBAQEBAQEBAQAAAAAAAAECAwQFBgcICQoL/8QAtREAAgECBAQDBAcFBAQAAQJ3AAECAxEEBSExBhJBUQdhcRMiMoEIFEKRobHBCSMzUvAVYnLRChYkNOEl8RcYGRomJygpKjU2Nzg5OkNERUZHSElKU1RVVldYWVpjZGVmZ2hpanN0dXZ3eHl6goOEhYaHiImKkpOUlZaXmJmaoqOkpaanqKmqsrO0tba3uLm6wsPExcbHyMnK0tPU1dbX2Nna4uPk5ebn6Onq8vP09fb3+Pn6/9oADAMBAAIRAxEAPwDxXGDSnijFLg10nLcaO/NKByaUCjFAXAelKKBgGlHNAgpcnPFLjj3oxQJsM8UvPajFHeiwNjs80tIBnmnCgkMUuKMc0uKYhMelFOowaLCbAClFAB7UuOaYXE5pwHYUY5pwHNMVxuPXNKBUgGeKUCiwmxgH4D1oAweOtPwO9GOeeaBCY4619p18XgcivtCsa3Q6cN1PmP4sDPxO1j/tj/6JSuNA5rtPiv8A8lM1j/tj/wCiUrjwK1j8KMJ/ExMU4CnAUuOKZAzFJj86kxijbmgBmKXFOxS4oAZSU/FGKAGYowKeFoIzQAzApMc1JikIoAZilxxTttKFoAQClIpwWnYoAiIoxUhFJigBmDTgBilxRg0AJSkUoGKXFAEeK+lfhX/yTbSf+23/AKOevm3FfSXws/5JvpP/AG2/9HPWdX4Tow/xHG/Hf/mAf9vH/tKvHcV7H8dv+YB/28f+0q8exTp/CiK3xsbRin4pMGrMhmOaaRUhFNIoAippHHNSEEU00ARkelMxUhGaMcUAREc0mCR0qXaaXbxQMi20hXvU5WmFaBERFJipitN20DIiKTFS4pCMUBcixRinEUYxQMjI5puKlxTMUDTGEUYNP20mKAuMwaMGpMUmKAuVPal70mKUVBsJjuKUUDvTsdwBQAgFLjGDRjmnY5oE2GPSlA4oABFKBQJsbg04Clx6UCmK4YpwHrQBTscdaBN2EHSnY4zR3pwFFiWxMcc0uKXBowc07BcTBzS4pwHtzSgetMVxMdqeBzQBTwPaktxXEwaUDA6dqcBilxTC40DnFLjtSkcinY9aBDAMGvs2vjYDmvsmsa3Q6sN1Pmf4rD/i5mr/APbH/wBEpXIAcV2XxVH/ABcrVv8Atj/6JSuQUVrH4UYT+JgB0pwHFKBgUopkDduaTBqTFLt4oAjxSbakIpMflQBHjmlxxTsCkwKAG0U7HNAoATtRinUYoAYRzSgUpHNKBQAUuKUAUuBQAzHNIBTzimkUAGKMe1GKXFABijFOHPSlxQBHX0j8Lf8AknGk/wDbb/0c9fOOK+j/AIXf8k50r/tt/wCjnrOr8J0Yf4jjvjr/AMwD/t4/9p149XsXxzGf7B/7eP8A2nXj+KdP4URW+NjaXFOxRVmRHimnmpCKYRQBGwxTCM1IRTaAGhaMU7FLigBu2gCnEUCgBpFMIqY9KbigCMrmmlamxTSKAIttNYYqUgYqJuaAGU09KcRSYoAaRSYp5FGKAGYox60/bSYoAZSU4000DKXPanCjGKXFQb3DHFLjFLQRzgUCbDFKM0AU4DB4oEIBx0pQBS45pQMUwDHoKAPWlAzRiglsAOOKdjmhRUgHPSgTY3FOApQMk1IqcZpiuMApcHGaeFyacE4xT6CIwppwUmnheMUYxxQFxoGakA5FAXmnY74osITGKUAdT1p2MijHtQAmBQBTgMnpS49BQAoFfYlfHqjIxjmvsKsa3Q6sN1Pmz4qDPxJ1b/tj/wCiUrkFHFdj8Ux/xcfVv+2P/olK5EDFax+FGE/iYYpcGlxTsUyBAKcBQOlOAoAYVpuKlIoIoAhIoK1Lt5pCtAEW2jBp+PajbQAzbSgcU7bQRQAzHNKBTsU4CgBtIRmnkCggUARkU3FS4zTSMUAMxThRS4oAAKXFKOlFACYr6N+F3/JOdK/7bf8Ao56+dMcV9F/C/wD5J1pX/bb/ANGvWdX4Tow/xHIfHIf8gH/t4/8AadeQ4r1744/8wH/t4/8AadeRYp0/hRFb42JTT1p+KaRzVmQh6VE1PPFMPSmA2iigVIABTgKAKUCmAFabtp9FADCDSbafjNGMUAMximkU80xqAIm6VE1St3qMigBtGKdijFADNpoxTqMYNADcU3FPam44oAbtowPWndqbQMpYzTsDNLjBp2KixrewzFLjBpccinAZphcaB3p2M0YpcUCAClx9KMUuKBNgB60oGelA7VIAMe9AmxgHNSKPSlAJ5p6imkS2Cr3xUgHtQo561IAKYhm0E07aB2p+3FOwcUARYoxipMetGOKGwGAU/BxS44pwGRRe4DAKUAmn4xRj0ov0AaBSgAmnge9GKHoAijBxX2BXyCBk19fVjW6HVhup84/FH/ko2q/9sf8A0SlcgOuK7D4oD/i42q/9sf8A0SlciK0jsjCfxMMcUoFAp1WQKBTtvNIvWpAMUgGheKCtPxRigCPbSbalxSY5oAhK80oWpCtJigCMrSEVJSEGgBmBTsUYpQKGA3FGKfijGaAI8c001KRUZGaAGY9KXFLinAc0AIBxS4pcUuCO9ADTX0X8MP8AknWlf9tv/Rr186HGa+i/hh/yTrSv+23/AKNes6vwnRh/iOQ+OH/MB/7eP/adeR44r1z44f8AMB/7eP8A2nXkmadP4URW+NjcUmKf1ppqzIibrUZqQ9ajPWkwG04AdqSnAUwFFLtpQMUtMBhop2KSkAlIeppe9NNACZIpjU80wj3oAiNNxUhFIRzQAzbRinUmCBQAwnmkPIp2KKAGdKQ0ppKAGmm4p1NoGV6fjFJjk06pNBuM0uO1KBS4xQJsQDvS4pccUYosK4ntTgM9uaMClAoBsMHNPWkAwaeoGaYmxwHHrTwKRQMVIBTRIAfhUijimqKcBg0rsB4AIp30pFHSngU0AzHfFGPapccUhFFgGAe1KB7U7FKBRYBuM9qXHtTgOaXFFgGYp2OOlLilUdjQwEA9q+u6+R8CvrisavQ6sN1PnT4n/wDJRdV/7Y/+ikrkce1dj8Tf+Sh6r/2y/wDRSVyOK0jsjCfxMZj2pw69KUijFWQOA5qQCmqKeBSGKAKCPanAUuBigCMD2oI704igCgLDMU3FSkUwigBoFIRTwKUrigREV9qAO1SYoxQAzFKBx0p2KAKBjCM0wrU1MNAEWKMU4ijFAgFBFLijFADMe1fRXww/5J1pX/bb/wBGvXzuRzX0R8MP+Sd6V/22/wDRr1nV+E6MP8RyHxw/5gP/AG8f+068kFeufG//AJgX/bx/7TryQCnT+FEVvjYYNNannio2NWZETVHUhGTTSKAE2inKKAKeBQAYop3UUnAFMBppKdkU00gGk0w9aeelNoAT1pMU/FJilqBGRTSKkIpDTAi7UgFPPWkOBQBGenFN6cU4nnim0ANNNNKc0lACGkp2KSgZDjmjBpehpce1SVcQU7GaMU5RTsDYYOKXFPCgmnbMUJXE2RY70Y4qXZkZo245oasIaB7inAemKAPyqQKM9OKLdQYKBkYJqQA8UigYp4HFO4gAxTxQAD2p2DSWoCgcU7HFIBwKeBxmnfoA4DijFABpccUANxQBg07HNLjkcUANxxS496dj2p232oAjxz1pcc0uOeaMc9aGrgKB1r62r5KHWvrWsavQ6sN1Pnj4m/8AJQ9V/wC2X/opK5Kuu+Jg/wCLh6of+uX/AKKSuTrWK91GE/iY0UuPagjNKBzTIFHWpFpgFSKKBi45p2KXFKBQAwikxTz0puKADFNxT6SgBgHNGM0YxTqAGYzRT6bigBtAFLg0YoAQim4qQikIoYERFNxU2KbihgNA4paXFJigQ0ivob4Y/wDJPNL/AO23/o16+e8V9C/DL/knul/9tf8A0a9Z1fhOjD/Ecj8bv+YF/wBvH/tOvJQOa9b+Nv8AzAv+3j/2nXklOn8KIrfGxGqI1IelMbrVtmRHjvRTsUY5pAJilFLigUIAPSm5pTTelNsBKKOppaQDcUmKdjNGKAEpCM07HvTT7GncBpGKYelOOaa1FwG009KeaaRxQBGetMqUjmmEZoAZikIxTsU080ANP403Psadmm4NAxv4UuO1Lj1pQO9JIbYD1xTgueRSgDpT1H5U7CuKq08DIoAxUijnmgQwJjtS7afjntS4pARbBSgc0/FGKAEUYHenqM4oxTlGDQAoFPAxwaQCnUAAAz1p4HFNHWpBwM0wAAkd6UAgc07PpS44ouAmOelAHNPA704A0DsMAxS4yOlPxRj3oCxEV9aNvNSFaTBzQIYAc19aV8nYPrX1jWNbodWG6nz18Sx/xcLVP+2X/opK5THtXWfEr/koWqf9sv8A0UlcrjitY/CjCfxMZilAp1OApkjQKetGKcBmgBwGadtI60LTutAEZ6Gkpx60maAG0U6kIoAYaKXpRxQAhpMUtKKAExRilxmlxQA0ikIp+KQigCMikqQim4ouAmKQinilxmmBERjFfQnwz/5J9pf/AG1/9GvXz6y19BfDT/kn2l/9tf8A0a9Y1djfD/Ecl8bBn+w/+3j/ANp15Ga9d+NfTQ/+2/8A7TryQiqp/CRW+NjDTMVJjFMIqjIYRTscUUtFwExSGnn7tNp3AbSd6dTTQA2lAooxmkAUUuKTGKAGk80winkGk20MBhFNqTbTSKEAzvTe9POaTFMBhFMIqQikxTAhNMNTMMVFikAyinEU3p0oGKBnvTgAB0pAPfk1IARRYQgXvinrweaUCnbcHJoAUCpAvHSmgVKBxRcBmOc4pwAx0pcUAUgGke1AFSY9aNp60ANC89KcB7UoFOx2oAaBxTsHFAHOMU4UAIo55p/bFJ6cUtGgDh1p4ODTBT15NAEijI6U5R7UIMnmpdopjIiPajHbFS7OKbtxQAzHHSkI9qkxSFeKAsR49q+r6+U8YFfVlY1uh1YfqfPvxK/5KDqn/bL/ANFJXLDFdV8Sf+Sgan/2y/8ARSVywHtWkdkYT+JjCMU4UHrSgVRAoGadigDFKBmgB4HFFFFADT1ptONNoAKyoNRmW/ezuIxnd8r+oPIP5VeuLuK2IEhYEjK4Gc1BqNtHJGkxXEsbDbhck/7PvnOKyqXteLKjbZlK9vpJkght3B88lcgc8HB4rYC7VCjoOBWLosJeY3FwkizK7omRgE9/+BYOK3sf5ApUr25mOVtkR4pQKgWeUX720sO0IWAJ6tg/yqyBwK0Ur7EtWEA5oIpRS8dzindiExSdaU8UlACY4pMU49KMGgBuKXFLRQgGMK+gPhr/AMk/0v8A7a/+jXr5/wAV9AfDX/kn+mf9tf8A0a9Z1djfD/Ecn8aumif9t/8A2nXkhFet/GkZGif9t/8A2nXkxFOHwk1vjYw9KZipSKYQO1WZDMc0Yp2KKBCYoxxR3pcZNADCKbj2qQilC0ARBc9qdt9qlC4pQopgQ7fakIqbAqNhQBCRSYqQjrTaGA0imGpDimNQgIzSYp+M0w0gGkUnelNIaYDG6UzFPNRmgBpFMxT6TFAxyjmpRgmmKPapFxnpQIUg44p6DIwaAARTlGKXUBQPXipAKbgZp6inYBwWjHHSngcUpGMelAEeOaeE+XNGPanJycdqLAMxgUYqVkI7cUzB9KGwExRjmlwc0uPakAAelLjFKAcUYoAMc05RgigD2p6jpQA9eDxU6CoVHNWVHagYYzSFcingGjHtTGRFSBTdtT7c9qaVoAixX1RXy1j2r6lrGt0OnD9TwD4kD/iv9T/7Zf8AopK5YV1fxH/5H3U/+2X/AKKSuWxWsdkYT+JiY5pcUYp2KZAgp2KMU7HtTAbjArHXUZYtbltZWBXgAAdPf681tEdKx7qxdLy5vg6EJGpXd35wR/WsaraV0UjUNJ+FR20plt0Y9SMmn1aaauSU9VXbbQTDG4SlMZGegPQ9aluImltcD/WKVcY6nHUD3x+tZ+t3KhoIBjcDuB9yf8K1Q2Uz6isY+9KRb0sZdhvubiNzbzRmF3Z3kY/MScAY9ea2VcRnzGGVQb+vHHNRI5keVmGP3h49aWaVILS5lfbkRHYG6Mx4Aq17kWG7Gz341nVDdC3jtxCWXYozy2Dkn17f/qqTBrG0SVvMlR87nO4k9zW0KVB3hcUtxMGsTWJ5xqEEUUm1EYMCvPzEY/qRW9ysU0mMiOJ3/IVyekW/2u+YySNiJg+09+/4DNKo25KKKitDpwCqgE5IHJ9aWlbrSVuZhSUtA5pAJ1opaSi4DSK9/wDht/yIGmf9tf8A0a9eAHkV7/8ADb/kQNM/7a/+jXrOpsb4f4jlPjR00T/tv/7TryfFesfGj/mCf9t//adeUYpw+Emt8bG4wKaRUhFJirsZEWM0hGKkxSbaAGYpwWnbacFp2Cwzbk0pXmpAuBQF9qLAR7aUjipMU0gUwI8UwrUpxjpTCKQERFRkVMRUbDmgREaQinkUhHtRYCOmd6kIpppARkU01IajpoCM00intTSKAGUlONJ9aBkgp4IHBFRjrTx160CJMinqcj8ajBJ46GnqRRbUCUDnNSKOOtMXmpVAzii4DlGBTgBigAik70MBcDNKBg8DNJmnA45oTAUcjHajYAadnvQxyc0MYzZnpSbealHSlK5GcUAR4owM0/FKBzR0AZinKKcBg0oHNIBygZqZTg9aiA9qkAwMjpTTAmpaap6U4kUFDgAeT0pSgI4oXnipFHFAFZ1Ar6gr5kkTmvpusa3Q6MP1PA/iOP8AivNS/wC2X/opK5bFdd8RFz461I/9cv8A0UlcpjmtY/CjCfxMaOtSbaAOakUZFMkj204DFSbKCtAEVZutXCwWLBusnyg9hWmRjNYHiGK4ntrgIVaKBFlZAMv3+YeoGOazqv3RxV2GgTmWGVC3yxjcPpWrnJHBx7Vw9rqctvGkETbWP3mI+vHuOf1ruSjRKikg/IpG36VjRqNe6y5wsziNTn36zMqyEosp28ep/wAK6WLUVWyDsh3Kgx6Hkj8OlcvqVrI2q3QzuRZM474PP9a3/Dt4y2rSyjejSCKSMjhkI5/HuPeslLlenU0nFWRfU3MNw8rIPssk3lKM87toJNN16R4/D7srFT567vlOD8rd+xz0rR1HSrvSbRI4h9oZLjc8KgkbSgIx6Ht+FUPEdso8K293dK6ySzSxIBLjDAjBI5zwCPxpqb5WhKHvI5Tw/cyrqsSeYQrHByfY12+5+m0H6GuH0KFv7ZhcgcZbA6Dt/Wu4V41ZTO4SPPzEckj0H1/rW1KSjFsVVLm0IdZeO08PSSTOY5LlhGi85KA/N098D8KwPD8zfbiFX5ZBhuecDvWfrOoy3jszFv3cpUDOcDJI/nRocEzSxSg7IzMqK2cbj1I+mOtZKTlLmKcLQO2NJT265pnWu05hCKUZpM0tABTSadTSKAEr6A+G3/IgaZ/21/8ARr14Bjmvf/hxx4B0z/tr/wCjXrKp8Jvh/iOU+M3/ADBP+2//ALTrynHNesfGUZ/sT/tv/wC068rxVU/hRNb42RkUhHFSEc0w9asyGYpQKWloAUKCKcFpydKCaAEC0MKUGg4oAYRTDipCBTOM0AMNNIzT8c0HpQBHtqNhzUzVGRQBEVqNhU7cCojzQIjPSmGn4pppAMNRsMVIaYwoAYaYf0p5FNx6UwGnrSCnU3FAx5GKdjmnMoJpMUxADTgfSmkHtSjNJgTqcYqZTkiqwPFSqaQFkHPejAPWmI3FP7g09AFwKUelA5HFH1oAXIpevSm09cnFAxVFS9qYven4yKQCYFLgUYx2zQAcHg07gGPalx60Ac9P0p4H+cUtQDFSIMjFR4PoaeuR60FD8YPFAFICScYpw9cH8qaAkXAqRTmoN1OD4NAErHPpX0vXzLvBr6arGt0OnD9Twz4hDPjjUf8Atl/6LWuVKjNdV8Qj/wAVzqI/65f+ikrlzitY7Iwn8TG4qWMc1DnmrMAywFMkWQFYXcKCVUkA9+Olcrc+JLiWBhBAkUvZi+7Hrxiu4EIAyenevNdQgFrq08EmzarkAH0PIP61z4mcoL3TWlFPcG17Vd203EP4IP8ACom1TUHkaR5IWLRmJgUGCp7dKgRFMWV27xIRx1IzU6qGZVdQV78VxutLZnQoIzPs7FANwIHQ5Gf5f55rUbWtSaTPnJ0CjCDGB+FVxB/rQgBcSkKcdqmMcmBujHGASPSpdRp3Hyp7ld7m7Z5pDOMzY34wN2PwptrcXVqpEUq4Y7iDg8/l7VK0ag3O3Hy4Kj8O1RsrhcYyaHJhyo0bjxNrFxKWa7RCSCfLG3oMdh6U271vVtR0uHTrqaGa3hbegdBuU45wcd81RSJWM+QOFBGc9akQOqFlwSfrRztBykVuLm2n81HAbOeB/wDWqzcXd9dACSdAACABx/SmDJnI3fLsBwSeuakMUvl5GM4yM0e0ewuVFBrTKsN45O45fqfXpVqKe9tVhSGZNsG7YMZAJ6np1p4i/fQqRwVJb3NS+W4TKhc44zR7SS2HZPcUazqbHHnRZ90H+FaMGszM0UbwIXOAW34ye/asXygGt9/XBMn+fxq5pSebqUS4G1NzHHt0/pWtOrNySM5042udMetJStTea9E4x3FLxTQDnoadj2oAQV7/APDj/kQtM/7a/wDo168Br374cf8AIhaZ/wBtf/Rr1nV+E3w/xHLfGT/mC/8Abf8A9p15ZXqfxk/5gv8A23/9p15WTTp/Cia3xsRulRU9mpmasyFFLTc0uaA0HhuKKjzTsn0oAdmgmk596TP1oAXNBNNzQaAEPWkzQaQnigBCaYacaYe9ADDUZqQ9KYetAhhqMipDTKAI2phqY0wikBF1pCKeRgU09KYDDSYp2KTbQMnHWhhg00E5pckj6UxLQQgDmgY7E0pwcUg4pAPB/OnKelNzSqaGBMhx0qUHJquDipVPIpATg4ox6dKYDnv1pwJxQMWnKeQKbQDQBKOtK6F43QMRlSAR2yOtMVqeD3zQM4y4/tK0naGa6mLKcAeYeR2I56UJLduqt9pmCscAmQ4z6da6HWdOW9gEykLNECVYngjqQf5isSO3HlshYlGIOMdDXDVbg9zqg1JarUM3aAEXMrEnGFkJI/WiKa5IXNzON33SXIB9uvWpo7dEYEMQQcinNbB43TPys+4YHIPfH41h7SW1yrR7EJF+ucXcrE9hITj9agNzehVYXc4VvukyEZ/Wrkdt5bhlOSDkVDLFlGU42lywAHQ+lNVJdWHLHsRx3d4CVaWdiOc+aen50kl/cnYwuJ0VgcHzTz+tM2hXBHJHIAGc0wxsUClCQGJGFPftVpvdsLR7Fg312V4u58gZ4kP+NR/2rcqAftc+DyP3h/xqPyXfgIVI9VP+FNNg4UEkEA5wFOf5U1LuwsuxIdWuxki7nPt5h/xr7ir4b+xKRjIBA5GCP6V9yVcXcuCXQ+VvjBqd1bfFPWo47iZFXyMBXwB+4jNcONcveMXM/wCMhrtPjHaeb8VNacHr5H/oiOuJW0wMYU/Uf/WqXNJ7ktK4461qBH/HzMTntIaUa7qyfdu7lf8AgVILXZ8wVR9P/wBVIYc8Y/z+VHtPMVl2J/8AhJ9bIwdQueP9v/61VFuLm9vg9zK0rNwWfknikeAqM8j/AD9KWz+W7QscDnr9KJSvEa8kW50aOE9T8wAyKhWSR9wzyDxWjOEaBWU/xjn1qr5KLI5VSQWBxg4xg5/WsE1Yeo0mSTYQdqnOB0o85iwKuSCMEe9WGj3RRgszNtPzbeAKfFbA7IzuGBySD83p/wDrovEepUkBU5BHGMj19qUptQqDuZ2xk/zqYWgQvvIJfODyaszRICroyk5JHPrRdC1MxVKgg7sEfePSpYzuGw8Ack+1TzREIVKkE9M59OTTBEudxV+oBPt/if5U20w1K0rbzlep9KQgs2Msdvp3NWlgVQpzk5JB7ZA4H509bYM+7d8p4zRdBqVEjlyfMYrsGTnvT2kkVAobLY5zUzxZkCj7oXjp1pvkEyBCCST8xAP6Urp6hqNix9nQkHOMHNZq3Fxbzu0UrITkfKccV09nAPsqZAPXqPeubuIyLubBP+sONo96ulIH5jv7Sv8Ap9qnP/bQ0LqN8uSZpz/wM0+KLeepyKtLaK2Mn6kn/wCtWjqeZGnYpjVLvP8Ax8S/9/DS/wBr3O3meX6iU1be0SMZMan6c/0pgs45AQVx+GP6Uc/mGnYjGqTscfaJxgZx5p5/Wvqj4QStN8LNGkZmYnz+WOT/AK+SvlwabGBkE+nU/wCFfUnwgj8r4W6Mnp5//o+SnGV2XC19Dhv2iLl7ceHNsrpu+1Z2sRn/AFVeHDUrkgEXM/PA/eH/ABr2/wDaKtzcL4cwwG37T1B/6ZV4aNPfKnehx2AP+FEpWe4pJXJTeXIXm8mH/bQ0i3V423F3Od3T5zTJLZ/ulSwPGVU1KkDxMHCsRt2gbannfRk2XYcZrxVLNeSgDr+8NNFzdsUAuJzu5HzHkUhw4KkcVPGu6Td/shRxUuUu47R7ATeohZryQDGf9YeBURkvmZQlzcAsMgbzyPWrbRrIpBHB61OkJLSMWHzAKM+1Sqk11C0exnOb1Fy19Ln08w1Hu1HOBcz9Nwy56fnV+SIFeV60yKJ7i6EWR+9IB+lOM5vS4PlS2LOiQ3jXPnzXEjwKCMM5O4/St/PFRwxJBCsUQwi8AVJivShGy1OSUrsbRTsUmKskZikIp+KTFIREy1GwxUxFRsKAIqTFPxRtoAiIphqcrUZWkBCQaaRUxFMI9KYEe2l20/FJigBuD+FLivsWisvbeR0/VfM+OsetAHPNfYtFL23kP6t5nx4BmlA45r7Coo9t5B9W8z5AHWng4PWvryil7XyD6t5nyMD0qQEZ5r61oo9r5B9W8z4w1S71GynzHIDA33SUBwfQmqI1nUCQPNQD1CCvt2is3JvY1VJJWZ8SDV9Q7Tqf+ACnf2zqKj/XIfYoK+2aKV5dx+yifEz6zqEsTI0ke1gQcRjOD+NVBPcJjEq8Dj5a+5KKlpy3Y1BI+G/MnY7/ADeSMfdoFzcp8vmDHb5RX3JRU8g+U+Iws0ig+eSDzgAU5kmBBLqffaK+2qKXs/MXIfEptXJBDqCDkHaKeY5QoG9OOM7Bn+dfa9FHsvMfKfFPlS4ADjA6fKKVUlyTv5HTIGK+1aKXsvMOU+KTBN1Ew/75Ffa1FFXCHKNKx8v/ABchkk+JusFZMD9zxj/pilcUsM4HM5r7VoqXTu73E4nxW0VwW/1/6VD5U/Tzzivtqil7LzFynxN9nnIwbpyP7tR/ZZo33LMOPXFfbtFP2b7j5T4o2Xm0Ymzn/ZFL/pwXHmqx91HFfa1FL2XmHKfF8T3m0LvUZ4OFFPklvoztDqf+ACvs2il7ELHxnuvj1eM/9sx/jULSXu4jdF9fL/8Ar19pUU/YhZnxhGb1jjdGSPVP/r091vVBPmR9P7n/ANevsyij2QWfc+MFS9wAZEGO2z/69M23gYtujOePuf8A16+0qKPYhyvufFzG7QABox2PyD/Ggfayo/eKP+ACvtGij2PmDi+58YqbxMDzxgdtoqs1hI5LGXnOTxX2vRT9l5i5H3PisQSxDInOPQijfcjP71f++f8A69falFL2T7j5T4oV7kNkzD8j/jTvNuRnbMv4gn+tfatFP2fmHKfFgmusjEyg/wC6f8a+oPhPu/4VnpG5tx/fZOP+mz12dFVGHK7glZ3PGPj6HJ8PbH2n/Se3/XKvFgkuSDPj8P8A69faFFKVO7uJxuz4uMMw5Mw/L/69HlzZwZAT9P8A69faNFL2XmHIfFJtmGcumT/sf/XqsRMW+V1AHouK+36Kfs/MOU+JEecHmb/x0U8TXHP74Af7or7Yopez8w5D4lZ5iOZ/yUVD500MyyR3Hzocj5RX3BRTUGuoch8WR6jqDICbkf8AfsUranqC/wDLwv8A37FfaVFX7/cn2SPiltZ1Ff8Al4T/AL9im/23qbMFEqMTwAIhzX2xRTvLuHskfJdhHdrbA3kgaZucBQNo9PerBFfVlFbKr5Gbw9+p8nsKYRzX1nRR7byF9W8z5KxQRxX1rRR7byD6t5nyQRxUZFfXdFHtvIPq3mfIB602vsGil7XyD6t5nx8elNzX2HRT9t5B9W8z5s/4Wp40/wCgz/5Kw/8AxFH/AAtPxp/0Gf8AyVh/+IrjA1PHNbcsexze0n3Ox/4Wl40/6DP/AJKw/wDxFL/wtLxn/wBBn/yVh/8AiK44daXvS5Y9iueXc7EfFLxn/wBBn/yVh/8AiKP+FpeM/wDoM/8AkrD/APEVyI5zS4pcq7Bzy7nWj4peMz/zGf8AyVh/+Ip3/C0fGX/QY/8AJaH/AOIrj8Uopcq7Bzy7nZD4n+MP+gx/5LQ//EU7/hZ/jD/oMf8AktD/APEVxnenCiy7Bzy7nYSfEzxi8TKmteW5HDi1hOPzSubm+L3xCt53hfxACyHBIs4P/iKrqazNV0n7Xme34m7r2f8A+vWdSGl0aU6jvZs2R8Y/H3fX/wDyTg/+Ipf+Fx+PieNe/wDJSD/4iuC5RirjBBwQeopC+DwMiubU6Ls9CHxf8fYydfHv/okH/wARSN8X/H4XP/CQD/wDg/8AiK4KKYHAb8DUpaJlwWxUtsep24+MXj3vr2f+3OD/AOIpG+MPj/Ixr2B/16Qf/EVwBdlOMg4qWKRH4cY9xTbdguz0CL4weOzjfrh/8BIP/iKk/wCFveOT/wAxz/yUg/8AiK4EOi9O1I1wynACn3rO77hdnoH/AAt3xzj/AJDn/kpB/wDEUf8AC3PHQOP7d6/9OkH/AMRXCwzqy4fAI9acZI89QcdxQ5PuGp3DfF3xyP8AmOf+SkH/AMRTR8X/ABwQT/bh/G0g/wDiK4VpuwGaWKePpIOe+aLvuO7O6Hxe8dE4Gu/+SkH/AMRX1JXxJK0DK2wgNjivtutKbb3HE8F+I3xF8V6D481LTdN1XyLOHyvLj+zxNjMSMeWUnqT3rlf+FveOf+g5/wCSkH/xFVfjHMU+KmtD08j/ANER1xKTo33+Kl3uS73O/Pxf8cg/8hzj/r0g/wDiKafjB46zxrvH/XpB/wDEVwZli6ZOagMuOBkihXYanoY+L/js4/4nvX/p0g/+Ipf+Fu+Ox117/wAlIP8A4iuDhmQrtdefrUvnw4wAPTrU3lcNTtv+Fv8Ajrj/AInv/kpB/wDEU4fF7x0Qf+J7/wCSkH/xFcAZ1DdCR61agvLbaA6fXNNuQanaf8Le8dj/AJjuf+3SD/4inN8XvHRPy63j/t0g/wDiK443VmQcJ+pqubiPsSaV2F2dwPi/46xzrXP/AF6Qf/EU8fF7xvnnWz/4CQf/ABFcOLy3QYMefU5NKLu1YHEePxNHMxanb/8AC3vG+eNcyPezg/8AiaP+FveOCP8AkNY/7dIf/iK4YTx57077VbbsYxz3Jp3Yrs7c/F7xuB/yG/8AyUh/+IpD8X/G+ONbP/gJD/8AEVxE1xEUO1cenWoFmVsZJpXY7s78fFzxyRn+3P8AyUg/+Io/4W744HXWz/4CQf8AxFcaLm1VQCOfxqG4njYBY1PPfNHMwuztx8X/ABx/0G//ACUg/wDiKePi146Iz/bf52sH/wARXnySAuMg4zWh50AGCPzo5mGp2Z+LPjhhhdcwfe1g/wDiKQfFfx5310fhaQf/ABFcJNOqsAg9+KYJycHJAp3YanfN8WPHQ/5jv/kpB/8AEVG3xc8coP8AkO5/7dIP/iK4QXCE4zk+majknycYxii77juzvh8X/HGR/wATvj/r0g/+Ir3z4daxe6/4D03U9Rm867m83zJNirnbK6jhQB0A7V8jRyDPzdMV9U/CAhvhboxXp+//APR8lXBu5S3Mb4xeMNb8J/2L/Y96bb7T5/m4iR923y8feU4+8enrXly/GDxsf+Y0T/26Qf8AxFdp+0KyqfDm7v8Aasf+Qq8MklCthKUm+YTvc9A/4W743J41ogf9esH/AMRT/wDhbnjf/oNcf9esP/xFecrKWYBjhfXNWfPjXvU3YtTupPi743Uca2c/9esH/wARUX/C3/HX/QcH/gJB/wDEVwM1xubaBwO9JG+fvAAU7sNT0H/hbnjvH/Ic/wDJSD/4ikHxd8dEf8hzn/r0g/8AiK4Uyp6ioDcNnKgYoTYXZ35+Lnj7/oPD/wABIP8A4ikPxc8fD/mPD/wEg/8AiK4NZSR82B9KPNXGd1F2F2d6Pi/46HXXf/JSD/4ikf4w+OgMjXf/ACVg/wDiK8+M7Bs4H0NI0wkGCFBz2FNX7hqd63xi8e9tex/26Qf/ABFaeh/FHx1fTSNP4gzHFgFRZwDJP/APavOtP06XUZvLhC7R99j0Uf412VnZQ2Fv5UI68s2OW+tdNGDbuzGpUtojrj8SPFv/AEFv/JeL/wCJpD8SfFo/5i3/AJLRf/E1y5ppro5V2MeeXc6g/Erxd/0Fv/JaL/4mmn4l+Lx/zF//ACWi/wDiK5emmjlj2Fzy7nUD4meL/wDoL/8AktF/8RQfiZ4wHTV//JaH/wCIrlDTTS5V2Dnl3Oq/4Wd4w/6C/wD5LQ//ABFNb4n+MR01j/yWh/8AiK5RjiomNHKuwc8u51p+KPjL/oM/+SsP/wARTT8UvGY/5jP/AJKw/wDxFciSKjZqXKuwc8u517fFTxmP+Yz/AOSsP/xFN/4Wt40/6DP/AJKw/wDxFccelN5quWPYOeXcQDmpA1MB5p2KozJc59KUZzUYGBTgefagESClxTQaeCKTYwoIpcYopAJ3pw6UlFIB44qRTUYpRQMytb0v7Sn2mDAkUZZf7/8A9esCOPIPtXWajcGCykbY7fKQdvbI6muWikAHII5HUVzVkk9DppSbjYPLC9u/akeJieVK++KcXyeG9ulSAlht3H8c1jc01GGHCKSOT2p0EQJzjkLUoILAFlBHrTkjwSNw6AVFw1I1i/eDCja3rRKgVuPTNTiFtuFYjnPSmSkZwWGQCDxSuGoyKIMGJPzAYpI0Ku/fBxUqBSr7Wzz2B9KjRhvPytn6U0GopUhcH0yMVGY/mbuelStKvJLdR0xUTkSZI3YznIFAXZAgIcgnv3FfdVfDkcBbneRz3Ffcdawdy4Hyn8Y1B+Kmse/kZ/78R1wipkZ7hRXf/GBQfinq+WxzD2/6YR1xCR8YBHQDpWbepL3KwjPygg4zyaeYx/OpzAeTkc/WmZXdtLjODyaL3ERMoDH1qJVBJDZA9atyQl+jA/SofKwM5JP0poLi7MLj2pjpkkADOak3qBkt2pGIY8Zwe4oQXIgm0/hU+zJHA7UwRknIPGKlVgMcjqOtJtBqHlDYoABJpqRYU7u3pViHc6gqwH405lIUncOnrQK7IDGc9O5pn2fADH09M1Nv7nHU96dk8Y49cGi4XZF5Q+X1460xVw+CKnCMOc96RV2kn5T+PvRoF2Me33Pn3xjNPSPDAHqM0r7hk7M5ppl2YypH4VVhajwikE+mKjdGZ1CjAI60qzKAR1zjjFOX5n6EE+oosg1DygG4IztomjJg47HFSbW9R0xUphZxt3Dk5paBdlMQ8BhgnuMU0Q4Ygd8dav8AksTnIx0xiozAd33gOnajQLlUwkofX1FfVPwgQR/C3RlByB5//o6SvmBozt2h1z9K+oPhGNvwv0cE5/1//o6SqhuXB6nDftDoWHhwjt9p/wDaVeGtGct64r3T9oRd3/COc4/4+f8A2lXh7cHB9D2oa1CT1IjHgZ9DgUwxtvJbGOwB71O21sgEnnP3aaQjkAgjB4+WpFchMYGeMDI4pwT93xjPvVhI0Y8t2HUGpPKATCgHr+VK6C5VSGNj1yDTTGfKAHbIqyEK8hec+lNK8lc4JJ4x7UXC5XkiwBjkk0gifYPMUjPtVoxFkDdgfQ81G4YMcA8HnA60XC5VKEAc9hU8GnyXt0lvDgMxJyew7mmOVWMctnHI21b0m4ki1SJ44WkPK7RxnNaQV5Ck2kdjY2UWn2iW8IyByWI5Y+pqZqUOSvNRs1d+2xx+YmaYTQWqMnNAAzimFqKaaAAtTSaKaelIQ0mo2anGmN1oAaTmmGnHpTWoAaeRTaU0lOwxMU4dKYpz1qQEVRI4Gngc0zIpw6UgsOwQacM0gNPGDSGKD60tN2+xpc0gH4zSbaVadSGMwaXJFSAZpClAGbf3kH2W4RZV37CNue/pXPhztAI5x6VsanpBdjc25w3V19R6j3rLAi9Gb3zXJWbvqdVJK2ggmUYJ7dqcroZCRjml8qEkFWwfRhV61dVIRoV5HDAZBrncjSwxQTggU7zDyoyK0FwCVIHscVMisBzg/wDAaych2Mvdxgfzpx46itBx1KIMjqDVV1JOcY9qOYOUqzPgAEcVVEyZrSbLrtYAjtVQ2iF2yQqgZ96cZrqHKRmeMjHGfXvSGaMA/Nwak+z2uOInPvinw2sXmDYykj+CQVfMhWEhDMuVBIPINfa1fKOnS+XAYdvlAHgAZANfV1aUpXuXFWPmL4tq3/Cy9XbHH7nk/wDXFK4qPljXrPxEyfHuprkMP3XHHH7pK5nyCeQAGrKU/eYnA48oxHSoChKZIHUc13AjyCM4NO8rK5wBik5CUDiPJkMZIHSqvnxrwW5FegMki4KrwT3rnNT02BJGPlRxr94tt5JNNTsJxMEyoRwwpRKoXjkd6vxWmn5AYynPUha6DTdIspFHlpDcA9Uljw34GqcwUTkIwcA9AfarES7ckxBs+1enW9nFHCqJCiqvRQo49quwQKesafkKlSuynA8qiUbeQBzjFOKKMjINetrboG4RP++RUv2aMxEmJM5/uiruT7M8b284AGKNpJ616+9rGRxGmf8AdFN8lMZ8qP8A75FFw9meTRxkqefzqTyuOdteqLEmG/cx5/3RUTqig4ij/AUcwvZs8onHlruLcVWaTJAxkjtXp+polzZGKS1SRdwO3Fcbe2Fukh4jjx/yzhT+tCmDhYwfMUDoPypyyKXA3cZq5Jb25JX5198VZsrRFcHajY5DAdabnYm1yGLawzzwaftJfjpW5HDxnj8qeIhnhf0pe0H7MwdtNbZnk/pXRNHtB+Wom2jgLz9KPaC5DA+Q8BsfhX0v8J/+SZ6Rj/pt/wCjnr5+kIXkgflX0L8L8/8ACutKz/02/wDRz1VOV2XBWZwn7QJAHh3P/Tz/AO0q8V3j6ivcvjtHvGgfIGx9o69B/q68WMMYY7mH0QcU5StIU1qVc5H3cGqwB3jPrWisMLDksuD1NTxWaxvnaC/qazlMSTKMcblRwKsLwmO9aBifuV/OnxhV5wM1HtBuNzLPTvQSDJyM+9bIwR90flTGUKMsBx2qlUJ5TLkAEXrzkVQaZCxA5PpWrdXD52RjP07VRcMoyQqk/wATck/hT5xpFUkHfuDZI4xUtjcCK/t3kXy1U/MxqNgM5Cs1JFaNf3KW8akSMeN3QVpCTvoEkrO511rewXRZIZA7IASMHpU7A1X07SrfTISsfzO4+aQ/xf8A1qtHnNeir21OR26ETCmEcVIc00igkhIpuKmKe1Hl+1AEBqM1ZMWKjZKAICKYRU5WomFICEimt1qQ9DUZFADDzSU7FJg0xkQ608HmmDrThincRIKcDUYp46UgJVp26owacKAJM0tMFOFJgSAjFKGqMcUopDJQ2DxTw2RzUA+tPDZoAlwCK5G+2pqdxtUBA/AHSur3muPmJluJWPdieKxrvRG1HcUShj9B37VbsruO33ySglVUEAd/as1xs5B7U9Mm3k+grkaR0I1k1jz5pdtuVzkoD/WtsQSJHFMyD50BwOhz6VzNigD/APATXo0Nur2ccTjI2AfpWMrX0LSuU7KeGbaksce/+Fto+atJYLds/uo89xtFY9xZPbMWA3J6+v8AgasWF15j/P8AMp+4+OvsfepuUtC+1lCQdsEeP90Vk6tZRx2FwwiXIUkHA69q3lljI/nWd4gKDQ7h1PPA/WkldhLY4QxkKDnIpyBg/X0601PuAN9etSRr8+M8ZHWujl0OdM2LTVvu2rW4K8bnHXgV9c18fWyjzSR1x/SvsGih1Nong/xEiL+N9VlxxG8Q/wDIKHNVrJ47q3DhV3Lw3H61u+MoRJ4w1cEcM8f/AKJjrk4S2m3YVjiNjj6j0rGTtNlJGyIYz0jU/RRTvJX/AJ5p+QqSPbj2PIIp+0GncZAbdMcxr+QrlvG1usWlpcIAGEgXjjOc12O0Vy3jraNDiHc3C/yNC3FLY8+QncOvpW9otzJBPGc7lO3K5zkYNYUa1s6QuJU5/un9GrWS0MI7no2myi4uYpRHhCShDc9s10UUEeTiNf8AvkVzumIP7NkkHHlyBs/gK6uLa6BxyGGc1EDcb5Ef9xfyp3kJj7i/lU4UelLsrQCubeP+4v5UxoI8Y8tP++RVspUZSgCo0KAcIo/CqzwpuACL+VaDqKo3UixRPISBtBOSeKlgcrqVyLcu5iLpIxAUdAAa4e8dmmkJzye31rutcixZWhOCSrE59yK4K+lYsxyByen1pQV2Z1Nipn951Irq9EtU+wJIVVjJz0rjQxRySc9etd/4cZH0O3PcbgfzNOrsTSWpOIF7IPypwhAP3B+VXAop2FzWJuUjCuOVH0xVa8WOGAoFXLDJIAyBWjPIiRsxAwozWdbQ/bZMk7lHLEHj/IpoTRi3yfZ4I2kTIYF+D1wa98+F0vnfDnSpNu3Pncf9tXrxXxFFiOIYwArDHp0r2n4WjHw40kf9dv8A0c9bUviJWjOL+PU3lRaEozub7Rj/AMh14gxMmCzEYGTgV7b8fBlNA+tx/wC0q8S2nbnnHTNW/iM6j1BdqBgGJHUV6MlrHtG2JQMDHArzgJ+6Lk969UtCr2UDnHzRKf0FZ1e46RU+zoP+WSfkKilhQfwIOOSVHFahaNQeO1c/qtxLPJ5cakRc9OC+Ov4Vgasy9RuPOBht1CpnlgMbv/rVSubaaG2+0HnLhME+veugstK4EswP06Ua3AP7Nk4+6yt+tO5HL1OHfUjDLzDxyCR1+tQ3E2+XcMge/XvUl7CBK4x/FUM8WzbnnIBraNiGQvIxHPr3+lb3hRlNzcLxuMYIP4//AF6wmQngL3rY8Lhk1cg8bomH+fyrppW5kZzfunVMtN2+1WClG3iu05isU5puypyKTFICHZRgCnuajNADH5qFhUrGoiaLARPxUDcmrDc1GVosIrkU0ipitN20DIcUuKeRimkkHpTFdFGNw6gqQR6ipAa5yOR4iDG7KfbpV+HU8cTp/wACTpWMaye5tKi1qjXBp2TVeGVJlzGwYe3apQT+Fa3Rk9NyZfTvTqjB4xT80wHg0tNHSnVIhaXmkFFIY7NLk00GnCgBGbbGxPYGuSVs59+a6i8bZZzN/sGuUVgDx6VhW3NqPUkduDkZFOEYERcHAz0qIvkHirIINuf94dK5pGxbsEBkwD2xXpUK4AHpXnmlpunVR3df516XFHk1g9zWA4Qq6lWXIPX3qC6jkh0hrJIo/Iafzg4X5g2MYz6d6sS3EdsVV85Y4AHWrcDR3ETFcMvf2+tSty2tDmFulQ+VP8so4Vuze1UNfmX+yT2zIoNa+u6QXgd4gTjsOo9K4u71CS4g+zSJyjZ356j0I9acV7yIb0KStwDjt3qeM5cE9iP5GofLyBg9BVuGI+bjHVsf+OmuhmBdtQN/vj8+K+va+R7aILLgcYXv9K+uKKO7NobHkfi1D/wmGpHsXjP/AJCSsSWD97BcLGkjwOJFVxlWI7EV0PjAY8T6gfdD/wCQ1rDt5VLvFnLLj8z0FYVPiZotjPs7sD9w/wB8fMnuO4/Cr6zhlyV/WszWLdoG+0xZ+U549aqw60zjd9mIz2D1F7Abxkz2Ncr46kDaXbrg5M+fyU/41p/2we9u3/ff/wBauc8W332u2tU8spiQnls54FODvJEy2OTUPkEZwK2tHkImjz6J/JqzoRjaD19fzrX02ImdGA7J0+jV0SWjME9T0zRYRNpVzGRkMSCP+AityyYC1iAGNoCY+nH9KytGdYNPkdh1lVfzAqf7b9jme3MRfDbgc4rNOx0G2rd8U7PtWUmqA4/ct/31/wDWqUamP+eLf99f/WquZAaGRjpUbH2qidTA/wCWLf8AfX/1qjbU/wDpif8Avr/61HMBZkOM1mXjgwSKVVt48vBHrxTZdWHI8k5/3v8A61VFu/tV3BF5e1d+45Pp/k1NwK/iaMLBbKBwFI/lXnF7DmRwGwDuIOPcV6br7Cezt5NpGS4x9OK88vYyXbg8A/0rSC1MapjSQYbrxmu18MY/sZU/uyMP6/1rlmiJJ5rY0W+ktLaSIRhhv3fe9QP8KqqvdIpP3jrAKRmCr6VitrMgyPJXP++f8KpXWvXCDKwJ/wB91zHTdG4t0w1GERqjGFg7BhkEgjAI9K0ra1SGNisYUsxchRgAk5/rWf4ctWkh+1Sj5pDnmth508/yQeSD/wDqpgjnfEKkxxHtlh+lex/DH/knml/9tv8A0a9eS6/Hm2jPo39K9b+Ggx8PtL/7a/8Ao162pbkr4jifjwm+PQgDg/6R/wC068aKBU2YOBkj869q+OI/d6Icf8/H/tOvGJWXcRn1q/tGVTcieMI+3AIODXe6bOP7JtMdfKUflxXBZGeeelXv7UuTDFp8S4UjG5fvEZ6CoqrQKb1Ojkuzf3LW0BJjX775+97Cumjie4s7OKeNNlorCEbefm659ao6FohsbZXlA3sPu1sXEyWyfN1PQetZNWWpskZrxYFZOrx7tPuB/s1rxzrcxllGCDhgeoNVryLdaze6N/Ks4lS2POL6Ib3Prz+lVLxsRIAB90f0rUvlGc4zwP5VlXeAg9cGt0cxACCxDdM9q0PDz+XrcA5+bKfoaziQCemcdKuaQxTUraQjjzVIP41vD4kTP4TvGFMA4NSEUwkY4ruOYjPemNgCnkUxqAIWNMapmWmFaAICCaYVqwVAxTSKBFcrTGGKmaoJXSJC8jqijqWOBRoPfYYRxUbcAkkAep4rNu9ehjytuvmt2c8LWHdXk92f30pK/wB0cCs5VUtjSNFvc2rvWLeEFYf3z+33fzrKk1S8dyRKq+wA4/MVSzjmkDe5FYupJnRGnFdBec+1OAI54oAHtS4BqCrgrFDuUlT6g1dg1SVOJVEi+o4NUgMDoabnJOe1OLcdiXFPc6O3u4bj7j/N3U8EfhVkda5Mt0IPSrCaldoAvnHaOmQDWyrdzJ0P5Tp+1KOlc6NTu+8x/wC+BTv7Ruyc+cf++R/hR7aJPsWdEKUVzg1G9/57t/3wKcNQvf8Anuf++BSdaIexZ0Qpc1zv2+7PWdvwQUq6zcxLgrHKOuT8ppKsmHsZdDU1R9umyn1AH61zSir9xrH22HyfJ2EkEndkcVWGN46Z+lZ1HdmsIuK1IT/d7VcjH7kH/aH9ajwG47lvSrr24jgjKnqw/rWMijU0OMPewjHWRc16RBH3rg/DcRbULb3fP6V6LEhC81m1qaQ2Oc1mcxXlxLjJhiG0H1Of8Kl0C93X/lAkxzJuGf8APtVbxJAf7SAw22ZU3Y5wBkE479vzqPRJRLe6cVOOvHoM4A/KsralXOru1/0aU/7DH9K811u0gt0hnjYmSUneCMcgCvTdQBTT7k+kZ/lXmXiK63x2cO35kDEt3Pb+lbxXvETZlqcjHoOTVyMckg9HP8qzlc9RnnA5q9buS43DI3NwPpVtGRtWyBrhgfYfyr6ur5YtE/0rgdXH9K+p6KfU2hseX+L13eI7/wD4B/6AtcCZplv5pFcqkb/dH8Rzj9ABXoXikZ8TXoI4Oz/0Ba8/nj8u6uUPU5I/OsKi965aN6+hEttgnarkZwM9e1VodEsii7S44wRkVfuWMVjA5AJG04P0rm7i4kuJTIwCsRj5TgHFbUqPOZVanIzabQbZ+cyc+4/wrj/HFjFYLYiMuS7MDk+mK09z/wB9vzNc/wCIwXmsw5ZvvYyfpWjw6jqZqvzaGKiDenHU1v6QnzRnHVU/9mrJjTlCBzmt3RQWmQEcYT+bVMloEdzv7NCNIY4+7On9KuNZJcXbu7tnA6fQUWMRbRLnHZwfyArJ1W6k/tAxA7QgXG0nJyAeaiFPndjWc+RXOgTS4yB8zfkKmGkxgcF/0/wrlo5pv+er/wDfRqUSSkf6x/8Avo1usOjP250TaUhH32/IVE+mRgclj+VYW+X++/8A30aY7SYyZH/76NP6ug9uaM+nR443A/hVMWvkXUciknaCcevB4qi7uf42/wC+jUunyuL1UzkPkHcfY1EqFlcarXdh14rNodmWJJ3Pkn1zXDXozK3oM/0r0O+j26FY8dXauB1CM+c+PVv6VFNBVMtl4JFa+hWkVwk/mA5VhjBrMKnkZ61paRkNNg9cVq6fPoYxlyu5rNpVs2fmYf8AAhUR0e2kO0h2XHOWqUZ9TUkcjRPuU8ik8MjRV+6NjSUEOngAkqhYD6CsO3umfWRGzAnerY9mLCt3TWafTLliACGfv7Vz9kjHX4FMeMYO4DsM9/zrla1Oi90aOur/AKDn0cH+deqfDX/kn+mf9tf/AEa9eYa4udPbHZl/nXqHw3/5EHTP+2v/AKNetae4vtHG/HH/AFOjfS4H/ouvE9gYnsckfpXtnxyOLfRj6Cf/ANp14eu4sCM89e3atOplU3HFdg3e1dJoGnQT2X2plczRyFFIPToc/lXOYbac46V0Xhu4K2FxD1/eZHtlRSlG6Ji7M9Ldf3KHvXF+Ibuf7WzxyBYoXCuf9nuRXbKd9jA/YhT+lefaw6Bp4JXAZ3LMpH3gB/jXPU7HR0L+gK6O0UkjSHywxZupO4/0Nas6ZVh6g1T0FFdfOXOPJRRn3Gf8K0JVLdPrUpB0POL1eAPb+tY9wh8sE9//AK9b+pKFkcDsWH61z90/7sqfw/WtUYPcrhGeQbQOOtSBvs9xAwwuGBP51VDMq5RsEgUi5kYKzE1qtwauemk559aYfrXHP40uP9XFZRhl+Ul3JqI+IdSuGGZ1j/2YkH9a6ZVoox9lI7Mmmkn0rjW1XUu13J+S/wCFMOral/z9y/kv+FJYiIexZ2WaaeelcW2s6l/z9y/iF/wph1vUx/y+P/3yv+FP28Q9iztD1qK5mitoy88qxqO7HFcadd1Mf8vj/wDfK/4VSmuJbl/MmkaRvVj/AC9KHXVtBqhrqb974kQZWzjLf9NH4H4DvWBcXM91JvnkZ2/2jwPwqFuBSAkjFYuUpbmyio7CnJ7/AK0wg54pwXmnEAUrFXGAEik25604E+lOUDFAChaXaccfrSBufang0riGZI4NN2gkYNS8HrTStFwGMmDxTMZPAqUqeOeaQIetMadhoDdsU4biCcVKFyDTxHkdcUWFzEC788YqTdJ6AVMsWOe3tSenWpsK40uyxlti1VZlZvlBUntnirU7YiA5696pHkmhIuOpIiMXy3BHtVpVCMGDE/UVXtl3Fj6VZCcDj9KHuKW4KMyg56vWkUItIAe7f+yj/GqES/cJ/vZrXmH7i0zjkH+S1EmSdD4UhzqMI9Nx/SvQEj4ri/CKE6iMdozXTtevHqEkS7XAONhOD9RSRUXZBqun/ao0eMHzI89OCQeCB+hFUNF0j7PeI5BCxLtBI5JreSaKdDsb5h1UjBFLECGqGtS0VtXG3S7n/cI/pXlerRNLepzgKmOfqTXq2t/LpM5x6fzFeXX58y8BHUKMg1pD4jOoUxZuByR1HWrcVqygNwTljj16dKco3H5j1YVct/m8vnpux+YrWS0MluaNhHm6Uc58xc57civqCvmvTo916mR1lH86+lKiHU3p7HnHidc+Jbw+yf8AoC1zl3pRmmZ41B34zntW94unMHieckZjIXd/3ytQwFXVWU7gR19aiSTZZR1iIR6fxj5Rjj6VyQWuz1wbtNb1/wDrVxqniuqgtGclf4g2j8awtfhZ7i2IAwoP55FdBWFrpP2qAAnG3+taVFoZQ3KEdttMeTznH6Vt6JbFJkb/AGUP/jxrGjDtInzdzgHjmug0fzAy7sZEcfH1Jrmlsbw3PS9Hg8zS5k/vH+grmtXi265cJ/d2j/x0V1+hrizYergfoK5nWU/4qC6/3h/6CKdBalV/hRVij4HFTrGKfFHU4jrqOZFby6idKulKhkT0oGZ8i9afpke7VbZf7z45+hp0i4p+lf8AIas/+uopS2Y4/EjW1m2aHSrONsZVjXnGoYE7jvlv5CvU/EGHslCkZjlAOOxIry3Uot1zIQP4m/lXJHc6KuxksR1zWho/+tlX2B/WqLJgL64q9pXFyQO6f1reO5zs2NtGOMU8D1orYk6LwzCHsJs9PNb+VVY9LFpqEkpAyc4/z9K0vDIBsJABj95n9KTVriK1YySthRj8SeAPxrzpI74/CjI1hS+nzZ7ANn8a9M+HQx4E04ehm/8ARr15TJcNeWd5ITwUyB2HtXrHw9/5EbT/AKy/+jXqqe4lucX8cATbaRgZ+W44/wC/deKIjbRuGMY/lXuHxqG6PRh6if8A9p14sfvEDnpV9TKp8REUwv4Vq+GwRLMv8J2kfqKoKpZwvArQ0JgmoyRnsvX8ab2IW56pbLv0e3/3FrEvtFjuL3z9qseozwR6g1u6eN+iRkHIAx+RpG65rCSTZ0mTDaLaRmFfXJI4H4UkoJBOaZqWoRWkpU/PIegHb6mse31F5dajhkZtzRkjA+UZHT61mDdjntbj2XVwv/TQ1zM8PmAnPAP9RXYeIYyL6fjqQf0rl5RiCUY5BzWpg9zLSNMDuRkc0jKo5HBFSEYB9Qxpr4wR14rRDRQcks+SBzk06Kby8BEGfU1FMP35yc0LweBTsaPY0H81lAyPXioz5m3AqRD+7U5HTpShc8bhzRyoz5it+8A5wfrUZ37smrphwOtQPHgmjQdyq2c84oA3VKY6aFAOKY7iBQKXYacAKUsFFAtRuymnOeBxQZeOBTd5xilqNIcseeSaeE4pqtke9SCmBPHpzySKhGwMcbj0H1rUHhS5YZW5tz9CamVMHCkgfnTvOlh6ZH+4dtcTqyZaSM+fw5fwdQjf7rVmTWdxAT5kbrjrxXRf2vMpAJ3D+6wwabda0sllNGY8MylRzkc1UZ1OoNLocyFJHrTgSCABn2py9K0tGtjcXEgW5jgdVG0yZwcnHWumTsrkrVmf5oA/1Z9zR9rRSRsP410d3pV5HEzy6esoHSaE5H4lf8K5i4Vkba6qD0qIyUh2Jftq4xsP5VJA0cxIGQemMc1nY+lXrCMoz7lI44BGKtqwSSSHTwDGNy+3aqLDa2K0Lv7vFZoHNNCiXLMYQn34q83Tk8n0qCxjJiB7HJq0Y1H1NDIk9SOMFQBnHB6/StW4ABtlGOAf6f4VnBCD+BrQkOZ4vZT/ADNRISO18Hx5upG9Iv5mrUpEniGVSp4Y4bHB/GofCLbXmJ7qoq6dPnt7qaZ95V5GYYOQQ3f9aRfQoavevbzQeUZFlWbrGcErtzj8a09I1z7UsZnXbvAKt3/H/GsXXU3ajp/yllVZHfH+yO351Q0e8hs9OWRCFdwyoD1YjPape407Hda3tbSHwRg7eQcjrXmNyp/tKUDGAQP0ruUaWTwkrSlfNkl3Ep938PauKulX+0pv9/8AwrSmtSKmwiqRIBgY3datwxgNGOmR/wCzCoI9u4HOTk96tWqHzI+cjA/9CrSWxktzoNIjzqMY7ecP519E18/6Iv8AxM4v+uv+NfQFRE6obHknxAJ/4SmTDEYhycf7q1kaNqU0N55LJug2DPtx/wDqre8e27tr88wjZhsSPcvbgZyK5TTzI1wHYkKDtK4xls8/pUPcTep1OtYbTSynIIJH5VxaDgV1+oqRpM7AnmR/5CuTUcCurD7M5sR8QYrA1tzHeoO5j6/jXRAZrn9eCi/iGRnYB096ur8JnDcpWaPJIh3AEAtzXR6IpZImb5mKR5/WsG2iG0MDwAxOPxrqtBj22cRGPmijxx7NXK9Ubx3PQbMvHpRaPhxIv8hWLqyBtfuz/tL/AOgiugskxpeT2cfyFZOoxE63cnH8S/8AoIqqG5dfZFeOPipAlTrFTzHius57FRk9qryLWiycVXkTNAWMmVcZpdM41mz/AOuoqaaOmacmNYszj/lsv86mWwR+JGrOm7Srpj3vmbJOe1cDfR4mfjOXP8q9EMLJpNyrY2i64964O+X/AElwf7/9K5Y7nTU2MXygVJ7gelS6euL3/gJqXaMY7mktFxeKfrW0dznaNTHajFAPAoLYrYg6fQJY4dOnkc4VWXP4iuX8TX/n6nbkykAAgRZ4U8HPucCtSCQ/2HdY42SRMP8Avqud8SRu+qxeSmGUkj0BI4/mK8+W52X91FnSGeTTrwM24GMuK9l+Hox4G07/ALa/+jXryTRbGSHTZndNokjKqCe2K9b+H3/Ij6d7+Z/6MaqhuVHc5D4z/wCr0Y/9d/8A2nXiLbiSckd8D617f8Z+Y9H+k/8A7TrxTyGIIPp/Wq6mVT4hMKqliTu3dM9qs6QxOrxj+8jCo3t885Gc1Y0aMx65bHjG4r+lDvYjqeraXKsWgjzGCYZhz9c1g6hrrm6ighHlxOxV3J+YcZx7Zq+x/wCKeLAjcl0hB9OR/jXI3bSpl0wQJNxGOpHJrCTOhvQrapLJ9vgJZmSQ4cZyFPrVyxkI1eyDNkmTGcdRgiluIDJcrhMhUyBn730rXsNFkE8Nw6hAh3DcOSfapjEnqY/iZMXb+pRSf5VxdzkCUZx/+o16B4pi2zRn+9H/AFrhpYTI8qjgYB/X/wCvWpm9zCBIduc80r/cwOTnpUiQkscHJwDk/SmZyxGM1aYzPkBDjPcUR4Z8FsCpLoLlSox2qAfeqjToaSBNo+fgduKrPcCOQ7RkD1NTQrlOPzqvcW7/ADTbT5ecZz3pWsKOrH/b2PBQD8aUTySciMY9c1URipyDjHtXXaBoF7cJDeyBFgYZDXG1YyPxOTUzfKirGAtteTqzRwMUUZYqpIA+tVOuCDnPevSriLSILdxd6jJdMVIENqm1Bx6nivOo1BQ+3SlTm5bikrEunaZcapctDbIWZVyea34PBNyxAnnSIntjNY+ialJpWpedGAdylCp6Ef5Fb7a7e3IHzCP/AHBWVVzvoNWJ28DWsUe6XUyCOv7sf41hanoK20iLZTm5XBLMRtx/jWzGZp/mdm69WOafJFGFO45x6ms1Od9R6HFBGRirjDDgipMmrOohPt8uwjbkEY+lVq7E7oye42K+uIjxIce9XYtQuJl2l0wevHIrJyT1q5aConFW2NWXZQyrkzDHYPVaUqYgARkkZAPSlvn2xR4APPQ1UjbeR8oH0pRjpcklANS27OjMUZhnuDikx8vSmCQRIT6nFaSV1YhbmtbXd3CwaOeVSD/DIRVLW7ue8u0a4YF1TGcAE855xTP7QVFIQMT2JPH41UmkaaQyPjJFSqfK7lpiW0fmXKJnBJrZkLGYbuqqB1rLsADepxnGTx9K0hy7lR3pP4hS2Kd0cr0rPFaF4MD6VnitAjsbVohNrGcfw9fxqwFUuDjg0y1RhbqNwHyjjFP54ww6+lTzGbQ90XzgF74qyy/6Yg/2B+uaqwMftSbyCNwrQC7r8Z4wi/yz/WpkxHY+G0IilYeqiuqgkIGGHFY3hSANYSOR1kP8hW5KhiBK4x6Gkax2Kt9pVrfYfLRyAEBkPHPXiuTuPD8thqAcQlrWJHEQU7uSOv1yOldTb3y3IkKB1KHkMOlTLNuPJPPBz0pXG1cykj8vwjZqykE7jg9e9cPJGZtVuOePNNekayVGnxKoAGTwOlechsXU5B58xv51pDczmLFEQyY68mtCyiK3EWenyj9ajgIZQD1IOM1etUAvIBzj5Kt7GaWpu6AudTiP/TQn9DXvdeFeGkB1CM+7H9K91qYnTDY4/WkD6xchhkHaCPX5RXM32hbVL2fy4y2z0966PxDObXVJZAu7LKCP+Aio7WVbmJZUBAPQGlZN2HY57UElXQSZvvncT9eK5RVyM13PiVf9BIA/hY/yrjFiOK3obHJX+IaqGud1mIya4qk7QI1/9mrqlixXP6upXWnYAcIgyR7Gqq7EQ3KMS7H2rnADDrXXaOojgg3DokY/8daubSBiN+7bkNzgc11ujxAhQ3O1U/8AQTXNI3itTvdMjD2DKwzk/wBBWbeQ51W4b1I/kK2NLXFuR7/0FQXEQ+1St6mro7mlVXRRWLA6Uhjq7twKYyZrouZWKLJVaRcVoOmKqSrTuS0ZsyZplgmNWtOP+Wy/zqeUYzUdiP8Aia2v/XVf51MthLc6bUrYQaOE77wSfcmvMtTULdy/7/8AQ16vrOG0+Uf3WWvLdRH+lz8dJP8AGubqdFTYxyvyj6UlvgXSc1LjaB71Ggxcx9vmrWO5hLY0QKQilHAozW5kaVkrSaRfrGMuFRgB3Iarx0zcYprhPnIBC/41L4XVSJBgHKc/99Ve1eUW8ZmKltik4HeuGW7Z2x1SKEq/u3HqpH6V3fw//wCRI07/ALaf+jGrgoS08Qkb+LsOwNd94B48FWA9DL/6NeiO5S3OS+MgzHo//bb/ANp144yjJGfWvZPjF/q9H/7bf+068amcLKRwOSKd/eManxD29fTFOsSF1a2Yf89RVWWTETFWAOO9NtJGF7BlsMJFOR9afMR1PT40Z/Dl6uCcSRnGPdf8Khg0CWcIJT5aK2enLVpeEg5hulkzuBX+tbWwAn0zWfLfU3MqPS7a0I8qMFu7N1qXZ+dSahcC2aBdhbzCRkdqf5bEjimtx2OR8WRYW3Yf3WFcHszeOp6EDP5ivSvFkP8Aotu3+2QfxFed7Ql82ecxv+gz/Sl1MpbnNGLbIyZOcfyqWG1RizNkY96S4ci7cDIG9hjHuaWOUsGyuCOBVAUdTg8lvl5UHr61QHUVpagxaE8YIxWbnmriWtjStRuTAPJFNnjBSQseQucHipLPIXcO3SpJizGTnGVPHrSkTF+8Yw6Amti0ZprNA7btgKgMScVjgcZrvvA9pYXekXH2u3jkeOfAZs9CB/8AXqlSdR2Q5z5Vc5aWIEYxVFRgkZxzivQtYtdKhYSQxBWztCKMg+/rXAXICXkwUHbvOBQ6Tp6MmM+carCOdGJ6HNatvPDLPsE7AnooGB9Kxy3zBiOAckHvWml6smqwulrHCgIBSMcZ9eaicOaLZVyxdvJag+XJJGD2B/xrFlu55TgyuRnua39ZALEjFc24/DrUU0iySHcSQev1qWo4nBCqABgdR3qQj3FbWM3uU6v2ing4/OqA61oWzYA4qJ7GrI7/ACDGpHQE1BCDkmpdQbdcD/dpsP3frTivdJlsT/w1Xn+6v41OenFV5jyo9qomO5FUnao6kPIpFMsadxdE+imtJF/d5FZVoxWVsH+GtuNMQLnqah7kyM2/6NWeASQB3q5fHk81Ui5kT/eFX0BbHRIuwYz6UmVBXDD1pzHHTJ4JzTGCMBzgheayuTYW3G65XkZGT+lasYzqk2f4WC/kAKyrHDXGB12tyfy/rWvbjOo3J6/vD/n9KGDPRvCqbdFVuxkatOZ8q5z0BNUdAXytBg7ZBP61ZlcmCU9PkP8AKh7GiM/Qot5l+UHc+K09Ttvsti08fDggAHpVfw0haNmx/wAtP5CtPxANulqv96QCi3ugYmtKYrK13fxLu/MivPYEZpXYpgFyefrXovi8+XFZr/djUn8x/hXn9u3y59aqPUznuWYEAUnvg4Jq5aK73mc8Jt2/kaprIoBz6VoacxM7Y7Z/RapslHTeFUzeJ/uN/Kvb68V8JKTeDHaIn+Ve1URN4bHD+LeL4+7D/wBBFV7bMWhRMpwc9fxNT+L/APkID6/+yioQNuhQfhUPdlFTWy0mkJKxyxiOffkVya4xXWa4wj0EMxwBCefxFcfG4PIII9a6aOxyV/iLSVg6ou7VJc9CE/QGt1GBPr9Kxb0E6tIevIH/AI7RWdkTT3I40Zk24H3TXT6OABjPJKD/AMdNc8gI7D7hre0k4nHHR0/9ANc19DoitT0LThi1b61LPb4JY9W5qKwP+iMfVjViWTIwe1aUzWRRZcGoyKmc1Ea3RiyF1qnKKvN0qnL0qiGZ0w61DZD/AImtqf8Apqv86szd6r2Q/wCJpa/9dV/nSeworU66/UnS7kekv9a8y1VP+JlOg7ydB1r1O8XOn3I/2684vI8eJASPl+0Jk+2a5up0TMrWtQsPDe3T1s4bzUV5uGlyVjP90AfrVW1uLHW7aS4tYVtbq2w8sKNlGTuy55GPSuK8Q6vJe+KtWuM8PcvwenBxWl4YlLXE80cgJCbDg/3uD/X860i9TCSZ0uSOooJpKZKyxoXc4ArcwOj8PSuILzY21lgJVvfNa2ppu0Bj1JQEn14rF8LypcRTMhyrQSDPrit65G/w3n/pn/SuKW7O2HwozbE7rVT/ALK13/gUbfB9mPR5h/5FevPNMbNmP90V6N4LGPCtsP8AppN/6NeiBS3OP+MX+p0j287/ANkrxmRc3BGBya9l+MZ/daR/22/9p14nNvF2R0Gcg0PcyqbhKv7ts7eVwT2qOPbDMjDaSpBwBjvVnjBOM8dKjVUzIxXBwOT1qbsk9a8NFt94AcFogwPocmtqwzLZQyPyxHJ9ayvDCIJiF/jg/wAP8a19JH/EvUH+FmH604myM/Xo8Lat6SH+VaKp8in2qr4iXFhG392QVejG6GM56qP5U4/EwZzniqP/AIlYfssq/wBa8zni/wCJiq92DD/x016x4ohLaFOR/CVP615fdLs1S3bsXA/Pj+tKW5lLc5S8RFu3ZuMvnA7cA/1poeMFsITuPUEcUuo5+0kHr8h/8dH+FMVuWIyeOBimBDdgNC2ARx3rJ7ZxW5co/lPlTg98e1YZ6VUS4mpYt8lWJVA59cg1U01sNj8vyNXrojbkeuenehkr4jBAx+FXrHVJ9PikSF2AkxnmqR++3Hegnjmri3F3RTSaszSGs3EaRxhy4jyVbvz2qvdri+f3w35iqWKuT/6xW/vKDTlJyeouVLYhlX8abBK0UysD0NSt0zVYnBPFSUtTo9QcOhOc965987m+takku+BSe6ist+WPvWVNAhIvvirOBVaM4kFWc+orUUimOtWonxVYdaeGqWrlPcWdsyk1JEflHtUB5YmnqcD2qkTIsMeM1Xl5f8KcT0561G/3+tAooKcelNHJpTyKCmTWozJn3xXQkbYgPpzXP2XNyijnLV0M4IgzzwP6VnLciRz9+fnwfao7JPNvIkx1YUt6SZj9am0YbtTiz2yf0qnsWlodCbcCPlR93sTUMkKh5Mrj5a0Lgfu8DHIAqrdAs0vPpWcdzNi6RaCW94Bx8oPtlxVzThulmlwfmZj+ppfDgJuJCOeFx+G4/wBKfpa/6Kxz1/xokSemaYm3RrUHvH/PmpbmILp9w/PEZqe3hVNOtlPaJf5VFqv7rQ7luTwAPzqnsbDvCcP/ABLVbuXY1Y8TfLbWqn+KYfyqXwxGF0e3J7gn9ab4jG6bTk7tPQ/gAxfGrhZFT+7D2/4FXndsVEalwQOwruvHUg+3TIP4Yh/6CxrhYsbB/WlfciW5cULjPWr1gQt1Ic9n/wDQazASuACeavWRO+ViONj8n8Kq+hPU7fwcpN05x0iP8xXsteP+DEzLMfSJR/49/wDWr2CnHY2gcL4w/wCP8f5/hFNm+TSLYeu3+VL4x/5CQH+z/QUl5xpVqPp/6DUPdlGb4qGPDD+8A/VhXn0EriMIpwuc16B4uXHh1l9Io/8A0IVwEC9K6qWxx4j4i1CXBBBOTVSeRjqEjFOrDnPtWjEuRxWbMc38o7B8H8qmu9BUtyRSdpwOSvc1uaY+JTlcfvF6H/YNYYYhSoXt1xWtYZ885yAZBjj/AKZmuU6Uemaec2ZPvTZn/fOM9DSaYf8AQT/vVBM4+0yj0at6W5Ux5amE0m4ZpGat7GTYjHiqkp4NTO5qpI/vTJK0pqCzP/Eytv8Arqv86fK1RWn/ACELc/8ATVf50nsJbnZ6rdQWGjahd3LiOCENI7nsBXz14h+KEdxqEsuj2R2lgVkuTzx/sg/1rvPjrrUlh4ctdLhfab+5ZpPdEAP8yK+eMk1zo6rXLV5f3F7NJJKygyOXYINoJJzTtN1O50q6Fxatgg/MpGQw9DVPtRTWgWXU9ItPFsGpRBIEaG5xko3PH+z606e7mmB3PwefavN4pHhkWSMlXU5U+hFdxY6lb6mreUW8xVyykYxk1pGVzkq0+V3Wx6P8P1zZSZOfllXH4ZrqEHmeGvpH/Q1zfw7GLdh6ySAf98CuptV3aA49FI/nWElqzoh8KOf0j/j09fl/qa9M8Hrt8M24/wCmk3/o168x0U7rcj/ZI/WvUvC67fD1uP8AakP/AJEalApbnDfGT/VaR/22/wDadeL3IBvFGc5UHGfavaPjH/q9I+k//tOvFZ1H2reeu3AND3ZlU3JvlAxjDevtVObdtb5v4fSrSAAYzzjnNNljBU85+tTcmx6v4On8x7TJHz2w/H5VNb+kg+TMhH3ZmH61zHgtABpjnH+oA/8AHcf0rq9NBW4vU9Jifzqo9DZEOvx7tJf2ZTVixUNYQMecoKXWU3aTccdgf1o0j59Jtz/s4pr4wKeuxb9EvB38vIrya+TF1auRx5iH9RXs+pxb9MulxyYm/lXjuqjZbI4HKEH8jRLcymY+vWYt7wZUHKgcD0LCqEMfp8pK4yK3/FXkreKxfjDf+hZ/9mrn4pwHTnPB7e9KWhKJJ4maInAIKDn19a45hh2HoxrtxKrW6HoMY/GuLuQBdSgdN5xRB3NIItaccSVqXKYtycjPvWJZnD/ga1Lgs0Zww4GDkVTE9zHf75+tNPNKxO8001RYnbFWGbckRyMhcVXqXAEasB7GgGSHlearN96pe1RHrTCJZEv7lRnoMVCeTTQflpMmpSAOjZBqzyeaqmr0S5jBoBlEU4U2nfjQN7iCpAeajA5qUU0KQmefWmMfmNP43io88mgEhVIzTj0NNHWlJ9qAa1LukIX1KEDnkn9K6K+ULC3bj/AVgaIM34YHG1Ca1tSlIX7xI/8Ar/8A1qxl8diZHOXRBlOPU1b0NQdRyeyGs+QksT61o6I4S7Zj/dA/WtJbF/ZOlnP3cD+IVmzyFRJhv+WmOKnkl5XDdSTzWbPNhTznc1ZxMzc0F9kF5N0Cq2DnuI2/xFX9LGLaMY4JUVl6RMo0e7LDHyyH8wij+dbGlDcLaMH70iiiRPU9dii/dRJxwqj9BVPxIBH4flwRyyj9a1IgDIV6Y/xrI8XsF0MKf4plHH4mrl8Jqavh9Nui2vH/ACzBqrrQ3axpKH/nox/lWlpUezSrQZ6RL/KszU23eKNLj/uhm/X/AOtQ17qA5Tx8y+feseCqAZ/4CB/WuFizgEHqDXWePpj9rv8APQMB/wCg1yNvKPLHJ6VBnLcmJIwMnt0rV05smXDZXy2/A5HFYyzo8gGDjIGRWzpaKY7h1J+5nn3YCqJW56J4L/5bn0VR+pr1uvKPBC7ork/7g/nXq9XHY6InBeMTnVwv+wP6U7Ufl0+1Hfj/ANBqPxef+J3j/YWpdY+WC2X3/oKzfUDK8anGiMP+mcY/WuChbnGK7Tx3Jt0srnr5Q/nXCRvjqa6aXwnJXfvGrE4FYEszHWrkZ+XzCBj6VqRzDuawJ51j1O4Y95Cc1niHoFHc1o5SYOvO31960bK4ZJvvkjzehP8A0zNc9FefuXzxhK0bOWP7Sw3HiY5/791y3Ok9i0w/6ET/ALZrIuLoLqdzGT0kIrT0tv8AQD/vkfyrkNQu9viC/QHOJsfoK6qG4quiOgWcEdaUzViQ3fGCasifI610mKZdaX3qtI9RNNx1qJ5KQCSPTLZ8X1uf+mi/hyKid65nxj4gm0DRGuLY4upXEcTj+BsZ3e5GOKT2HH4jG+Omtz3Xi9dHJiNtZRiRdq/MHcDcCfoBxXlVTXl3cX93Nd3czzXErF5JHOWZj1JNQ96wOoKKWkoAK3PD13DY/a55y23YoCqMljknj/PSsMVr+HbdbrVPJc4VonzgZPTGaa3Iqax1PT/h/wCM9KS7t7OVbpJJ7gqn7ksMsAAMj3r0zTRu0qZfQsP1NcD8M9Ll0+VFhvJGhW6ClHXjBU9O4Oe44r0HRk/0W4T0kYY/E1D+IUbcuhy+g8mRfTd/MV6p4bGNAtvq/wD6G1eX+HlzeXCY4DOP1r1TQRt0W3H+9/6EaUNkUtzz/wCMn+p0g+8w/RK8UugRKp9v8a9t+Mo/0LSm9GlH6L/hXh2oSbPKPqD/ADqZbmVT4iWFvmz7VLL908duuap21wFwMDGPWpTMrDkDpmoYkz0zwNIXh0snsu39WFdtZ4Gq36e6tXn/AIDctZadIOqysv8A5EP+NegwjZr1yP70YNaLoaLYsagm/Trhcf8ALM1U0D5tIi9iR+taU6braVcdUI/Ss3w5/wAgsj0kara94ZeuI98Ei46oR+leM6xGfsTj03f1r24rnjsa8f1aH93cR91dhUT3ImtDl/FbARwfKcneAR7pG39awrY5Mb4bDZ/Cui8TBJdPspcEZRM/jER/7JXMwzAKvAIDipeqIRfYf6Pkq5xnpXJ3oC3kuM4zxmur82Py2BXChueT0NcvqW37YxUDBFOmaQZHbH96OK6WC1e4gJVcjbk5+grl4m2yKfeuis53W3IDngdvpj+lVMJbnPzKUnkU5BDEU01LeEm7lPq2ah7VS2KEqQcwfRqip6kbCM980wYueKY3Bp2aa1MSHL0NN70sZ60jHmkMQ1et2zCtUDVm3kAjIPrSBor5z2pc8V9bf8KW+H3/AEAP/Jy4/wDi6P8AhS/w/wD+gB/5OT//ABdBVj5JHWnivrP/AIUv8Px/zAP/ACcn/wDi6X/hTHw//wCgB/5OT/8AxdMTjc+SSf0poFfW/wDwpf4f/wDQA/8AJyf/AOLo/wCFL/D8f8wD/wAnJ/8A4ugEj5KAoNfW3/CmPh//ANAD/wAnJ/8A4uk/4Uv8P/8AoAf+Tk//AMXQFj5c0TC3Lsey1Z1SYMcA56f1r6ej+DvgOEkx6Fgn/p8n/wDi6G+DvgN/vaFn/t8n/wDi6jl1uS4tnyI3X6VYtDt3Ee2K+rz8F/h+eugf+Tk//wAXTl+DXgFPu6Dj/t8n/wDi6spp2sfLzXPyJk8jjFV2O8DHrX1Ufg54CY5Og8/9fk//AMXQPg54CXpoP/k5P/8AF1PKTyM+bYP3WjzNnG7HH1f/AAWt3QnzeWIP/PZf5173/wAKm8ECHyf7F/d8cfa5+xyP4/ep4Phl4PtnjeHSNrRnKn7TMcH8XqXBsn2bOetLkSzNg96y/G8m3S7dR/FP/wCy/wD169Kj8L6NCxKWeCev71/8aZfeEdD1JES7svMVDuUec4wfwaqaurGnKYNniOyhXIAWNevbisS8IfxtYr2EBP55rv7nw5pN5Yy2U9qWt5ozG6CVxlSMYyDkcd6jj8KaJDcQ3CWWJYYxEjea/CgYA688d6ck2gsfPXj64Jvb1Qes7DB/3v8A61clBPhQM+lfUF98NfCWpStLd6T5js24n7TKMnOezVVHwk8Djpon/k3P/wDF1KiZum2fPFuFDA+r1s6dIEtJSDyyqMf8CzXuS/CvwWn3dGI/7epv/i6mj+G3hKJCqaThTjI+0y9v+BUcgKmzlvAvNjOx7sn8v/r16pWVY+G9J02Mx2lp5akgkeY56fU1q1SVlY1SseeeLWz4iZf9lKsa23yW2fU/0rqbvQNMv7o3Nzbb5jj5vMYdOnAOKdPoenXO3zrfdt6fOwx+RqeV6hY8t8fSq8bwBl3r5bbc8kAc/wAxXBK7Dg9a+gdR8F+H9VuFnvdP82VRgN50i4HHow9BUUfgLwzEu1dLXHvNIf5tWsZWVjnnRcpXPBfPYdjjvWJcsDcyMWA3ZP619KHwD4YbrpS/9/ZP/iqz5fhN4JmctJopJJzxdzj+T1NX3xwouJ88tcrtl2nPygcfWtm0RpLp2BG37Qwxnk/IK9q/4VF4GGcaI3P/AE+T/wDxdWR8MPB6vG40ghopfOQ/apuHxjP3/wBOlY+yNVFoqaQwfTNwPV2/nXB6tfF/EepqUU7JigIXBUcc8da9mh0XT7eIRxW+1Ac43sf61myeB/Dkt1JcvpwM0jF3cTSAsT9G9q1prlYVIuSPL4pc4BbDZ5qwsxHP4V6YPBugKMCw/OaQ/wDs1KPB2gg8WH/kZ/8A4qtvaIz9izzbzyw4602Scgcelem/8InoYx/oI4/6av8A40h8IaEetj/5Ff8A+Ko9og9kzypy23cWA9s8mvPvH+qsbI6fLYTIGlVobhyCrY647g84r6UHg7QB/wAw8f8Af1/8apal8N/Cer26wX2k+bErbwv2iVecY7MPWpc7oqNNp3PjMcDiivrn/hS3w+/6F/8A8nLj/wCLo/4Ut8Pv+hf/APJy4/8Ai6g1Pkeivrj/AIUt8Pv+hf8A/Jy4/wDi6P8AhS3w+/6F/wD8nLj/AOLoA+RhWpoFpJeajsjuHgKoW3p1r6l/4Ut8Pv8AoX//ACcuP/i6ntPhH4GsZTLbaHscrtJ+1znj8XprcmSbVkeffD+XZOsUr5m86Nj6kYIJ/Su60bCm8X0mf+dblj4G8Oabcm4tNNEcpx83nSHpyOre9aUOi6fA8jx2+GkYsx3sck/U1L1dxRi0rM8s0BgmtXSdvNcf5/KvU9F/5BFv9D/M1Ug8J6Jb3L3EVltldizN5rnJPXjNa0MMdvEsUS7UXoM596UVZFJHm/xlXOj6c3cTOPzUV4LqC70jJJ+Ukcd+a+tNY0DTNfgjg1O1+0RxtuUb2XB/4CRWA/wr8FyIFbRcgHP/AB9Tf/F0nG7M5Qbdz5gY7HXbyBTmm3Q7SSDz3r6YPwj8Dn/mCf8Ak3P/APF0n/CofAv/AEAz/wCBc/8A8XRyk+zkeX+ALxV0q23A7luWHH+8p/rXprMIvELFjhTbkkk4xitWx+H/AIY063EFppnlxh/MA+0Sn5uOclvYVqvomnyT+e9vmTYY929vunqOtCizRRaVjGhmiurdZoZFkikXKOhyGB7g+lZXhsgWlwn92Y111lomnadYwWVrb+XbwII403sdqjoMk5pLbQ9Ns/M8i32eY25vnY5P4mq63HZmW3bHrXk2vgJe36Hj962K90/s+1/55f8Ajx/xrIu/A/h2+lkkuNO3vIcsfPkGT+DUpxvsTKLaPnjWYvM8PWkgz1j7+jSLXGRlYhxz0719ct4F8NPpa6a2lobReieY+eufvbs9T61jH4N+AT10E/8AgZP/APF0lHuT7NnzHJOELAMMHk81k3jb5t3HNfWP/CmfAGc/2Cf/AAMuP/i6Q/Bf4fnroH/k5P8A/F1SVi4xsfJCnDVt2Mq7Cj9/8TX05/wpb4ff9C//AOTk/wD8XT1+DngJTldCI/7fZ/8A4uhq4Si2fJt6oW6bHTAqCvrhvg14Bc5bQST73k//AMXTf+FL/D//AKAH/k5P/wDF0xpHyQaVe9fW3/Cl/h//ANAD/wAnJ/8A4uj/AIUv8Px/zAP/ACcn/wDi6B2PkoGkNfW3/Cl/h/8A9AD/AMnJ/wD4uj/hS/w//wCgB/5OT/8AxdArHyQpwaD1r63/AOFL/D7/AKAH/k5P/wDF0f8ACl/h/wD9AD/ycn/+LoHY+R6UMR0r63/4Ut8Pv+hf/wDJy4/+Lo/4Ut8Pv+hf/wDJy4/+LoGcF/w0p/1KX/lR/wDtVH/DSn/Up/8AlR/+1V4RNF5LhfNikyM5jbIqPI7UCue9j9pP/qU//Kj/APaqX/hpP/qU/wDyo/8A2qvBM/Skz6GgTZ75/wANJc/8in/5Uf8A7VUp/aJnWETN4NkER6P9v4/9FV8//jSnpjvTBs96/wCGk/8AqU//ACo//aqT/hpP/qU//Kj/APaq8I2t6H8qmkt1RYzE7ykrlx5RGw+nvSFzI91T9o8NyfCuB/2EM/8AtKkb9pBR08K5/wC4h/8Aaq8PWylNm1wGjwrBfLLfvD7heuPeoPs87f8ALF/++TQLmZ7of2k8HH/CJ/8AlR/+1U9P2kVZct4V2/8AcQz/AO0q8J+xznkQv+VSvpd5HbRztHhJCQv7xSeOvy5yPyoHzeZ7g37SSgnb4UyPX+0Mf+0qE/aR3MB/wiZ/DUc/+0q8Vj0DVJo1ljs5DG3RyQAfzNTWmh3kN9A04t0VZBu33MY4zz39KBOXmfQK/G0y6M9/b6BHOyYLwJf/ADBe5/1fOOOKraf8fbe/u7e3/sAo0zhM/aycZ/7Z155pWnaXpc0ktvq/lgNhRJOrjHrgA1Vg0bR4bpZ7PUy9wrbgdrsM98jAqWRzs96tviNb3DFfsO0g4/1xP/stVdf+KdtoUMMjaf5xkfaV8/aV46/dry6xlmh3F5Zm54KQHB/A1Be2elXUha8g1GVic91pNuw+dnqU3xk0M6ZfXNlGbqa0t2maHcyBsdtxX1PWnTfF3S7O8tob63W2jmt0m815+AWGduNvNePXejWv9m3VtpVndQzXMXl75shduQTknjtXLzRaxPqb3V9prXWYvJWORmAVQAowQQegoTuPmZ7ZqXx7tbJm8jRVuV3kIy3uA6/3v9WcCqA/aJB/5lb/AMqH/wBrryAaLqV9dM1npjwrt/1MTZC4643EmtG28CeJLj5hYvGpz8zsFFVqS5SPUo/2hUcZbw1t+t//APa63dL+L76rZSXEPh9shS0ai6J83b94A+X1A7V45F8NvEcv+sjt0B/v3Cj+Vdp4T8IXWlWxi1Oa3PlzieA28xyjYwcnH0/KjVjUpnpeh/EODWYXc2DwlXCY8zdnIz/dFdpXlVtolpaRslpNIvmEs+BuJJ+p4r1WnqaRb6nJ6/44h0DVTZSWZlwFO8S44Ptiqp+JOnyLutraSUA4bLbcfpzVfxFoenX3iG5nurd5nOz/AJaFQBsHHFYk0/hPRLg2lzJplrNwxjnm5I7E5NKz7ibdze1X4jnT9TSyh0nzyyM5Y3GzAUAnjYfWqUvxYW3wJtHwzAMuy63BlPcHZWLc6z4PfWLbUZdc0lWhjdGjRwwk3ADLfQVXvPEXw+FtIUutMaXYRH1IDY4P5015kvm6M1z8bNNR3iks4I5lXPlveYJ9h8mM/jXP3H7RscMzInhgyKCRuF/jP/kOvLWXT7TS7q1W90a/mnfzPtDxyCSNiOikkAfka51raIMR9uiPPUEmpbC77nuaftGhzgeFSPrf/wD2qtCX49xR2Iuv+Ee3KHVXUXvKqf4v9Xz9K+fFt4if+P1fyNbVpoVxdRSLb38TQsuCZARn8M+tJyHzM+nrLx7b3libr7E6KGIxvzkdiOO+aq3vxGW0nEQ0sv8AOVZjOABjoR8pzXluhT3FnoltYzzCUwLt3qDhgOn5CvT/AAibHUrAs8KGeJypyo6Hke5pRk2ytehIPiNEXkA0x9oGVPm/e5HUbeOtS/8ACwYcn/QSQDwRKeeP938K2jp9oP8Al2i/75FMNhZj/l2j/wC+a20FaXczJPH1qqAx2cjtjoWwM+mcVXPxDx10s/8Af/8A+xrXaysh1tYv++ajNpY5/wCPWP8A75o0C0u5mr8Qg5CrpTlicACXOT/3zXOeKPjfb+GpY7U6MLm9JzJAt5jylxwWOwjJ9Kb8V5Lew+H99JbKtvM7pGsiJ8wJOcAgjGcYzXzOSZHyzFsn7xJJpMaT6s94/wCGleM/8In/AOVL/wC1Uf8ADSn/AFKX/lS/+1V4YksSceXn/aPJp0sCPEZYeAPvL6e9IOY9x/4aV/6lL/yo/wD2qj/hpT/qUv8Ayo//AGqvBKDQUe9/8NKZ6eEv/Kl/9qrb8O/HGbxBPIo8MpbQxqWaZ9QyBxnp5fpXzaZiYxHtTjHIHJ5J/rXX+FNBk1jR5THNcwSC4ykkMLuMhR1xxj9aCZOyPoKx+J4vNRFo+kGLeiuj/ac5BYjptGOlOv8A4pWunRu8+mynbO0ICSgkle5yBivI9E8TarpHiN7fxErm6kgSCCY25PmhW+XAAyTk9cZ9a6ubUI9RcRy6PJOpY48ywdR9SSOtJ3IUnY6vSPixBqt00K6U0eCQCbgEkdjjb/Wu40jUV1bTIb1YzGJN3yE5xhiP6V4odNWOTdHoDQnruiUivWvBalfCVipjeMjzPlk6j941Cv1Ki29yj478bDwTZWtwdPN4bh2QKJfL24A74PrXG3vxxewsxPN4ZZX43xm9+5n7uT5fU4JxW18VIIriHTEmtJLhB5pwq5APycn/AD6149rOix6lEFUyW7bwzH7Ox3YGADz2o1JnKSeh2v8Aw0QpUFfC5b/t/wD/ALXTf+Giv+pVP46h/wDa68ubwoF4GoQg/wC1G61FN4WYBfKvbd8jnLbcH0560XJ55HsVt+0Hp72sst1okkDIRhBc79wz1HyCun0v4q6bq+pzWNtZSpNDC0rpM+1hgZHABBBGOQT1r50g0u80i8iuYJofNX5gfL81VzxyCCK0Yby/HiaHWru9tnmRPLcC2eMOhUrghVAPB/Slcamz3Kf4swW+maRevo8hGowecFWcfu+cYJxzWjo3xHtNWnNubTyZi2EUy7t4+u2vKtK8T+HdM0e00ydbS8S0UoktwkisQTnpg461o2njbwfFMJBBp0EinIZCwIPt8tK7vuPnPYxrowP9H/8AH/8A61cXq3xZk03VptPTQPPkSURJ/pgXeT0/gOK525+Ifh2QDbq4iA6+VKSf1Ws+b4g+DQy/aES8kyCZWiViSO5OBVb7MHN9D0DX/iZF4esI5bnTQ1y4H7gXIHzd1BK888ZxXDz/ALRxgneFvCmWQ4ONR7/9+qzNQ+I/ha7vreRtOt7tlcYaaMAryOc15LfwifUbqZnI8yV3wseRySfWgFN9T2n/AIaT/wCpT/8AKj/9qpD+0ngf8il/5Uf/ALVXhv2YL3J/4BT57aBGAhuDKMAkmIrg+nU0x857eP2lOf8AkUv/ACo//aqcP2kc/wDMp/8AlR/+1V4R5K45kA/4CaURR71BlG3IzhTn+VA3I92b9pHHTwnn/uI//aqb/wANKf8AUp/+VH/7VXiV1FZ/anFldO0HG1p02t78DIpY0tUtpkk8iSVwPLk8118v14A5/GgFI9sH7Smf+ZS/8qP/ANqpT+0ljr4T/wDKj/8Aaq8K8n0mhPvu/wDrUNCc8yxH/gVMOY90/wCGlP8AqU//ACo//aqP+Gk+P+RT/wDKj/8Aaq8K+zns8X/fYoNs4PWPHs4pD5j3UftJ5/5lP/yo/wD2qg/tJ4/5lP8A8qP/ANqrwjyH7AH6MKDDIP4f1FAcx7t/w0r/ANSl/wCVH/7VR/w0p/1KX/lR/wDtVeEuhJ+WNgMdC2aZsf8Aumgdx3mHsiD8KPMPov8A3zVlNOu3OFgcmrCaJft/yyAHqWFOxlzxKPmydQR/3yKUSSf3v0Fasfhu7fq8Sj1zVqPwu7HBukx/srT5SXUiYIkfsf5f4VIs8y5xIRXTR+E4j96eTA7gdauQeE7IHdJvYDoCxo5WS6iZx5nuO0rc+lIZpmPM0n4Ma7+LwxYoMm1Rj2ySatJoVkkZH2aANn+4Kdg5n2PNgZDx5khJ4wD1qVbO5k4WGdj6AGvUBZxRxoAoGDwFQVKbZdyvk5/KkF2eYJomoyLkWcxX1IxVqHwtqUjYMEaHH8bgZr0oQKp4+ZT1BNO8tEPKjHQe1SCucBH4OvXH7ySFQOD1JH6Vbj8DtwTdL/wBP613ajgEknjr3FO2sBwcn1FBVjjIvAdvjD3NwfYNtBq7D4Jsk/5a3Qz6TkfyrqEVs5JH1BqVAQf8KVikjATwXp4A3S3ZH/Xy/wDjU6+DtJB+aOV8f3riQ/1rcXPY/gaeCQuWYfpRYoyk8K6Op/48kP8AvMx/matReHdKQ5TT7bjv5ef51Ze+toRiS4iTHYtzVGfxNp8GdsryN6ItK6E2jVt7WO3O6COOM4xlEC/yqyGduDJn2NcZceMnBPkWo+sjf0rOm8T6rN924EQ/6Zr/AFNHMkHOj0kZTl3Cj3wKjbVrK24kvoh7Agn9K8sku7m4O6e5d/8Aebj8qat3DF/ECfQdaXOTznqY8T2aj90s0vuAAP1r2OvlGPVZNnyLtHZj619XU4yuaQdzzLxZr8ll4lu7eOEEps+dm45RT0/GuU1DWILg7ruK0diOT5CMT+JFVPiZdSL8QNTiEihB5XGef9Ulckz4wSRn3NQ5O5Dlqat5eadHkW+kWWf7zRKf0xXPXghuZdz28APYLEqj9BUkzbgTkfgRVRz780k2ZtjfJtl6W8X/AHwKaVizxGg/4CKXcAOTzTCw7kVTEh4Kj+FfwAq3A+O+DmqSsM+tTRuN1SxnS2t1iIKXAH411vg3WRY60sbMoSddh+vauAtnIU4OBV2O5aF45VIDIdwI7Ec046M0ufRcc6uucjpSsRjrXNeHtXXUdMhnX+JRkHsa2hNkcZrc0TuSOagY+9SM+agYg5pjZieLdHt9e8L6hp106pG8RYOxwEZeQ35gV8otC8TMG+8vANfXmo2Vvqmn3Fhdoz29whjkVW2lgeoyOa+YvGOmR6Z4n1WztFb7Nb3RjTJLYUKMDPfrUy3JObOasWcmyXaeVfjnpW74WIFrrBfSft8b2LID5YbyZCRtfJ+73rOttPaW7ihbAu5LpIFt1+Vjnv7dRikJvoUGt5DOyJG7kZOFUninfYLzGfsk/wD37Nel+Hryzi0OTTri7hsr62upg0iWAuZmjGNyqTwOf5GoU8K6re6zfPpLSeTZzeU/9pXGCXGCTheMeq9s9aYudnnthp8+oXSwQgAk4LHovua9f+Gf2zQJdS0ad90ZcTwSKD5b/KAxB/7549q4TQ9Qg8K+K2e+tPOt5AcKi9FbowBHOK7DRdc00+PboQ2wWJ7fdbyxb1IBALKyk4/HtjFCG5NnWeOtIbXtBdlVlvrU+fayfxBh1APuB+eKs+EvFUmveHbe7lDC5TMdwB2cDn8+v41cadCcR4K8461wfg2Q2HirxHpAAVFl85FzjHOD/NaTdmB6Sb/nnNdt4fk83Q7dx33f+hGvM2kfP+Ar0bwqSfDdoT/t/wDobU27lLcpeLrgQCzBP3t//stcub1CAM/mK3PHjsp0/aM58z/2WuNaR+wP50XE9zUMkDnBVT65FRtDaSBt0UX12CszzGx1bOaTzmAwW4z60XEXm0+wZsm1g6dfLX/CozpdhuyYIgPpVdbmTdw365p/2x9wzj8qA0HnSLFxgQx4+pFV28P2BYnyxz7j/CpResvVVI6Uv29BnIBP0paBoVJPDdiR/qwD2O1D/Ssy68HWsjHbJs/7YIa3zeqV46+y0w3sYGWYA+w5pWFZHKT+CY2UqLmIf71uMVQm8CyEkrNanJ/ustdv9tib5gwB98nNMF5GX5IHqcZNMnkRwEvgO7x8otW/3ZGB/lVKXwLqKnH2Xd7JMD/OvSzNEXxFtXPVm60wtCuQg6/xA9aYuRHlMng3U1YqtncE+20gVTfw3fqSGtbkAdcxH+lewsIggUbhnvmkaIKnyyykHr6UXQuVnismkXSqSYZAPeIj+lVmsJVXLJj6givb3DeVhJvwqu8e+Pa7oxHY0wszxJrVl/hH5imm2cfwGvZZrK2lUCS3t2I/2Bn+VU5dE0+T72nwr9FxmjQLs8jMTDqr/lUZjPcV6pJ4d0kk5sth9mYf1qjN4W0uX7r3MR/3xj9aLD52jzgr6YpMd67yXwjY9ryZT/tBSKrS+D4j9y8P/Aox/Q0rDVQ4vFHNdVJ4QcDi9i/4EhFVz4UuAeLm2PuCaCvaG4lum/G3n3//AF1ZjhAOCuT6ZxSK67BhWGeCWfGDVhXjY4C5IPPzEkGqucthUQLk+Wp9Mnipl28EoufY0qrgAFU/EGpQBjDFee+3FA0hUJxkbT6DNPBlPO1Dj0J/wpDkKcsT6YWpAFK9TmkUKrS7huVRxxjNTDcSCen0qHeg+8RgDJy3NRvqNlF1uEUg85NAy78xHUAfShtzfLuVfrWHN4o0uAH97vPoozVCfxvAq4gtnPucCkM6zBKgFlzUq7gACc59q8+l8Z3z/wCqjRD3J5qjN4j1W4Bzdlc9lGKQXPTjOkA+aQKO+4gCqsmt6db/AH7yMeysDXl0lxNK+ZZXY/7ZpqchSo/IZpXHc9Dl8Y6fGcRGWQ/7IwKqP42kfiK1Ve2WbP8AKuLUsNwzVhW6ZXHr/k1LYXZ07eKdQmHEoQDqEXmq7ajezkiS5nYn/a61jLIq5JJz9cUv2tV7kfhUMVzVV2zuYNn1bvSSTZOScE/571mf2m4BQMwXrtUdaja7Zn3YBB9TmkBamvkQ8lj6dKpvqUhPyYC+1QysrDiIKfUnNVyNw4G7+VNATmeSU/M5b8ani64/Sqa4AxgZ9qtwbj1bA/ugUAbVtBI8eYoXkQdwQBn8TX11XxxDuK7VjKqepr7HqoGtPqfO3xOcJ8RdULgAHyuRjJ/dJXMLKSQxiAT8Mmuh+J6r/wALJ1c45/c8np/qU/KubjyyAluF/HNRLciW7IrmRS/yxEL6Y/rVB5N3KoAO+atXEm+Tlx9Cap3EsYHG3PtTRDGMxbhQuPpTGJHy7RzQpUDj61Hku5OcUxEmfLTFWYSxTAGSelVGGAB/Orce8IP30fToCKkovW7OFIyASKtq6GIRkfNnueKzrWYA7W3Z7YAINWJZmByFUMO4NVEb2O88CaytvJJZPuIzlMNXpUUxI56H3rwLTdRlttRimMmBn5uO1et6XqsMkSAyZJAIwO1bxehcGdP5noaTf6HFVUlDKGU4+pp/mA9+aqxYl7OsFlPK8gQJGx3k/dOOP1r5Vv572++0y6o0pu5JhLLLIMEkr/8AW7elfTHiW4ktvDOqTISHjtZJFIxwQMg/mK+YVvJr+a7NzI0806Fi8hJJYd/r1qJbiepastS8hJEjRIE8s5ML8s3YnOc/SkspTfa7aNLI/mS3ESny22vwwHyt2OO5rNsruWwvobuEJ5sTh03oGXPuDwRU1hJZnV4G1FHezMuZlQ4JX6ikLlszf+y28EGsanNDcyQQ3htVPm5OW3EBj6/L1Brr/CEGnX2lwNbaHaXl+ij7UTdsrH0bDcE8c9K83ls5f7FjvI3kNvJM8bryFVlA2g9slW4+ldL8LY76TxSrW6Fo1ibzt33duO/vnGPpQtxOJn+JNDv4tdujbaQ8UcBUNGmHCZ6ZweScj863vDOs+F7SKzvNSjls9USMxNJsYo4Bxu4GAe34V13i2zNhcLrBCNE0f2e+ij6+WejjPp69uD2rm9fvbdrHSbwRCSawuwS/lgJcwtwzgHjOcBh2P1FFgT6Hd2F7aX1r9q0+eO4gOcsDnn8q5PRm3fE/XHwQBAAw9D8orqWlhsoHlIjht4kMhUgAAAdttc34FEl0+ra9Nhft1xiPP91Sf6nH4UPUfU6vzDg8EnvzXpfhJg3hizIz/H1/32ry+SXYxIeE+hAOTXpvg6TzfCtk/PPmfe6/fai5a3Mfx/IqHTgwY583G0Z/uVxBTjeHm9cEEV2PxIkZBpoXzOfNzs/4BXnjbyNrNISeQJHVB/jSE9zRjk35w7Z7jBNIwkD/ACtgY9ayftEsMbK8DqufvRPvqxCxdASk4A6F0AouTcuAE9SCffNBOMZJP0qAEnowx7uT+lOAO3hefYYoAeQ27OaC4HXgfUUxgxH3Dx0Oc0hDdSFC+pIoEIzhicZP0BNQELnhzn65p5kg3bSwLewFBIx8kLj3JA/lQIjAZlxtLD06UeVKBkYA96azDPOc+g7U3zCvTJ/3jTESbWH3mP4c0pmdOgAHvxVM3AL43kE9lBFJltxwcfWmIuC5Y5xgn2FL9qZRgjH1OaqNKP4pCe2AeKb5x/hQDHfI/lQBcN2SORn69KjN4n3c/goqjLOi/eyzdcYJ/SovMZxyFQHnBPNMVzTNwmM/KvueTUQmXOMjB/ibpWc8scLjcoLt93LZJ+lIzvIOcIvoDk//AFqAuaLyxbtpYsx6KoqMjdkklR6D+tZz3EVsVQD943RVOWNMMkjtmQggdFzx+PrQK5eOGO1Bx3c9PwqCVI0GNu5j0BHJqtJeyqfLVFdyPlXt+PtRC0seWdg7n7zf0HtSC5P9kUDOVDEc7TVb7OZSTGy7AcAnv70ya7eR/s4wpIy5H8K/41KswRdqqABwB6UCK2F83G2Mbuc7QTn/APVUjzCMbtwz3GOSK4aXXL2UFRIR7jrVWS9uZfvSue/Wi5Sps76XU7WNSHlAHs3NUX8TWcPHLMOuOhritzMeTn8aQ/5xRcahY6qTxg+MRQcepJqhN4nv3bKusfbisQDJ607jHai4+VFuXUruckyXDnPviq7MWPzsWPuc00AEd6cF9uBSDQQEA8H8KUEccc0vB5wfwFAOM7uKAHDpSqecjB+tNJUDgZ+tIXB4wB9BQImVlHLDB9KduPAxx9cVW3N68e9AI3cjJpDsWVfkjduJ6ZNSBywGcg+3NVRnPOMfSpIyFYgEg+9S0Jl23WFm3PnHqrDP61YV7eOQKqeZnp5qjA+lUVXIG5o29gSaeJht2h1Xb2Yf41DQi/NIZI9uxEx0MYXBqo6hug+YdcjFJ5hPJYZHQqSKY0xYcSgEHo4/xoQDHQIOePbGf5U0An0x69f50HbnJznvtpnmZ+7g+oNNASqCpO3A/DH+NTwsxcElh7g9Pyqum4A8EfiacDl8gqT6Nwf1pMDTWXdwZf8Avrr+tfZVfFqFgTz9c/N/SvtKrga0up84/E+Up8RtXBkbb+5O30/cpXH/AGiGTgOuB/eIX+YroviwVPxO1dWdB/qfvDH/ACxTvXIB9q9D/wABIb+lQ9zOW7LUjQhcqEPvj/CqQuMMdrAeu0f40s0+QA4z9dymoBNjoj468ncPwoRLJHY7eCxz/dFRqWyfmI9jUTursMFcg9GUg/rSgsAflx9SP6UwJHLjBzke5P8AhU8E77R8sfXsoP8AKqLOd4IZPpyP1qeF2Ck8j6vSsMuKXDM3lOOc5Ax/OpvMaSI7R1/vHP8AKqQnCuD8gb12n+dW0k3DJfd7GTIpoCNT5ZYsDn1IwP1rv/DeqiW1RQBlOM9c/kK88lb5sgIMfxc/zrY8PTSi4Kh22nn57jj8utWgi7M9jsrvKjJIA7MMfzrTWVWAZSpyPrXHWTqqZ3xxt32jccVvW1yWA+8/oS+BWqZqaUyR3VtLBPhoZUKOG4G0ggjmvmPxJo8nhvxLd2KFzHBJmF2xlk/hbjg19KmTnPyKx6E81geJvDeleK7LybrK3EQIhnXho/z6j1H5Umrhc+dZVWQNOrKu58eWDlumc/SmHIOT97GAPStXW/Dt9oWoT2tzGcRMAJF5VgejD6/41Qlt5rZl8yMpuQMvH3lI4IP9akfMegeDdb0GD+0NB1GykhtNQESCUjKq4TaWOehJOQe1SXGh+KvAUsr6RdtPp7HcZIoxJ06blIJB9xxWNpk2j39gbLV1aGWQfub0NkxH/bUfeU/mOavaR431jwndNp09xHqNlCcLiTPy9ij+mOxpJoi9zb034k/aIxHrNmskf3WkiGBjuCpHP0FZfiOxj/sOS48NXH23TpGzNbAbzbd8gH5hz+VdVbyeEfG4Pl2irdEZKhxFIPyPP8q55vDc3g7XItSa+dNN3YaWDkqPR1PVfemk+otSppWoar4w0+DTNW1i0srKJx5rN8s9wRzgk9f88Zr0yygt7KzhtbQxi3iQIiJzgDtXP3/hXTNWh+2aU0QaTLDad8LH12j7re4rno5Z/D8/kamJ9Ob+G5tZC0cn1Q5Un9aL2G5HoLmMtlose7cYr0nwp/yLVpgqR8/3en32rxKHWtRMQkSBNUte8sBETge6k817L4HuUu/B9hPGGCt5nDKVIxIwxg/Si5cHdmZ4/JB07Dqv+s6/8Brz26S4nbAa3KerDmu4+JN7bWsukR3F6lqZDLtZwMHGzPJ4HWuRbyApcfvgecg7s/lxQEtzPis1AIaV2b+5CDS4FtyLe4kB4OTzV9d+3EarF7Pn+Q/xppwoJlm3jocnA/KnYky5b5RJsHmRe23mni8AwGXI/vvx+nWrLPAfkgtwQe5+VfzNQrEWlIwqD/YUgfn/APWqWgHG7ix/rVC9wGx/Oo/PikP7uEuPVgMfnT2VY/mfZk9lY7qieRAQFJX/AHiDU6gPAlZT80ajsE+bH58VG3lK2GZ3Oe5/wqJ9knDqXB5I3cfpTHuJN3loinPRewH1qkxE5WRiSo2jsc5qF1Cj97J+fy1GZPJAM/lx56iME/rUf2uyGcSAZPUj+tO4mOaVl+4g2/3jwP8A69NEqM20zoT3CtQJBIN0eXU9zkCopIUkcNJESV6ZXpTEPeQKMRpuJ6BR/WoljlOfMYYP8K4/nTmlXGSw/wC+SKiMksvbylPG5hkn8KBEpAi9h7daizI+RwEP0J/H0poiVAcEk9yW5NRTSRxEZyzE/dGGJ/8ArfWgCTCxq2VAAGSScce9QicTP8qfugPv7sg/SmrAZXLTsrJ/BEOAPc+p/Sn7GHRj+XT8qZI0KqMWUBWbqR3qJ7n995C/M4GT0wo9/f2qOS4lMogiYGQH5uo2D1Pv6CnRxpAmPnG45Zm6k+poASMIgb59znks3U0ryqgJdhycD3PYVXa4LSFRkhfRx+eDUERa6ufPz+5jysQ/vHu3+FAizFCsW5i2+R23O/qf/rVJlBwXwfrUTttBBAP0aot+7nyn/IH+tAjhKOBxigZ5oA5PepOm4tLkdKMcUh60CFXB+tOXgdD+NRqT2p3Uc0wY/wDOl38HjFR55pOvbFArDyxzkH9aTccmkBxxg0Hp2oCwo5bJzRn2pOg6E0oPHGKAFA53dPpTg2G4H49aaqmlUjJBOB+VIBwzu4JH0p4+9g5+tMxlgc8+3NP37eMPz+FSydyZUBIyx+h5/nTmKoQduV9RUG3cFwQOOCDUqkgfeZsDnC1LEyYBQdwJweoxmh5VTlU+uCBiowyupGDz1ycUi5UbS647cZxSsA3f5h3KxGey5NPyw52tn2wKjeUd2b8iBTQuTuRgM9cnNMY8N5j/AHih9Mk1djYgbVBbA7KBmqoJAz5mR6KKfGqysEViG9C2DSaETmUEBCpQ54YtjP5V9rV8XQl4CwZ4hgddvNfaNVA1pdT5l+KgY/FHWMsCv7njbu/5YpXJMzIPuyEf7IAIrrfixO6fEvWAJmA/c5VFyf8AUpXC4WZyFlct2Ejf0NS9zKW7JTLEGIM4J/iWUZNRuI2yQCRjqigUpd0HzmJe2QMVBLNF91pmOem08H8aBdRC5/2kH/TSkKgDIVGPqhxSAP8AwYI/28H+VShj3cL64pgRgv0beAezDIqRXIGIvI46560xmQPjzmB9D0qaIMwwYotvrQMC0nG4yL9FGP0p8LIJsmOIg8Ek4I/nSMqR4bzfLHcKcCoHMTn5ZXm/2SvH5imG5pSNF5QCPGG/2VPFMsbk29wrtGkpB6zKf51TTIjwkMiH/YINIZWHWcqT1DjFMR6bpmoGVFkBiiGORH0/M1vR3KEAmRnGMfd3D9K850O52DIjQuP4g2TXYWWoyMmABFzz5hz+g4qkzSLOptrgnCqsWMcEHn8uanebdw8uzB7Y/wDr1gRkuN0lyrqeePkX9KuRXEa7UjUEAYyoyPzqkMh1nSNL1yIRXttHMyD5ZCCrLn0PT36V494gtNT0LOkXkcbwqxktpSNxCnrtb0PcHvXt4kZh8xRMc5Y5xWLrWmab4hsWtphLcPz5csS/6tvXPT8M0NXBniCtjaWIYA9G/wDrVes7+O1vBM9pbyJnO0qDg9M89vUfy61JquhXuj3cltcR+XsAOeuR6g9MfyrOe3KoHYkhh8pdeD9KztZkGtfSaTOGu7FmsLlDk2yklWHrG3UfQ9PWtfRfHV9Zqbe/t0vbVhgmUZYf/FfjXHI5DYC7h/sGtfSJdNLNb6pE6ROcCeE/NH7kdCKYbGhda4i3jXOiLJp+/h0jYbG/4D2/OtnSfGV9dyCyvINOmR/lIlHl7vbPIrmtW0KXTiJoriO9tG+5cRtkfQj+E1PZeJEeJbbVbJL+JejphZUHsw6/Q5pBqdJqGj3VhOb3TLe50+QDP+jyCaNvbHBA/Aivdvhld3F98PNLuLskzt5oclcdJXHT8K8L066ZrNpdP1oQIOkIwWUe6tx+IxXvHw5uPtXgPTZi6uW80FlzgkSuO/Pan1Lp7nJ/GbWY9JfQluLRLm3m+0b1Yjt5eOvB6mvNre80u8kB0C6ntbonmKAAL/wJSduPpXpXxnurK2j0cXtpbXSsJyqTNg8eX93PHf8AlXgupf2WpEum3MqHORAw5X6EUnoxTfvHejVPEFttXUoo7iHHMliuXH4N/QVoWN9pl8D9mvAZP4llXD5/HFec2fiXVoGWNrv910PnrvI/LmugXUbG6tw2r20Bc/dukO5T/wADXlfxouTc6s25jnymX9SxO3+tSGPc2GK477cf/rrmDc3enxibTdVjniP3YLiTeT7KcZqdPEt3I6wX9nLphOP3rpvyfYdBVXRVzfaJIQCvlgDtUUlzKRhEi29mbPX8qjtzD5e+CaOYtyWJySfrRI8md2xcf3t3b8aAGiZy2ZIycDB6Y/Ki7SHyiZGQKRj0P4d6RXlmjYRRiNTxvkH8lJ5qMW7QsWQxO5/icEH8Ow/CgDJLMo2xxXUa5wC3f3xVd76NcLPaGRgc7nbn65wK15jqBHybDjqAf15qq97I7NBbxCWYfK8jDCIfcjr9BU2EyCLVrUjcweIertU6Xcl0oa3j8uP/AJ6Sgg/gv9TTIbKO3YSTPHNcHgyONuPovaobw3rNut9jAY4GOKrYm5dbcDl13H+8XpjsQC2JAPUc4rn5b3VLc/vEYAtgDbncfQYq7HBdXEYk1DiPr5AbAH+96n26U07gTtdS3KEWT8ZwZnX5R9P7x/Skht1t8lWl8w/fkYZZj7/4Cpkmt2UBQAPVelNMseAFdvxNACc5x5iY7ZFQTSSM/lwiMPn5pM8R+/1qK5upp5Tb2pwV/wBZOV4i9h6tU6pHFDiOZ0A7EdfzoEMht0gj2RspGcszA5YnqSaH3KMeUzgnnY3T3qQ+ackOjDPdetVryeW2t2k8uNm6IA2NxPAH50E2uytcs08otICUkdcsxI+RO5+vpU6x+WoVUG1RtAV+lR2dr9njIaeN7hzumY85Pp9BVnAIyI0x6g0wZA4kB4jc/XH+FMa6EeA21TjOGABqYu+T8jYx25rJm0651WeSaGQrGh8sblOTj/8AXQFjlc0lNzS0jpaF7c0Gk6c0tAhOc06kxml6cZoBimjH50fnSEA+lAhQR6/pRyT7UA0mfxoAdt560v0PP0poz2pcjJyaBC8nrmlAweopBj0NAVgeMfjSCw/LZGOQf7vapQoIHyk/jUeSQMsBSnDDks30pEkq8dGUDsKaJXLbTuPoVpqI2SCoI7ZPNPCkD5iAPalYY7ODny8t7mkMkg5GwD0BoIiK7Sxz9f8ACmKNjY8sMB/EeD+tIQ8S78j5ifShVxwqAD3OKUljjGFFRyE9PN/A9KYIcxkBB3Lj8qchif8A1m4kc4IyP0qKMBjjyz9R/wDXqcOUOBsXA7nJ/Kk0BYVtq/JDye/TNfbNfEDMzKT5xUjvjANfb9OJpS6ny78XZZU+KGr4jyg8nkHn/Up24rhzLBOu2Ry2OdpX/Cuv+MLbfirrJMYcHyOM8/6iPtXHiQso2ofp0qWZy3HjYADHCcduBUckkvQxjb7cn9aRmkYYDKv61ExdP9b8w9VP9DQhWFQw78hiG78Y/Sp1YfwAn6CoRLEQGQMT7Cn726hQP94/0oE0DytnEsRC+uN1LGsGdyyc9wGwPypn73dkNuU/wjg05XijYb49r+rjP6imV0J42hQ/KobnPC/1NDvuPMQUH+I9vypi3AkU+X8xHbOP50/bMqFjsjHqP/r0EiQlQWBuicnpuA/+vUjSwqQu/efTGTUL+VKwO158d8cCnqJGAUKkQHpyf0pgW7OVhLmK3OPVm2/y5rpLe5EQBm1HbnkRgZP09a48JIG+d2kUHpkp/LrW9pt/bQIAyCHJxnaOfypoaOtgkO0NFYCXI+9I20n6bq0FvJMf6RJLBxjAjOPxPNZFves4/dRyMByCRtH6/wCFXEkvWYM0yxoT9xF+b8zxTLTNuGXed0UkMzdMk81K1zJGCTDIxH8KMOfftWVGbbeDJbs7njeybz78ipTNZx/JHcMpPAVGLEf8B5qgF1Swttat1iunSBl5jdeXQ/U8Y9ua8/uLJtFmksr+3FzYSAkqpyVHeSI9vdf/ANdd6JdRMiiOOPyQMlrg7W/ADP61DqGn22qWT21zaArwQ8ONyt6jvmk1cTR47qENva3RSCVZ4jzG69SPQjsarBmz8uUxzyOa2Nc0W80OYxuD9mf7rhflP19D7VkLK3UAMo/CoAkQr0L53HnJ4/Krt5plzYxxy3EBSGQZSTqp/EVms27/AJZADHUcmtXSPENxpAMIRJ7Vx88E67lP09D9KLCsZ7yN/AW+p6V9V/Bwk/CrRcnJ/f8Ab/pvJXzwNMs9ehebR28m4QZezkf9VNfRXwhjeH4X6PHIpV1M4IPb9/JTSNKe5xfx+kgiuvC73MBnhBut0Yfbn/Vd68sGj6Hqse7SLz7PcY/49brjJ9mr0r9o0Ns8NsELAfacnGQP9V19K8IYPuHG0DnCn/Ck9xTWptXmnS2Uhhuo5rSQfxctG3+FRSabqUEPnxl2gYcyQ/MMe+P606x8SXtnGIXcXEB6wzDcD+datpqGmyt5mnXEulXZ6xlswtRYhGBaP9nk8y3nCP0J9fbmtiDWtWgjYlTPagfMh+dR/hTrvUdOu2eK/slguxwLi2xsb3I/wrNWxntCbmCaQqOfMhztqbCN6wu7a6Pm2dxcWNx3BG+P9Oa249T1S2X/AEu3ivIQP9bb9ce4rik1i3mfddIBLnIuID5cgPv61uWOuKvNw8V3EOfNUBZAP9pe9Uhq50ttrdneMEhmw/dHfaw/A9amuLtLWPe/mEt91AMs/sB3rk72Sw1wlLO3Qj+O8AIKfQDlv5UsFpe6TKZtNv47rIAeO5+8R6ZPb8qY7mvNqTsqrPHjcTuiU8r9Tj9OlVzctDGototsSLwFOdv+FMh8V2xfytQtvs0pOCCMr9Qa1IWt7mPz7cR85wVI/pRZsW5kLcG7cJPApY8Bg3b6mpJIreK5Fvbkm44YqG+4PUk8D6daW6n859lrIoQE+ZLjP4Ke5/lVeO+gto/LSyCp1bc2Sfqe5otYRZlhuoHEyxC6bb/rATlR6Adh79ap/wBp3C58yHjJUAA4q4l3BPjdbmJV53c4P4irBiDAbZZB3HzBv0NMRnwXcc5CbFV89CMZqTcboSW0YKhRh5Bjj2HvVVlS51B7eORNiLmWUJgqf7oI4zjP0qzPN9nJ224aIdCh5/H3oAeqJZW6RoSsajAG04pi3kbts3ox7/5NVhqcGQSJEJ4+lTRyWs8uUkRpOnI5NMTY9nAGWUY71n24F7fi7D7rWH5YgScM/wDeH0pupGW4uIdOiZVEvzSuD91B/jWktsiBViykaDCKOgFFh7DWAc/c6nqVBqNkQLkDB/ED9Kkb5Rhl49xioFjAYt5Z4JIwxpkjGZkikd7hV2qTkHpx6GotHBTTY3nDNLKTI3OOpqHUpWFo0Pz+ZOwjUsOeT2q+w5ChxhQFB9QOM0D2R5/0paQZpeKR0vcOoo9+1FGOc0CFxQRmgUtAri5/OkyM9KCD1ApQKBCfe7YpccdaMc9aDg8Y49qADgYoIzggYIoUMBjsKdg45P4UCdgwfWj5fXNIQCOTj8aVDnjbk+woAd94Y2n69KeoYL8zLj0pOfQD8aXaQcE/lSZNxdx5+Y4x9BSEIcENyPxBpjjy23A7vUMeKeku5RgN9MdKLAPV3xjYPqOM0Hd3IAPpzS7mHYfU80yRGI+V/wA6Vg6iNGD95z+JpFYocBQ4/vYpAwU4dQp9T0NHmA8AFvwoHqTByRxjmlVcjg5yeo61Dvc8LhfrSFXJ+/n26UhWJM+UQzMrexPNfc9fDELwpjdHtf1b+lfc9NGsD5V+L8qD4q62NrFh5HIH/TCOuJDuTlUCe5rufjBdJF8UdZU9f3HT/rhHXBPI7nhNvu3FS73M5bjyrOMGUg9tgxURUx5Zoww/vd/yNL5bt958D27fjSFYFx8289+STQA9Jlx8o3fSnlnPAjA+pqLe7Z2x4A/vUjRzN/FnHVelFhEp2g7pJDnHQU+Nlx+4iJ9zwKrq4iOGjCk9+v61OJUAGSMfXNArD2g8/wD1hT/gA5/OkjtzC5bCS46CTOaVSx6AhT3Y4FIwlz8+TH6RcH9aYXJPtYRgJI2Qnoev8qe1zI3EcJYf3n4qGEwA4ACtnoeD+tWDJHGgLEY7EmgTIpRcMmfNVcDoBjNWtLu2tZcm3yf76fMf15qt5zTZ2Rlh6ngfrUKSTpJ8ykJnrF1/xFAK52tvr1uDnekbEfMmGDfl1rQTUJpUxBB8p6PMdq/XA+Y1zOlXtpCvyMnmd88MfxPJrbS93nI+X5TkY7VQ0zUDagwBkCTIedkbGPH59fzq1BcpFGAYWgzzynH4kZz+NZC6oizFFSR5P7qLnj3PQVOt3NIjibzLUdmiXfge7dP0oKubK3sAiDeYu0d8infaLmVSIYOByHmbaue3HWqNk9ruWS2aKRz951IZz9T1q954wPmK89TwD+VUMqS6a1/CYtVzcI//ACyj+WMflyfrXnfiLwq2kSGaHdJaMflYLyvsR/WvTLnUbe1ZUlkxIw4QDLt7ADmqFxdXt7vi8n7LbsCPMkUSOR7KMgfjQ1cGeQAbQcOR9eRSBnwTwQK6zXPCQt4zd6W/2iLkvGTl1PciuUywOCCMcVFguCzAEHaVYfdZeCK+t/hLdzX3ww0a4nkaSRhMCzdTiZwP0Ar5JyB0/OvrD4N4Pwo0XHT9/wD+j5KEVDc5n466wulnQI5YvNt7gXIkTPp5WP5mvAL37L5pezlfYf4HGMflXtP7SLBR4az3+1f+0a8HVQxGWA9hQwktSXcyg/Jn8aiGCcufw6VJtx0J/nSHdj+FqCR6yEjaH4A4HYU6KWWE5iZ0P+yeDVc9g3yj+9jmnZVSNrt9aLA0Pml3MS4DOfQVEqE8sdv+yCaeqMDlSGx3NKWYdVP4c0Br0NOz1hoSoniDgdGT5XH4jr+NdBZ67HKMIVnX+4w2yfkeDXGb14DY/EYpCyAE8k9sGgnlPQnvdIurVmuRCVQZZJVwR+feueGlPc3E09jMbCBh+7glcguPf0H1rn/PllZTKxbb0BzxWjb61PCcOPMUn+Lkii4Wsbqa3faWqxajYkRqNiyRDgD+VbFtqmnahCxhljY4+46gH8jzWFaa1a3QMZjZSTgqHIzSy+GLe53S28sts/UZ5H6U0LS9jomt42IKkx45JRitZV1cTNcLYwXewAEzyOwJQfXjn0rGe/1rS5pLTet1sXO4KWKD+hq7a61YNbCCFfLkJ+YSgZJ9ST1pg00a/mW2nwpbxRnaF4AGc/U+tVm1W2PDW7Bval2JLIwngRol5DoCM/lUkVlCoL27kbuxGf0NBOo2EWt9H/qiD9arXlpBp0El1uxtGQG9au7JUJ2iM+oAxWejtqt188QFpbPznkSP2A9h/hQCFtbR/srzzRIbm4+d1bJCjso+gqlJeSW7MnkeVnujnNacksC7t7MpPJ2k9aqS/Zb1CPtB3cDLdRQ0K9zOGsXqDghh0+dQf8KuW95eT4ItImz1YPgCo20Zxwk6sOxxyaRLG5tvm3FVA5ZTn9KSuBI6m41qCNwym3XzWycjP8NX9sh5EnB9qyNMZ7lry6MrfM4RRjkgVbe6uo3KiN2Hrtp3B9jjT1paSloOphQRS0UAIDjinfQGkpcntQiWLn6U3POCacFPcilCgjpmmIbxmlBPYU4MAKTdx0oEHOOKRW3H5utL82ewpCF3d6AH8DPIFG/P3QTQABSFwODzSFYGd1HQYpww7DczEH0pm/rgfnTRlScHGfSgaWhONg6Io9z1oMijvn2WolAJ7k088Y4FIVgaZ+CEx60AswzvyPQcUm4HnJOfSmFW3ZA2mgZJ8nBC8+p5oLDuR9KbgnqT/KkBRenJ9qQrDt+ThVJH6U4eYTwQPYdaQsTjAx9aXazcZ/LgUAGxP4iW9MnpX3XXwqnytwOfWvuqhGlPqfKHxkRG+K2tZTJ/ccj/AK4R1wiu8bFWcqOg3jNegfGFsfFPWwP+mGc/9cI64JpFI2kjHp1osQ92L5QZcsxI9SeKkCKiA5+mBVYK4z5eUXvuqTHy/PKzfSlYQGQDvzSeedwAUKf9rvTl2gYVSM0jLuGCMigWg8Kz53sSvoOBUqKiqNqAfSqm7y/uMf8Ad605TM3OAuaLBYubsjqPrQ95EGAVi79Mf/XNVwoJ5cv9elSmMFdrKuPpxQLQUiSZSJWRFPUbc/rUiRwRAbfmI7nkioBEU5jmI/2WORSC8KPtKAnrlOaAtculwR0JA9ageYJlicDrk1C0s0jdFjz26mmbIiSGyT6k5oEo9zQhnNyqxrCkgPAMgwB/Wta0tlj2l5pJFHIXdhV/Cuctw0chMcpTjgHkVr215Ou0SW/menldfy70wfkdTFOu1QpI4zgHrVtZhtGFABPc9a5mPWYHbESySPnGwLyP8KtJ9suW/eSmCM9EiILn6t2/CmBtTyWRby5IhJMcEBV+Y01LW9dt/wBruLa34/c7w7H/AIER8v4VRj0u3iZmtZJreQj5nikIL/XOc1KqanCmElhulB4VwUY/iMg/kKoq5sW9tb2js0EYWRiN8mcs31bqanDncSGIJPHHT61jNqvlsourea3H99l3J/30uaV9ctDIsVq5vJmOFjgIPTuTnAH1oHc2WhgmciaNHPUZXJziuF8Q6DaXMrSaIHkmXJmjTlB/wLoD7da6Nree9BW/n2RkYMMDYH0LdT+lWFiuLaBUt502jgJInb2IxS3C55R5BDETHBBwV6Yr6w+Dgx8KdFGMf6//ANHyV8/+JNEllY3kFoyyAfN5TBlb8ODX0B8HMj4U6KGBBHngg9v38lKxdN6nDftFjP8AwjZ9PtX/ALSrwgqrdBmvdP2jm2nwyM4J+1df+2NeEmRV7ge4pCmnzBsOcAkfjTCWBwCCfpQzl/ujA9TSBWX096BWtuKAxbLcmnMc8bRTd+PUUokz3FAasUAZI5GfQ0oDD+Lp2NKDznimM7OSFP40xJMDKWYggE+3NDBP7uDQrbRjafqKXzFI68+9BXoJyo+V8UhLEdvw60pUe1JsOcgn8aLBcbkqwPTFaVvrt3bxGOOVvm45PT3rOLEDBwaTtgrigLJnYaPc28VsuZ5RK+WlmGHDt71JeaPFqQLxm2dv76gqfxxXGxyvC26KRlP+ycVeg1e4jcEy7T/eVadyHGW5o/Ydc0libUmSMdlYN+lWrPxRH/q76NoZc8uBx+VO0/xBNch91sJQnUxsFJ98Gp55tK1GJvtETIwGfmQhh+Ipib6NFi71KOeKKKxlSSedgiEEHb6sfoKRLSe0tFt7a5TZHkDfHzn14rnbTS7hle+sJvL+dljVuHZR1pG1y8iPlXMbCReC3RvxoYNdjVe01Iy72aNhjgxtVN7ecSESxupPU47/AIUQ65JKRtkwF/hfHNaEesg4DRshJ6ilYhplCOO6Vv3blsDPyseKu3VxLZ6bNJOjeYB8oYetX4mgnTKAMM8k965zxDzeQ2sUhUPjcm44yT1osOCuy/p8EiaVBHsP7xDIWU4OSf8A9VMaG5U4aWYEeiE1qTxNt2JlNgAHXoKzftWpISvlFvQiOmxN6nJ8UuDRnFGaR1MUZ7mjHtRzQc0CEPrTs0gxilOBimhMOe1LjPU5pM8cUZJ9qBWEYbcMBTsjHWk780cY6UDFJGOASaXJPHam5560ZxxzSAUjPWm/cOM8etL8x9qQr680AhxI7mgMOy5poIFAJD5QcehoAkw3BPA9qXC55OaYSzYyelAABxSJ2Hbl6Lk0DeTwdtKDkY/WgsMk9KBDSm4ckn6mkDFDyPl9RQW3UvzEdgPSgaHZBHUY9qXcP4cn6U3YgHBp2fr06UrAKEYgdF/WvuuvhfzCMe3fpX3RTLp31Pk34zIT8V9aPUfuPl/7YR1w0ZUnAAU+nSu7+MsoT4r61n/ph/6IjrgS3mDhCcdzSJd7u5OeQflHFNJC4JbrUag4wzce1PAA4HX1oIHCRjwq9v4qi3ncRISPYdKfnjmg4IwRxQFxygDG3H4U7JXnPeoCAh+Rjn0604F264X6UBbqT7xwWIpGlYglEL+9MCgHI5x681KsmOhxn36UCuQqfNO15Ov8I4xUuDGu0Adf4aVtjIQ6j6jrUL5jUYkyvXD0D3Hl/wD649aQ4GTuGPSofMMmNqY9c07yyQPMfv0FAWsJ9oC/dBJ74q/bGS5UF5yqD+GM4/Uc1TAAUqFx9KlREJUrlSONy8ZPpQDa6HQWzrEgWJEVfb+daUMmBlTgdR71zkT3MS5DJIAejcNVyDVVXakqusnOEK8/h600RqdLGxJzkDqcHjNMn1OC02iWVRIT8kY5ZvoKyklubpwd32eI8cHLn8egq4ltaDrbxkkYJZdxP1Jpjui0Bd3n+vkFrB3ijOXYe7dvwq7bRwWkIht4hEmMkKOv19etZAs1jUm1lltyf4Vclf8Avk8VMJL6HPmCG4AHBjPln8jwfzoBM2d4XA4b2pDJhgPXtWSmqQMcOzQuW4SVShJ9s8H8Klm1KKA+TFunuWGRFGcn8fQe9MdzTM0caGSQhQB97OOO/NezfDeaG48BabLb48pjMVI7/vXyfzrwH7Gb1SdSKyZORbp9wfU9WP6V798N4kg8AaZFECEXzQATnH716TNKe5wvx8sDqNtocEVu8s+ZyjD7qf6vOT+VfO09rJaXLxTIA6mvpv4yW5n/ALF23EsDjz8NGf8Arn1B4PSvFdY0O9vE3B4J5VGQxGx/pxxSsEnaRxqkgHtQG+bBNPmjktZfLnjeNx2aoyQWznmkLccWpDtx2prMFFNILcmmOKFALdM7afnaOOlNBZR0H4UBuxoBjhR196QexoJFAhCoHSkZj0zmlLYGaQIc5PWmNK24Kvc8ml6UjNz3FGfTmgLXEJHU0YGO9J17UoHFIdxVZkbKHB9RxWjDrUqlVuI1lA6MOGH4is000GmFlLc6iDVLebaqujDvHOAG/BqneDS71dlwskMnb585/HmuRJz3qWOZkG0gMvoTTuR7O2qN2bwsW5t7penAcf1rOnt9Q09sTIxUfxA5FPtNSeDGy4li56P8y1qJrLkHzoEmHrGf6UWTJbktyrpmqIrqrSBCTyH4H50+OEan4o3IUeOLDsrHqB1xUN3HpdypeMvbueuV4FVYxcabI0tu0cqkbSUPUfhRYatZ2OrkhzJmOeRVGcKSD/OozDcE586P8UINY1rrMZGySWaBvc71/wARWpFPNOm8XNqw6A8jP607mfK0cZSClxzQBipOoTNLzS0ZxQK4mM04jIpuaXJoBiKe1Oz3puOaXOB2oQN3DknpS8+tJmkyfpQKw7AFG4DFNA9ead78UBsJk9hSgZ+8c0Ckz60CsDKO1Kp7HrTcntSlSTz1oH6knfqM+9N69Bk0mB2H50Z5x1NAthee5pGXBypz6g0u7DYpCwpAmxyncMg0oPriosZPyg04Ix+8TQFkSFlAz3poYt90YHqaNgXoOacM9aBXViNgwf8Aecj1FfeNfCeeeRkelfdlBcHc+TfjIEPxZ1zPUeR/6IjrhSDjg8+1dz8Zkz8WNbIOG/cf+iI64MSEfKVyfaglq7JFBzyfwoJx14phdznjaPekC9xyfUmkTygZB2BNOXD9Wz7Cj8aYU7gkGgehMMAYUflSkcdMYqBZCvDdu9P3qoOTnPagXKyQEgcj6UjOFwSeai3O/CjaD0pwjwMgbj70BZB5zu37vH408RZO6Q5PvUZQEehpQzr94bx3oHvsSghQefoKTknAPH0pIykmdpH09KQnaMk96CbMdnsM4pRL5fU7f61BvZs44HrSFB0J59aB8pfgnklb93iNTwW6/lWjCqxcovzj+InJP41hxmWM5T5lHY1dgvlJKFihPZhTJlF9DcjuSEVmBJPGRV5JOMZxWNFNjOHwPbpir8ciBwoPAx0OaDM0Ul5xnORyc0s99BbQmSaRURR3PX8O9YsmqkOYbOPz5sdvur7k1EdMmkdbm4uPMnX5grjMf0xTKVupduHudbt/L8kQ2Bfl3GXf/dB6fWtGztYbCPyrVFjUgbiTlm+prP8A7QuLYAXdm5Gf9ZEdw/LqKtQXcc/+pkjYn7209PrQNtmmG2uAuORXvPw6OfAmmnj/AJa9P+ur189qwZSOB619BfDf/kQNM/7a/wDo16DSnucx8YiVGjEdcT/+068yWQhQOBk5xmvSvjKSv9iHjA8/j1/1deWmVEUMyhQByf600Kp8RFqGmW+pRsJEG/s3euG1LTHsZ3jxnbySP4R2z6V181/dT3iQ6eqNGoDSynoPZT0zTFurCKA200LQ9iZ1xv57t0J5pWJTscKoHXqad7YrZ1bRTaJ9pgIaFjk7edo+orFGeDikWncXp60vXpzTSaBQMUjpgdKQkikzgdaB8xyTTGkKvXJ6+lL/ADozz0zSZ7UCeooPOTz9aCAef5UDpSA8UBYMehpMmlpCcDFA0J940tAHFHegYm0UuPejvRQAnPoKVZGQ5BI+lGaOtAbkzXbvEyOAcjqOtWdPuo4LdkaKFmdsncOcelZppcUXBwTVjcWDTrtWLbrdz02klaiOiT5/dTqydjnFZsNxJAcoePQ1ejvbYrmRZFbuEbAp3Rk4yjsZuaKSikbi8ik780c0UCFGB3oJ9KQUvSgBOcU4DNIaQEigOg88U3rRnNJ3oEkOzSE0vFJQAA0uBmm9KUGgGO+lHOecU0n0oyTQFh3TrTd3agKOpoIxQCsHLfSnBQB0596aDTjSE7ig4xk0vvmmDvxQWH/6qBWJAOcZzQSF6mo9xJxTfutzyKAUSQuf4V4r7wr4NB9K+8qDSKPkv4z8/FjWwSf+WGB/2wjrgvu9B+Vd58aP+Ss61/2w/wDREdcEcZ6mgnqPDbjzSnA5zTMijcPrmgmw8HI5pC4APOfpTG3ZBbp7UA4HFIEh4Vj1IAPrQEAPyj8TSZOMZNOySMUCdxckc5zS5xz0NNH4UpI/CgQE+pppdgOuBTS/OBz70oUY3Oc+1BXqNPzdF59aft7scn3pdygdKTIYdQKYncfu4A9aYVO48UY468UvbPekIeh2AcVONjEB03ZqtwAD+lJ5zE4X73Y0wsyy4+zKWilKDHKtzmrEX2m9QGQ+VD3CcE1VgiCsHb539+1XfNVd2B8pHJPU0EyfRF+3CQReVAgA4JPrVxX+TBPJzzWakpVcEnpwPSpVkPC++TzTM2aaSABizEkc5qOS1t7gGR02P2dRtY/iKi81drNk8e1PVyEypJORweaBIQRXtugaKZZlznypvvfmK+kfhe7yfDnSWkQo5EuVJzj969fNE16YZPLRfNmY52A/z9BX0r8KxIvw20kSuHf99kgYH+ueg3o7nH/HW7jtP+EfMoYIxuAXAyF/1fWvJXZdSTBUi0BIyeDIfb2969X+PEMcreHTIThTcHbngn9119a8sWTjOTjoKETVfvE8ASGBVjwiIMADoKkyJMrs3KeoI6D+tQb+g25HcZpVYhQSCAfeqIuRzabbMjGIvAzcHymwp/DpXNanotzBI8sZWVO+0YI/CuqSQE8rj+VODZ4IBHXgc0rDU7HnmecHIpM4roNa0hVBuYVKjG5lP8657GTgDik1Y3g00A+Y04gelGMdKAaQ2xMehNGT3p2aSmFwB45pcehowDTdvpQLQd0pnU5pT6GlHAoK2QDNGfUUd6KBITj1paKTFACmkBoPFGaBpDTS0DmloHcSkxTqTNABRRRQAuTSUmaBxQFhaM5oooAKXpSUZoELmikzRQFhaQmjn1ooGHOOKMUuRR1pCuHHpSikpc0CFPek7CkJ5o5IoCwEelBJpBjNKaBiYz1PWnYApBSZoEx1IcUZxxSEigEgPGMV96V8F8mvvSgtHyT8ZyP+Ft62On+o/wDREdcEOScDNd78ZwP+Ft62f+uH/oiOuDzj2oIe4mD3pwHpSUoNBNxwIHXHPrTGXnK0vp6ilINIF5CBvXg0uT60wkUBCRyTimVoLuI4ApdjMfm6e1OAAIxSt+VBLYhRSMA03DJ7inc0bu3SgSuIpBJ6D60EDGBSFQepwaaSy98igq19iRcDr0pGZdvv6UwsccUAY+p70BYUBm6nFKEKnIPSk5xnOacvPegLkkcq7vnyvrVlGDNndhfY9arDldpGe9NEZ6oxBz0oIsjURgQM5qwjDaRxj196yPtBUhZF244LCrXnp5X3gUHvQZuDNHzCW2qGPA7io5byVy0Fmu5s5L54XjpmqMbSXLFUykOMMx6n6Vej2RxbUTag7DqfemK3KFrdwWkISWN0lcfMzjhj65r6h+FbB/htpDAgg+dyP+uz18xH52AZdw7g8ivpv4TqifDPSFjChB52AvT/AFz0M0o/Ech8d3VBoJchV/0gkn/tlXjqXkDjPmH1APFesftBwJMPDu5ipH2nDA4/55V4bJaXKkAEyqO68MB9KQqiXMzoFm8xcptwe+aesjO2GHCHr2rMsbi3EYhSQ7l/gfg1baRVBRnUenaquZ2sWll3LhiOmTTg4BJJBK9areYGACsCp9xWfNPPfzfYrZsIOJpOn5GgcVcfPOdXvfsiShbaPmRgfv8AsKh1XSkWEzW8W0DsOpFTrpNioC+Q+QcBi3J/KpGs5oI91rckpn/Vz8qfx60DuuhyhypIPFJnitq8TzNy3Nq8Mo53IMrWQ6bTlSCPUUmbRlcaKWkopFC0ZpO1IT2oBIOpzSkkCk5Apc0x2DOaWkozQAtA5o7UY4oFcDTSaXvSGgaAUuaQdKKAF7UlFKKQxDSYopaBiUtJS0AFFIetFACk0nNLiigQmKWkNLQMKKKO1AgozxSUUBYXOKMZHJpKBQOwv0ozzzSUGgVhTRSHpS0AFHFJS45FAMTmlpKWgA6cGvvSvgztX3nQNHyT8aP+Sta5/wBsP/REdcFXe/GcZ+LWuf8AbD/0RHXBHpQS9wzR9KSjPSgEri5o5/ClUClzk0C2AAY6dKUkn6Uh/rR3zQSL3zRkZpBy2KVht6UAGQaKReetI3BoC1xS3B4zTRyeeKAOM0pOfyoK2FwAKaTnigniigBe1IDQetBoBD1PUZqQN0qAHDVID8uaCZRJWkQAbgSM9PWmxQgyb5BtTrt9ahj+ZiTzVvG2MEd6CW7aItJICp24A7D0p4f5OCc9zVQfKu4dakjAPmE8nAoM2i4Jxkj14zX1B8JCT8MdHJ6/vv8A0c9fLEcp3FsDKg44r6l+ELFvhdozHqRN/wCjnoNKPxHG/H5wh8O5GQftP/tKvGldcEJk574r2L9oNmX/AIRwA4B+05/8hV44flQYHUc0yKvxMfMkVypWUK+Oh6H86zp7KcKvlTGT0R+oq3ES4ZiTkHio7+RoLcyofnzjJ/z7UExbvYzY2uJJfJjDI5OGwOldBBFHaW4iQ+7Hux7mqNllNPRwTvlO9yepNWkO7qBzxQhzl0Jwqlyw4A9DjFSv/quGOM8VC7mO1CrxnrxUygSeWjD5R6UzMHLFcqAT3256VSn0qC7VmWIxPnqgxV1f4eSO3FMZmeZ4yx2BumaB3scvc2kttIVYZ96rda6+ZEYMCo6Yrl7iNVlbA70mdFOfNuQHpQPWk706kaBRiiimAmKMkUtJmgBc8UZ4oABpDwaAsLTTSik70hpC0YoopgHelFJ3oFID/9k=;" vertex="1" parent="1">
          <mxGeometry x="77" y="430" width="110" height="110" as="geometry" />
        </mxCell>
        <mxCell id="9ybyBgt4PyTuUXgcpJM6-109" value="&lt;font style=&quot;font-size: 15px;&quot;&gt;&lt;b&gt;Patch + Position Embedding&lt;/b&gt;&lt;/font&gt;" style="text;html=1;align=center;verticalAlign=middle;whiteSpace=wrap;rounded=0;" vertex="1" parent="1">
          <mxGeometry x="54.5" y="370" width="155" height="30" as="geometry" />
        </mxCell>
        <mxCell id="9ybyBgt4PyTuUXgcpJM6-110" value="" style="endArrow=block;html=1;rounded=0;endFill=1;strokeColor=#5F5F5F;" edge="1" parent="1">
          <mxGeometry width="50" height="50" relative="1" as="geometry">
            <mxPoint x="200" y="485" as="sourcePoint" />
            <mxPoint x="262" y="484.66" as="targetPoint" />
          </mxGeometry>
        </mxCell>
        <mxCell id="9ybyBgt4PyTuUXgcpJM6-111" value="" style="endArrow=block;html=1;rounded=0;endFill=1;strokeColor=#5F5F5F;" edge="1" parent="1">
          <mxGeometry width="50" height="50" relative="1" as="geometry">
            <mxPoint x="200" y="385" as="sourcePoint" />
            <mxPoint x="221" y="384.9" as="targetPoint" />
          </mxGeometry>
        </mxCell>
        <mxCell id="9ybyBgt4PyTuUXgcpJM6-112" value="MLP&lt;div&gt;Head&lt;/div&gt;" style="rounded=1;whiteSpace=wrap;html=1;fontSize=15;fontFamily=Times New Roman;" vertex="1" parent="1">
          <mxGeometry x="229" y="240" width="40" height="40" as="geometry" />
        </mxCell>
        <mxCell id="9ybyBgt4PyTuUXgcpJM6-113" value="Class" style="rounded=1;whiteSpace=wrap;html=1;rotation=0;fontFamily=Times New Roman;fontSize=15;" vertex="1" parent="1">
          <mxGeometry x="160" y="235" width="35" height="50" as="geometry" />
        </mxCell>
        <mxCell id="9ybyBgt4PyTuUXgcpJM6-114" value="" style="endArrow=block;html=1;rounded=0;exitX=0;exitY=0.5;exitDx=0;exitDy=0;entryX=1;entryY=0.5;entryDx=0;entryDy=0;endFill=1;" edge="1" parent="1" source="9ybyBgt4PyTuUXgcpJM6-112" target="9ybyBgt4PyTuUXgcpJM6-113">
          <mxGeometry width="50" height="50" relative="1" as="geometry">
            <mxPoint x="360" y="258" as="sourcePoint" />
            <mxPoint x="410" y="208" as="targetPoint" />
          </mxGeometry>
        </mxCell>
        <mxCell id="9ybyBgt4PyTuUXgcpJM6-115" value="" style="endArrow=block;html=1;rounded=0;entryX=0.5;entryY=1;entryDx=0;entryDy=0;endFill=1;exitX=0.049;exitY=0.004;exitDx=0;exitDy=0;exitPerimeter=0;" edge="1" parent="1" source="9ybyBgt4PyTuUXgcpJM6-25" target="9ybyBgt4PyTuUXgcpJM6-112">
          <mxGeometry width="50" height="50" relative="1" as="geometry">
            <mxPoint x="249" y="304" as="sourcePoint" />
            <mxPoint x="370" y="234" as="targetPoint" />
          </mxGeometry>
        </mxCell>
        <mxCell id="9ybyBgt4PyTuUXgcpJM6-116" value="" style="endArrow=block;html=1;rounded=0;endFill=1;exitX=0.5;exitY=0;exitDx=0;exitDy=0;entryX=0.058;entryY=1.001;entryDx=0;entryDy=0;entryPerimeter=0;" edge="1" parent="1" source="9ybyBgt4PyTuUXgcpJM6-31" target="9ybyBgt4PyTuUXgcpJM6-25">
          <mxGeometry width="50" height="50" relative="1" as="geometry">
            <mxPoint x="262" y="430" as="sourcePoint" />
            <mxPoint x="260" y="350" as="targetPoint" />
          </mxGeometry>
        </mxCell>
      </root>
    </mxGraphModel>
  </diagram>
</mxfile>
